<svg width="45" height="44" viewBox="0 0 45 44" fill="none" xmlns="http://www.w3.org/2000/svg">
<g clip-path="url(#clip0_92_1695)">
<path d="M22.4994 5.5C21.6561 5.5 20.7944 5.57333 19.9328 5.75667C14.8728 6.72833 10.8394 10.8167 9.88611 15.8767C9.00611 20.6617 10.7661 25.0617 13.9561 27.9033C14.7444 28.6 15.1661 29.5717 15.1661 30.5983V34.8333C15.1661 36.85 16.8161 38.5 18.8328 38.5H19.3461C19.9878 39.6 21.1428 40.3333 22.4994 40.3333C23.8561 40.3333 25.0294 39.6 25.6528 38.5H26.1661C28.1828 38.5 29.8328 36.85 29.8328 34.8333V30.5983C29.8328 29.59 30.2361 28.6 31.0061 27.9217C33.6644 25.575 35.3328 22.1467 35.3328 18.3333C35.3328 11.2383 29.5944 5.5 22.4994 5.5ZM23.4161 25.6667H21.5828V20.9183L18.2278 17.5817L19.5294 16.28L22.4994 19.25L25.4694 16.28L26.7711 17.5817L23.4161 20.9367V25.6667ZM25.2494 34.8333C25.2311 34.8333 25.2128 34.815 25.1944 34.815V34.8333H19.8044V34.815C19.7861 34.815 19.7678 34.8333 19.7494 34.8333C19.2361 34.8333 18.8328 34.43 18.8328 33.9167C18.8328 33.4033 19.2361 33 19.7494 33C19.7678 33 19.7861 33.0183 19.8044 33.0183V33H25.1944V33.0183C25.2128 33.0183 25.2311 33 25.2494 33C25.7628 33 26.1661 33.4033 26.1661 33.9167C26.1661 34.43 25.7628 34.8333 25.2494 34.8333ZM25.2494 31.1667H19.7494C19.2361 31.1667 18.8328 30.7633 18.8328 30.25C18.8328 29.7367 19.2361 29.3333 19.7494 29.3333H25.2494C25.7628 29.3333 26.1661 29.7367 26.1661 30.25C26.1661 30.7633 25.7628 31.1667 25.2494 31.1667Z" fill="url(#paint0_linear_92_1695)"/>
</g>
<defs>
<linearGradient id="paint0_linear_92_1695" x1="40.9271" y1="51.9444" x2="-0.0498235" y2="45.9303" gradientUnits="userSpaceOnUse">
<stop stop-color="#003F9C"/>
<stop offset="1" stop-color="#00EAB0"/>
</linearGradient>
<clipPath id="clip0_92_1695">
<rect width="44" height="44" fill="white" transform="translate(0.5)"/>
</clipPath>
</defs>
</svg>
