<svg width="17" height="17" viewBox="0 0 17 17" fill="none" xmlns="http://www.w3.org/2000/svg">
<g clip-path="url(#clip0_446_2955)">
<path d="M13.9261 2.82598C12.0561 1.55098 9.74698 2.14598 8.50031 3.60515C7.25365 2.14598 4.94448 1.5439 3.07448 2.82598C2.08281 3.50598 1.45948 4.65348 1.41698 5.86473C1.31781 8.61306 3.75448 10.816 7.47323 14.1947L7.54406 14.2585C8.0824 14.7472 8.91115 14.7472 9.44948 14.2514L9.5274 14.1806C13.2461 10.8089 15.6757 8.60598 15.5836 5.85765C15.5411 4.65348 14.9178 3.50598 13.9261 2.82598ZM8.57115 13.1393L8.50031 13.2101L8.42948 13.1393C5.05781 10.0864 2.83365 8.06765 2.83365 6.02056C2.83365 4.6039 3.89615 3.5414 5.31281 3.5414C6.40365 3.5414 7.46615 4.24265 7.84156 5.21306H9.16615C9.53448 4.24265 10.597 3.5414 11.6878 3.5414C13.1045 3.5414 14.167 4.6039 14.167 6.02056C14.167 8.06765 11.9428 10.0864 8.57115 13.1393Z" fill="#828282"/>
</g>
<defs>
<clipPath id="clip0_446_2955">
<rect width="17" height="17" fill="white"/>
</clipPath>
</defs>
</svg>
