<svg width="45" height="44" viewBox="0 0 45 44" fill="none" xmlns="http://www.w3.org/2000/svg">
<g clip-path="url(#clip0_92_501)">
<path d="M13.334 32.9993C11.3173 32.9993 9.68565 34.6493 9.68565 36.666C9.68565 38.6827 11.3173 40.3327 13.334 40.3327C15.3507 40.3327 17.0007 38.6827 17.0007 36.666C17.0007 34.6493 15.3507 32.9993 13.334 32.9993ZM4.16732 7.33268H6.00065L12.6007 21.2477L10.1257 25.721C8.78732 28.1777 10.5473 31.166 13.334 31.166H33.5007C34.509 31.166 35.334 30.341 35.334 29.3327C35.334 28.3243 34.509 27.4993 33.5007 27.4993H13.334L15.3507 23.8327H29.009C30.384 23.8327 31.594 23.081 32.2173 21.9443L38.7806 10.046C39.459 8.83602 38.579 7.33268 37.1856 7.33268H10.0523L8.82398 4.71102C8.53065 4.06935 7.87065 3.66602 7.17398 3.66602H4.16732C3.15898 3.66602 2.33398 4.49102 2.33398 5.49935C2.33398 6.50768 3.15898 7.33268 4.16732 7.33268ZM31.6673 32.9993C29.6507 32.9993 28.019 34.6493 28.019 36.666C28.019 38.6827 29.6507 40.3327 31.6673 40.3327C33.684 40.3327 35.334 38.6827 35.334 36.666C35.334 34.6493 33.684 32.9993 31.6673 32.9993Z" fill="url(#paint0_linear_92_501)"/>
</g>
<defs>
<linearGradient id="paint0_linear_92_501" x1="47.0073" y1="52.5549" x2="-10.5176" y2="41.0952" gradientUnits="userSpaceOnUse">
<stop stop-color="#003F9C"/>
<stop offset="1" stop-color="#00EAB0"/>
</linearGradient>
<clipPath id="clip0_92_501">
<rect width="44" height="44" fill="white" transform="translate(0.5)"/>
</clipPath>
</defs>
</svg>
