<svg width="196" height="44" viewBox="0 0 196 44" fill="none" xmlns="http://www.w3.org/2000/svg">
<path fill-rule="evenodd" clip-rule="evenodd" d="M25.4152 24.8816C25.4152 21.8299 24.0592 19.8646 21.4894 18.8367C20.9605 20.1074 20.1157 21.2123 18.9379 22.0829C16.7299 23.7156 13.8274 24.1737 11.1866 24.1737C9.6494 24.1737 8.15285 24.0673 6.62309 23.9448C6.26126 23.9159 5.82033 23.8726 5.38537 23.8565C4.08336 23.8565 3.49353 23.6608 3.49353 25.2809V31.8518H15.8841C22.0543 31.8518 25.4155 29.7396 25.4155 24.8816H25.4152ZM11.1866 21.967C16.805 21.967 20.0655 19.6963 20.0655 15.2607C20.0655 10.8253 16.8047 8.55469 11.1866 8.55469H0V19.5054L0.0520979 26.2907C2.78995 19.9044 3.95741 21.967 11.1866 21.967Z" fill="url(#paint0_linear_35_1134)"/>
<path d="M30.2822 36V10.1977H39.9396C42.1266 10.1977 44.0065 10.554 45.5792 11.2667C47.1519 11.9547 48.356 12.9623 49.1915 14.2892C50.0516 15.5916 50.4817 17.1766 50.4817 19.0442C50.4817 20.8627 50.0516 22.4354 49.1915 23.7623C48.356 25.0647 47.1519 26.0723 45.5792 26.7849C44.0065 27.4975 42.1266 27.8539 39.9396 27.8539H31.7934L33.0098 26.5637V36H30.2822ZM33.0098 26.7849L31.7934 25.4579H39.8659C42.4461 25.4579 44.3997 24.905 45.7267 23.7992C47.0782 22.6688 47.754 21.0838 47.754 19.0442C47.754 16.98 47.0782 15.3827 45.7267 14.2524C44.3997 13.122 42.4461 12.5568 39.8659 12.5568H31.7934L33.0098 11.2667V26.7849ZM67.7738 36V31.7242L67.6632 31.0238V23.8729C67.6632 22.2265 67.1963 20.961 66.2625 20.0763C65.3533 19.1917 63.9895 18.7493 62.171 18.7493C60.9178 18.7493 59.7259 18.9582 58.5956 19.376C57.4652 19.7937 56.5068 20.3466 55.7204 21.0347L54.5409 19.0811C55.5239 18.2456 56.7034 17.6067 58.0795 17.1643C59.4556 16.6974 60.9055 16.464 62.429 16.464C64.9355 16.464 66.8646 17.0906 68.2161 18.3439C69.5922 19.5725 70.2803 21.4524 70.2803 23.9835V36H67.7738ZM61.1021 36.1843C59.6522 36.1843 58.3867 35.9509 57.3054 35.484C56.2488 34.9925 55.4378 34.329 54.8727 33.4935C54.3075 32.6334 54.0249 31.6505 54.0249 30.5447C54.0249 29.5371 54.2583 28.6279 54.7252 27.817C55.2167 26.9815 56.003 26.318 57.0843 25.8265C58.1901 25.3105 59.6645 25.0525 61.5075 25.0525H68.1793V27.0061H61.5812C59.7137 27.0061 58.4113 27.3378 57.674 28.0013C56.9614 28.6648 56.6051 29.488 56.6051 30.4709C56.6051 31.5768 57.0351 32.4614 57.8952 33.1249C58.7553 33.7884 59.9594 34.1201 61.5075 34.1201C62.9819 34.1201 64.2475 33.7884 65.3041 33.1249C66.3854 32.4368 67.1717 31.4539 67.6632 30.1761L68.253 31.9822C67.7615 33.26 66.9014 34.2798 65.6728 35.0416C64.4686 35.8034 62.9451 36.1843 61.1021 36.1843ZM77.1761 43.3352C76.2669 43.3352 75.3945 43.1878 74.559 42.8929C73.7481 42.598 73.0477 42.1557 72.4579 41.5659L73.6743 39.6123C74.1658 40.0792 74.6941 40.4355 75.2593 40.6813C75.8491 40.9516 76.5003 41.0867 77.2129 41.0867C78.073 41.0867 78.8102 40.841 79.4246 40.3495C80.0635 39.8826 80.6655 39.0471 81.2307 37.843L82.484 35.0048L82.7789 34.5993L90.7407 16.6483H93.3209L83.6266 38.3222C83.086 39.5755 82.484 40.5707 81.8205 41.3079C81.1816 42.0451 80.4812 42.5612 79.7194 42.856C78.9577 43.1755 78.1099 43.3352 77.1761 43.3352ZM82.3365 36.5529L73.4163 16.6483H76.144L84.0321 34.415L82.3365 36.5529ZM97.5596 36V10.1977H108.691C111.567 10.1977 113.79 10.7752 115.363 11.9302C116.96 13.0851 117.759 14.7193 117.759 16.8326C117.759 18.2333 117.427 19.4128 116.764 20.3712C116.125 21.3296 115.24 22.0545 114.11 22.546C113.004 23.0374 111.788 23.2832 110.461 23.2832L111.087 22.3985C112.734 22.3985 114.147 22.6565 115.326 23.1726C116.53 23.6641 117.464 24.4135 118.128 25.4211C118.791 26.404 119.123 27.6327 119.123 29.1071C119.123 31.2942 118.312 32.9897 116.69 34.1938C115.093 35.3979 112.672 36 109.429 36H97.5596ZM100.287 33.7515H109.392C111.653 33.7515 113.385 33.3706 114.589 32.6088C115.793 31.8225 116.395 30.5815 116.395 28.8859C116.395 27.2149 115.793 25.9985 114.589 25.2368C113.385 24.4504 111.653 24.0572 109.392 24.0572H99.9924V21.8087H108.507C110.571 21.8087 112.169 21.4156 113.299 20.6292C114.454 19.8429 115.031 18.6756 115.031 17.1275C115.031 15.5548 114.454 14.3875 113.299 13.6257C112.169 12.8394 110.571 12.4462 108.507 12.4462H100.287V33.7515ZM132.684 36.1843C130.817 36.1843 129.133 35.7666 127.634 34.931C126.16 34.071 124.993 32.9037 124.132 31.4293C123.272 29.9303 122.842 28.2225 122.842 26.3057C122.842 24.3644 123.272 22.6565 124.132 21.1821C124.993 19.7077 126.16 18.5527 127.634 17.7172C129.109 16.8817 130.792 16.464 132.684 16.464C134.601 16.464 136.296 16.8817 137.771 17.7172C139.27 18.5527 140.437 19.7077 141.273 21.1821C142.133 22.6565 142.563 24.3644 142.563 26.3057C142.563 28.2225 142.133 29.9303 141.273 31.4293C140.437 32.9037 139.27 34.071 137.771 34.931C136.272 35.7666 134.576 36.1843 132.684 36.1843ZM132.684 33.8621C134.085 33.8621 135.326 33.5549 136.407 32.9406C137.488 32.3017 138.336 31.417 138.95 30.2866C139.589 29.1317 139.909 27.8047 139.909 26.3057C139.909 24.7822 139.589 23.4552 138.95 22.3248C138.336 21.1944 137.488 20.322 136.407 19.7077C135.326 19.0688 134.097 18.7493 132.721 18.7493C131.345 18.7493 130.116 19.0688 129.035 19.7077C127.954 20.322 127.094 21.1944 126.455 22.3248C125.816 23.4552 125.496 24.7822 125.496 26.3057C125.496 27.8047 125.816 29.1317 126.455 30.2866C127.094 31.417 127.954 32.3017 129.035 32.9406C130.116 33.5549 131.333 33.8621 132.684 33.8621ZM157.784 16.464C159.357 16.464 160.733 16.7712 161.913 17.3855C163.117 17.9753 164.051 18.8845 164.714 20.1132C165.402 21.3418 165.746 22.89 165.746 24.7576V36H163.129V25.0156C163.129 22.976 162.613 21.4401 161.581 20.4081C160.573 19.3514 159.148 18.8231 157.305 18.8231C155.929 18.8231 154.725 19.1057 153.693 19.6708C152.685 20.2115 151.899 21.0101 151.334 22.0668C150.793 23.0989 150.523 24.3521 150.523 25.8265V36H147.906V16.6483H150.412V21.9562L150.007 20.961C150.621 19.5603 151.604 18.4667 152.956 17.6804C154.307 16.8695 155.917 16.464 157.784 16.464ZM180.519 36.1843C178.676 36.1843 177.017 35.7666 175.543 34.931C174.093 34.0955 172.95 32.9406 172.115 31.4662C171.279 29.9672 170.862 28.247 170.862 26.3057C170.862 24.3398 171.279 22.6197 172.115 21.1453C172.95 19.6708 174.093 18.5282 175.543 17.7172C177.017 16.8817 178.676 16.464 180.519 16.464C182.215 16.464 183.726 16.8449 185.053 17.6067C186.404 18.3684 187.473 19.4865 188.26 20.961C189.071 22.4108 189.476 24.1924 189.476 26.3057C189.476 28.3945 189.083 30.1761 188.297 31.6505C187.51 33.1249 186.441 34.2553 185.09 35.0416C183.763 35.8034 182.239 36.1843 180.519 36.1843ZM180.703 33.8621C182.08 33.8621 183.308 33.5549 184.389 32.9406C185.495 32.3017 186.355 31.417 186.97 30.2866C187.609 29.1317 187.928 27.8047 187.928 26.3057C187.928 24.7822 187.609 23.4552 186.97 22.3248C186.355 21.1944 185.495 20.322 184.389 19.7077C183.308 19.0688 182.08 18.7493 180.703 18.7493C179.352 18.7493 178.135 19.0688 177.054 19.7077C175.973 20.322 175.113 21.1944 174.474 22.3248C173.835 23.4552 173.516 24.7822 173.516 26.3057C173.516 27.8047 173.835 29.1317 174.474 30.2866C175.113 31.417 175.973 32.3017 177.054 32.9406C178.135 33.5549 179.352 33.8621 180.703 33.8621ZM188.002 36V30.1761L188.26 26.2689L187.891 22.3617V8.64958H190.508V36H188.002Z" fill="url(#paint1_linear_35_1134)"/>
<defs>
<linearGradient id="paint0_linear_35_1134" x1="30.9538" y1="39.6175" x2="-8.61889" y2="31.0205" gradientUnits="userSpaceOnUse">
<stop stop-color="#003F9C"/>
<stop offset="1" stop-color="#00EAB0"/>
</linearGradient>
<linearGradient id="paint1_linear_35_1134" x1="233.027" y1="50.5806" x2="78.7314" y2="-87.0472" gradientUnits="userSpaceOnUse">
<stop stop-color="#003F9C"/>
<stop offset="1" stop-color="#00EAB0"/>
</linearGradient>
</defs>
</svg>
