<svg width="45" height="44" viewBox="0 0 45 44" fill="none" xmlns="http://www.w3.org/2000/svg">
<g clip-path="url(#clip0_67_1706)">
<path d="M24.1139 9.25758C29.9439 9.99091 34.5089 14.5559 35.2422 20.3859C35.3522 21.3209 36.1406 21.9992 37.0572 21.9992C37.1306 21.9992 37.2039 21.9992 37.2772 21.9809C38.2856 21.8526 39.0006 20.9359 38.8722 19.9276C37.9372 12.4292 32.0522 6.54424 24.5539 5.60924C23.5456 5.49924 22.6289 6.21424 22.5189 7.22258C22.3906 8.23091 23.1056 9.14758 24.1139 9.25758ZM24.8106 13.1259C23.8389 12.8692 22.8306 13.4559 22.5739 14.4459C22.3172 15.4359 22.9039 16.4259 23.8939 16.6826C25.8189 17.1776 27.3222 18.6809 27.8356 20.6242C28.0556 21.4492 28.7889 21.9992 29.6139 21.9992C29.7606 21.9992 29.9256 21.9809 30.0722 21.9442C31.0439 21.6876 31.6306 20.6792 31.3922 19.7076C30.5306 16.4626 28.0189 13.9509 24.8106 13.1259ZM35.7556 27.9759L31.0989 27.4442C29.9806 27.3159 28.8806 27.7009 28.0922 28.4892L24.7189 31.8626C19.5306 29.2226 15.2772 24.9876 12.6372 19.7809L16.0289 16.3892C16.8172 15.6009 17.2022 14.5009 17.0739 13.3826L16.5422 8.76258C16.3222 6.91091 14.7639 5.51758 12.8939 5.51758H9.72223C7.65056 5.51758 5.92723 7.24091 6.05556 9.31258C7.02723 24.9692 19.5489 37.4726 35.1872 38.4442C37.2589 38.5726 38.9822 36.8492 38.9822 34.7776V31.6059C39.0006 29.7542 37.6072 28.1959 35.7556 27.9759Z" fill="url(#paint0_linear_67_1706)"/>
</g>
<defs>
<linearGradient id="paint0_linear_67_1706" x1="46.159" y1="49.4288" x2="-5.49145" y2="39.1431" gradientUnits="userSpaceOnUse">
<stop stop-color="#003F9C"/>
<stop offset="1" stop-color="#00EAB0"/>
</linearGradient>
<clipPath id="clip0_67_1706">
<rect width="44" height="44" fill="white" transform="translate(0.5)"/>
</clipPath>
</defs>
</svg>
