<svg width="45" height="44" viewBox="0 0 45 44" fill="none" xmlns="http://www.w3.org/2000/svg">
<g clip-path="url(#clip0_92_1537)">
<path d="M22.4993 3.66602C12.3793 3.66602 4.16602 11.8793 4.16602 21.9993C4.16602 32.1193 12.3793 40.3327 22.4993 40.3327C32.6193 40.3327 40.8327 32.1193 40.8327 21.9993C40.8327 11.8793 32.6193 3.66602 22.4993 3.66602ZM24.3327 9.71602L26.8077 7.97435C30.1443 9.00102 32.986 11.201 34.8377 14.0977L34.1227 16.5543L31.6477 17.3977L24.3327 12.2827V9.71602ZM18.191 7.97435L20.666 9.71602V12.2827L13.351 17.3977L10.876 16.5543L10.161 14.0977C12.0127 11.2193 14.8543 9.01935 18.191 7.97435ZM13.4793 31.3677L11.3893 31.551C9.17102 28.9843 7.83268 25.6477 7.83268 21.9993C7.83268 21.7793 7.85102 21.5777 7.86935 21.3577L9.70268 20.0193L12.2327 20.8993L14.9093 28.856L13.4793 31.3677ZM27.0827 35.9143C25.6343 36.391 24.0943 36.666 22.4993 36.666C20.9043 36.666 19.3643 36.391 17.916 35.9143L16.651 33.1827L17.8243 31.166H27.1927L28.366 33.201L27.0827 35.9143ZM26.661 27.4993H18.3377L15.8627 20.1293L22.4993 15.4727L29.1543 20.1293L26.661 27.4993ZM33.6093 31.551L31.5193 31.3677L30.071 28.856L32.7477 20.8993L35.296 20.0377L37.1293 21.376C37.1477 21.5777 37.166 21.7793 37.166 21.9993C37.166 25.6477 35.8277 28.9843 33.6093 31.551Z" fill="url(#paint0_linear_92_1537)"/>
</g>
<defs>
<linearGradient id="paint0_linear_92_1537" x1="48.8227" y1="52.5549" x2="-8.6824" y2="41.1034" gradientUnits="userSpaceOnUse">
<stop stop-color="#003F9C"/>
<stop offset="1" stop-color="#00EAB0"/>
</linearGradient>
<clipPath id="clip0_92_1537">
<rect width="44" height="44" fill="white" transform="translate(0.5)"/>
</clipPath>
</defs>
</svg>
