<svg width="45" height="44" viewBox="0 0 45 44" fill="none" xmlns="http://www.w3.org/2000/svg">
<path d="M39.0006 5.5H6.00065C3.98398 5.5 2.33398 7.15 2.33398 9.16667V31.1667C2.33398 33.1833 3.98398 34.8333 6.00065 34.8333H15.1673V36.6667C15.1673 37.675 15.9923 38.5 17.0007 38.5H28.0007C29.009 38.5 29.834 37.675 29.834 36.6667V34.8333H39.0006C41.0173 34.8333 42.649 33.1833 42.649 31.1667L42.6673 9.16667C42.6673 7.15 41.0173 5.5 39.0006 5.5ZM37.1673 31.1667H7.83398C6.82565 31.1667 6.00065 30.3417 6.00065 29.3333V11C6.00065 9.99167 6.82565 9.16667 7.83398 9.16667H37.1673C38.1756 9.16667 39.0006 9.99167 39.0006 11V29.3333C39.0006 30.3417 38.1756 31.1667 37.1673 31.1667Z" fill="url(#paint0_linear_92_430)"/>
<defs>
<linearGradient id="paint0_linear_92_430" x1="51.4564" y1="49.5" x2="-10.6298" y2="34.3887" gradientUnits="userSpaceOnUse">
<stop stop-color="#003F9C"/>
<stop offset="1" stop-color="#00EAB0"/>
</linearGradient>
</defs>
</svg>
