<svg width="45" height="44" viewBox="0 0 45 44" fill="none" xmlns="http://www.w3.org/2000/svg">
<g clip-path="url(#clip0_92_46)">
<path d="M4.27666 18.4431C5.21166 19.3781 6.69666 19.4698 7.70499 18.6265C16.2667 11.5865 28.6967 11.5865 37.2767 18.6081C38.3033 19.4515 39.8067 19.3781 40.7417 18.4431C41.8233 17.3615 41.75 15.5648 40.5583 14.5931C30.09 6.03146 14.9467 6.03146 4.45999 14.5931C3.26833 15.5465 3.17666 17.3431 4.27666 18.4431ZM18.5033 32.6698L21.1983 35.3648C21.9133 36.0798 23.0683 36.0798 23.7833 35.3648L26.4783 32.6698C27.34 31.8081 27.1567 30.3231 26.0567 29.7548C23.82 28.5998 21.1433 28.5998 18.8883 29.7548C17.8433 30.3231 17.6417 31.8081 18.5033 32.6698ZM11.665 25.8315C12.5633 26.7298 13.975 26.8215 15.02 26.0698C19.4933 22.8981 25.5067 22.8981 29.98 26.0698C31.025 26.8031 32.4367 26.7298 33.335 25.8315L33.3533 25.8131C34.4533 24.7131 34.38 22.8431 33.115 21.9448C26.8083 17.3798 18.21 17.3798 11.885 21.9448C10.62 22.8615 10.5467 24.7131 11.665 25.8315Z" fill="url(#paint0_linear_92_46)"/>
</g>
<defs>
<linearGradient id="paint0_linear_92_46" x1="49.7857" y1="45.1441" x2="-7.87852" y2="29.4078" gradientUnits="userSpaceOnUse">
<stop stop-color="#003F9C"/>
<stop offset="1" stop-color="#00EAB0"/>
</linearGradient>
<clipPath id="clip0_92_46">
<rect width="44" height="44" fill="white" transform="translate(0.5)"/>
</clipPath>
</defs>
</svg>
