<svg width="60" height="60" viewBox="0 0 60 60" fill="none" xmlns="http://www.w3.org/2000/svg">
<g clip-path="url(#clip0_1295_26345)">
<path d="M0.600098 29.9997C0.600098 13.763 13.7634 0.600586 30.0001 0.600586C46.2368 0.600586 59.4001 13.763 59.4001 29.9997C59.4001 46.2364 46.2368 59.3988 30.0001 59.3988C13.7634 59.3988 0.600098 46.2364 0.600098 29.9997Z" fill="#FFC325"/>
<path d="M1.4939 29.9997C1.4939 23.8587 14.2565 18.8799 29.9999 18.8799C45.7433 18.8799 58.5059 23.8599 58.5059 30.0003C58.5059 36.1407 45.7439 41.1183 29.9999 41.1183C14.2559 41.1183 1.4939 36.1401 1.4939 29.9997Z" fill="#006891"/>
<path d="M1.4939 29.9997C1.4939 23.8587 14.2565 18.8799 29.9999 18.8799C45.7433 18.8799 58.5059 23.8599 58.5059 30.0003C58.5059 36.1407 45.7439 41.1183 29.9999 41.1183C14.2559 41.1183 1.4939 36.1401 1.4939 29.9997Z" stroke="#006891" stroke-width="1.40509" stroke-miterlimit="3.8636"/>
<path fill-rule="evenodd" clip-rule="evenodd" d="M11.9412 35.4046L14.8998 24.3604H19.5696V30.856H19.6002L22.7682 24.3604H27.5118L24.5532 35.4046H21.4698L23.3664 28.3204H23.3358L19.5696 35.4046H17.1006V28.3204H17.0502L15.1536 35.4046H11.9412Z" fill="white"/>
<path fill-rule="evenodd" clip-rule="evenodd" d="M28.3464 35.6233L28.7664 34.0537H32.1696L31.749 35.6233H28.3464Z" fill="#EE4034"/>
<path fill-rule="evenodd" clip-rule="evenodd" d="M28.8839 33.6124L30.6053 27.1912H27.5117L28.2707 24.3604H37.8605L37.1021 27.1912H34.0085L32.2877 33.6105L28.8839 33.6124Z" fill="#FFC325"/>
<path fill-rule="evenodd" clip-rule="evenodd" d="M35.6616 35.4046L38.6184 24.3604H41.9604L43.4682 30.2698H43.4976L45.0804 24.3604H48.1698L45.2124 35.4046H42.033L40.3956 29.3728H40.3662L38.751 35.4046H35.6616Z" fill="white"/>
</g>
<rect x="0.5" y="0.5" width="59" height="59" rx="29.5" stroke="#C4C4C4"/>
<defs>
<clipPath id="clip0_1295_26345">
<rect width="60" height="60" rx="30" fill="white"/>
</clipPath>
</defs>
</svg>
