<svg width="1162" height="260" viewBox="0 0 1162 260" fill="none" xmlns="http://www.w3.org/2000/svg">
<path d="M6.49999 156.999C6.49999 156.999 11.518 153.082 15.151 153.451C20.8431 154.027 20.4839 160.612 23.901 165.201C27.3181 169.789 26.1497 172.632 29.5 176C32.6434 179.159 37.7915 179.205 39.5 181.5C41.2086 183.794 41.401 188.701 41.401 188.701" stroke="#0057FD" stroke-opacity="0.05"/>
<path d="M767.5 153.999C767.5 153.999 772.518 150.082 776.151 150.451C781.843 151.027 781.484 157.612 784.901 162.201C788.318 166.789 787.15 169.632 790.5 173C793.643 176.159 798.792 176.205 800.5 178.5C802.209 180.794 802.401 185.701 802.401 185.701" stroke="#0057FD" stroke-opacity="0.05"/>
<path d="M5.49999 230.999C5.49999 230.999 10.518 227.082 14.151 227.451C19.8431 228.027 19.4839 234.612 22.901 239.201C26.3181 243.789 25.1497 246.632 28.5 250C31.6434 253.159 36.7915 253.205 38.5 255.5C40.2086 257.794 40.401 262.701 40.401 262.701" stroke="#0057FD" stroke-opacity="0.05"/>
<path d="M766.5 227.999C766.5 227.999 771.518 224.082 775.151 224.451C780.843 225.027 780.484 231.612 783.901 236.201C787.318 240.789 786.15 243.632 789.5 247C792.643 250.159 797.791 250.205 799.5 252.5C801.209 254.794 801.401 259.701 801.401 259.701" stroke="#0057FD" stroke-opacity="0.05"/>
<path d="M1.00071 240.069C1.00071 240.069 6.04152 236.183 9.28553 236.029C14.3681 235.787 13.2095 241.298 15.7238 244.675C18.2381 248.051 16.8201 250.558 19.4285 252.93C21.8757 255.154 26.5328 254.541 27.7899 256.229C29.0471 257.917 28.6004 261.966 28.6004 261.966" stroke="#0057FD" stroke-opacity="0.05"/>
<path d="M762.001 237.069C762.001 237.069 767.041 233.183 770.285 233.029C775.368 232.787 774.209 238.298 776.724 241.675C779.238 245.051 777.82 247.558 780.428 249.93C782.876 252.154 787.533 251.541 788.79 253.229C790.047 254.917 789.6 258.966 789.6 258.966" stroke="#0057FD" stroke-opacity="0.05"/>
<path d="M1.00049 249.069C1.00049 249.069 6.06179 245.21 8.95571 244.586C13.4898 243.608 11.6117 248.152 13.3135 250.438C15.0153 252.723 13.3726 254.929 15.3132 256.403C17.1339 257.787 21.3491 256.58 22.2 257.723C23.0509 258.865 22.029 262.141 22.029 262.141" stroke="#0057FD" stroke-opacity="0.05"/>
<path d="M762 246.069C762 246.069 767.062 242.21 769.956 241.586C774.49 240.608 772.612 245.152 774.313 247.438C776.015 249.723 774.373 251.929 776.313 253.403C778.134 254.787 782.349 253.58 783.2 254.723C784.051 255.865 783.029 259.141 783.029 259.141" stroke="#0057FD" stroke-opacity="0.05"/>
<path d="M6.40374 126.705C6.40374 126.705 6.4934 136.112 10.4999 139.499C12.8822 141.513 15.1141 141.096 17.9153 142.469C21.0133 143.987 23.173 144.452 25.5 146.999C28.5829 150.374 26.7958 154.314 29.5 157.999C32.1341 161.589 36.1587 161.212 38.5 164.999C40.4143 168.096 39.3763 170.708 40.9383 173.997C42.5736 177.44 43.9945 179.188 46.6941 181.879C49.9667 185.141 52.2514 186.683 56.5 188.499" stroke="#0057FD" stroke-opacity="0.05"/>
<path d="M767.404 123.705C767.404 123.705 767.493 133.112 771.5 136.499C773.882 138.513 776.114 138.096 778.915 139.469C782.013 140.987 784.173 141.452 786.5 143.999C789.583 147.374 787.796 151.314 790.5 154.999C793.134 158.589 797.159 158.212 799.5 161.999C801.414 165.096 800.376 167.708 801.938 170.997C803.574 174.44 804.994 176.188 807.694 178.879C810.967 182.141 813.251 183.683 817.5 185.499" stroke="#0057FD" stroke-opacity="0.05"/>
<path d="M58.5692 191.368C58.5692 191.368 59.2752 201.619 63.6925 205.569C66.319 207.917 68.6298 207.608 71.6533 209.285C74.9974 211.141 77.2898 211.787 79.8931 214.713C83.3422 218.589 81.7264 222.763 84.7989 226.953C87.7918 231.034 91.983 230.885 94.6819 235.162C96.8886 238.659 95.9713 241.437 97.8215 245.12C99.7585 248.976 101.361 250.973 104.364 254.079C108.004 257.845 110.498 259.673 115.066 261.928" stroke="#0057FD" stroke-opacity="0.05"/>
<path d="M710.569 5.36773C710.569 5.36773 711.275 15.6191 715.692 19.5686C718.319 21.917 720.63 21.6079 723.653 23.2853C726.997 25.1405 729.29 25.7871 731.893 28.7127C735.342 32.5887 733.726 36.7634 736.799 40.953C739.792 45.0341 743.983 44.885 746.682 49.1622C748.889 52.6594 747.971 55.4373 749.822 59.1204C751.759 62.9764 753.361 64.9732 756.364 68.0792C760.004 71.8445 762.498 73.6731 767.066 75.9276" stroke="#0057FD" stroke-opacity="0.05"/>
<path d="M377.569 17.1734C377.569 17.1734 378.275 27.4248 382.692 31.3743C385.319 33.7226 387.63 33.4136 390.653 35.091C393.997 36.9462 396.29 37.5927 398.893 40.5183C402.342 44.3944 400.726 48.5691 403.799 52.7586C406.792 56.8398 410.983 56.6907 413.682 60.9679C415.889 64.4651 414.971 67.243 416.821 70.9261C418.758 74.7821 420.361 76.7789 423.364 79.8849C427.004 83.6502 429.497 85.4788 434.066 87.7332" stroke="#0057FD" stroke-opacity="0.05"/>
<path d="M819.569 188.368C819.569 188.368 820.275 198.619 824.692 202.569C827.319 204.917 829.63 204.608 832.653 206.285C835.997 208.141 838.29 208.787 840.893 211.713C844.342 215.589 842.726 219.763 845.799 223.953C848.792 228.034 852.983 227.885 855.682 232.162C857.889 235.659 856.971 238.437 858.822 242.12C860.759 245.976 862.361 247.973 865.364 251.079C869.004 254.845 871.498 256.673 876.066 258.928" stroke="#0057FD" stroke-opacity="0.05"/>
<path d="M127.569 162.368C127.569 162.368 128.275 172.619 132.692 176.569C135.319 178.917 137.63 178.608 140.653 180.285C143.997 182.141 146.29 182.787 148.893 185.713C152.342 189.589 150.726 193.763 153.799 197.953C156.792 202.034 160.983 201.885 163.682 206.162C165.889 209.659 164.971 212.437 166.822 216.12C168.759 219.976 170.361 221.973 173.364 225.079C177.004 228.845 179.498 230.673 184.066 232.928" stroke="#0057FD" stroke-opacity="0.05"/>
<path d="M888.569 159.368C888.569 159.368 889.275 169.619 893.692 173.569C896.319 175.917 898.63 175.608 901.653 177.285C904.997 179.141 907.29 179.787 909.893 182.713C913.342 186.589 911.726 190.763 914.799 194.953C917.792 199.034 921.983 198.885 924.682 203.162C926.889 206.659 925.971 209.437 927.822 213.12C929.759 216.976 931.361 218.973 934.364 222.079C938.004 225.845 940.498 227.673 945.066 229.928" stroke="#0057FD" stroke-opacity="0.05"/>
<path d="M5.40374 200.705C5.40374 200.705 5.4934 210.112 9.49993 213.499C11.8822 215.513 14.1141 215.096 16.9153 216.469C20.0133 217.987 22.173 218.452 24.5 220.999C27.5829 224.374 25.7958 228.314 28.5 231.999C31.1341 235.589 35.1587 235.212 37.5 238.999C39.4143 242.096 38.3763 244.708 39.9383 247.997C41.5736 251.44 42.9945 253.188 45.6941 255.879C48.9667 259.141 51.2514 260.683 55.5 262.499" stroke="#0057FD" stroke-opacity="0.05"/>
<path d="M652.404 2.51031C652.404 2.51031 652.493 11.9177 656.5 15.3047C658.882 17.3186 661.114 16.9015 663.915 18.2744C667.013 19.7927 669.173 20.2574 671.5 22.8046C674.583 26.1794 672.796 30.1193 675.5 33.8046C678.134 37.3945 682.159 37.0172 684.5 40.8046C686.414 43.9013 685.376 46.514 686.938 49.8025C688.574 53.2453 689.994 54.9939 692.694 57.6845C695.967 60.9463 698.251 62.4888 702.5 64.305" stroke="#0057FD" stroke-opacity="0.05"/>
<path d="M324.404 26.5103C324.404 26.5103 324.493 35.9177 328.5 39.3047C330.882 41.3186 333.114 40.9015 335.915 42.2744C339.013 43.7927 341.173 44.2574 343.5 46.8046C346.583 50.1794 344.796 54.1193 347.5 57.8046C350.134 61.3945 354.159 61.0172 356.5 64.8046C358.414 67.9013 357.376 70.514 358.938 73.8025C360.574 77.2453 361.994 78.9939 364.694 81.6845C367.967 84.9463 370.251 86.4888 374.5 88.305" stroke="#0057FD" stroke-opacity="0.05"/>
<path d="M766.404 197.705C766.404 197.705 766.493 207.112 770.5 210.499C772.882 212.513 775.114 212.096 777.915 213.469C781.013 214.987 783.173 215.452 785.5 217.999C788.583 221.374 786.796 225.314 789.5 228.999C792.134 232.589 796.159 232.212 798.5 235.999C800.414 239.096 799.376 241.708 800.938 244.997C802.574 248.44 803.994 250.188 806.694 252.879C809.967 256.141 812.251 257.683 816.5 259.499" stroke="#0057FD" stroke-opacity="0.05"/>
<path d="M144.569 199.368C144.569 199.368 144.659 208.775 148.665 212.162C151.048 214.176 153.28 213.759 156.081 215.132C159.179 216.65 161.338 217.115 163.665 219.662C166.748 223.037 164.961 226.977 167.665 230.662C170.3 234.252 174.324 233.875 176.665 237.662C178.58 240.759 177.542 243.371 179.104 246.66C180.739 250.103 182.16 251.851 184.86 254.542C188.132 257.804 190.417 259.346 194.666 261.162" stroke="#0057FD" stroke-opacity="0.05"/>
<path d="M905.569 196.368C905.569 196.368 905.659 205.775 909.665 209.162C912.048 211.176 914.28 210.759 917.081 212.132C920.179 213.65 922.338 214.115 924.665 216.662C927.748 220.037 925.961 223.977 928.665 227.662C931.3 231.252 935.324 230.875 937.665 234.662C939.58 237.759 938.542 240.371 940.104 243.66C941.739 247.103 943.16 248.851 945.86 251.542C949.132 254.804 951.417 256.346 955.666 258.162" stroke="#0057FD" stroke-opacity="0.05"/>
<path d="M257.569 28.3677C257.569 28.3677 257.659 37.7751 261.665 41.1622C264.048 43.1761 266.28 42.759 269.081 44.1318C272.179 45.6501 274.338 46.1148 276.665 48.662C279.748 52.0368 277.961 55.9768 280.665 59.662C283.3 63.2519 287.324 62.8746 289.665 66.662C291.58 69.7587 290.542 72.3714 292.104 75.6599C293.739 79.1027 295.16 80.8513 297.86 83.5419C301.132 86.8037 303.417 88.3462 307.666 90.1624" stroke="#0057FD" stroke-opacity="0.05"/>
<path d="M1018.57 25.3677C1018.57 25.3677 1018.66 34.7751 1022.67 38.1622C1025.05 40.1761 1027.28 39.759 1030.08 41.1318C1033.18 42.6501 1035.34 43.1148 1037.67 45.662C1040.75 49.0368 1038.96 52.9768 1041.67 56.662C1044.3 60.2519 1048.32 59.8746 1050.67 63.662C1052.58 66.7587 1051.54 69.3714 1053.1 72.6599C1054.74 76.1027 1056.16 77.8513 1058.86 80.5419C1062.13 83.8037 1064.42 85.3462 1068.67 87.1624" stroke="#0057FD" stroke-opacity="0.05"/>
<path d="M1108.57 50.3677C1108.57 50.3677 1108.66 59.7751 1112.67 63.1622C1115.05 65.1761 1117.28 64.759 1120.08 66.1318C1123.18 67.6501 1125.34 68.1148 1127.67 70.662C1130.75 74.0368 1128.96 77.9768 1131.67 81.662C1134.3 85.2519 1138.32 84.8746 1140.67 88.662C1142.58 91.7587 1141.54 94.3714 1143.1 97.6599C1144.74 101.103 1146.16 102.851 1148.86 105.542C1152.13 108.804 1154.42 110.346 1158.67 112.162" stroke="#0057FD" stroke-opacity="0.05"/>
<path d="M1088.57 4.36773C1088.57 4.36773 1090.8 16.7075 1096.23 22.0487C1099.46 25.2246 1101.97 25.1829 1105.54 27.6139C1109.5 30.3026 1112.12 31.3992 1115.41 35.261C1119.76 40.3774 1118.57 45.133 1122.55 50.5704C1126.43 55.867 1131.04 56.2826 1134.62 61.7717C1137.55 66.2598 1136.93 69.4466 1139.49 74.1062C1142.18 78.9844 1144.23 81.5955 1147.98 85.7292C1152.53 90.7405 1155.54 93.277 1160.9 96.6158" stroke="#0057FD" stroke-opacity="0.05"/>
<path d="M183.569 191.368C183.569 191.368 183.659 200.775 187.665 204.162C190.048 206.176 192.28 205.759 195.081 207.132C198.179 208.65 200.338 209.115 202.665 211.662C205.748 215.037 203.961 218.977 206.665 222.662C209.3 226.252 213.324 225.875 215.665 229.662C217.58 232.759 216.542 235.371 218.104 238.66C219.739 242.103 221.16 243.851 223.86 246.542C227.132 249.804 229.417 251.346 233.666 253.162" stroke="#0057FD" stroke-opacity="0.05"/>
<path d="M944.569 188.368C944.569 188.368 944.659 197.775 948.665 201.162C951.048 203.176 953.28 202.759 956.081 204.132C959.179 205.65 961.338 206.115 963.665 208.662C966.748 212.037 964.961 215.977 967.665 219.662C970.3 223.252 974.324 222.875 976.665 226.662C978.58 229.759 977.542 232.371 979.104 235.66C980.739 239.103 982.16 240.851 984.86 243.542C988.132 246.804 990.417 248.346 994.666 250.162" stroke="#0057FD" stroke-opacity="0.05"/>
<path d="M7.5693 83.3671C7.5693 83.3671 10.7147 96.959 16.7576 103.135C20.3506 106.807 22.9738 106.925 26.8776 109.808C31.1952 112.997 37.7103 107.5 37.7103 118.786C37.7103 126.424 36.4701 135.814 41.0001 141.999C45.4128 148.025 55.4644 142.715 59.5789 148.931C62.9431 154.013 59.5093 163.754 62.5 169C65.6311 174.491 73.1495 169.891 75.1483 175.911C78 184.5 83.5644 184.63 89.3997 188.619" stroke="#0057FD" stroke-opacity="0.05"/>
<path d="M768.569 80.3671C768.569 80.3671 771.715 93.959 777.758 100.135C781.351 103.807 783.974 103.925 787.878 106.808C792.195 109.997 798.71 104.5 798.71 115.786C798.71 123.424 797.47 132.814 802 138.999C806.413 145.025 816.464 139.715 820.579 145.931C823.943 151.013 820.509 160.754 823.5 166C826.631 171.491 834.15 166.891 836.148 172.911C839 181.5 844.564 181.63 850.4 185.619" stroke="#0057FD" stroke-opacity="0.05"/>
<path d="M347.121 153.517C347.121 153.517 350.266 167.109 356.309 173.285C359.902 176.957 362.525 177.076 366.429 179.959C370.747 183.147 377.262 177.65 377.262 188.937C377.262 196.574 376.022 205.964 380.552 212.15C384.964 218.175 395.016 212.866 399.13 219.081C402.495 224.164 399.061 233.905 402.052 239.15C405.183 244.641 412.701 240.041 414.7 246.061C417.552 254.65 423.116 254.78 428.951 258.769" stroke="#0057FD" stroke-opacity="0.05"/>
<path d="M1108.12 150.517C1108.12 150.517 1108.73 160.643 1113.09 164.508C1115.68 166.807 1117.98 166.481 1120.97 168.113C1124.28 169.918 1130.91 164.583 1129.11 173.407C1127.9 179.378 1125.3 186.917 1128.32 191.031C1131.26 195.039 1140.99 189.286 1143.63 193.49C1145.8 196.928 1141.21 205.091 1143.02 208.715C1144.91 212.509 1152.29 207.715 1153.09 212.103C1154.24 218.364 1159.14 217.579 1163.66 219.768" stroke="#0057FD" stroke-opacity="0.05"/>
<path d="M6.5693 157.367C6.5693 157.367 9.71468 170.959 15.7576 177.135C19.3506 180.807 21.9738 180.925 25.8776 183.808C30.1952 186.997 36.7103 181.5 36.7103 192.786C36.7103 200.424 35.4701 209.814 40.0001 215.999C44.4128 222.025 54.4644 216.715 58.5789 222.931C61.9431 228.013 58.5093 237.754 61.5 243C64.6311 248.491 72.1495 243.891 74.1483 249.911C77 258.5 82.5644 258.63 88.3997 262.619" stroke="#0057FD" stroke-opacity="0.05"/>
<path d="M682.121 3.51744C682.121 3.51744 685.266 17.1094 691.309 23.2851C694.902 26.9571 697.525 27.0757 701.429 29.9585C705.747 33.147 712.262 27.65 712.262 38.9366C712.262 46.5739 711.022 55.9642 715.552 62.1497C719.964 68.1751 730.016 62.8657 734.13 69.0815C737.495 74.1636 734.061 83.9049 737.052 89.1499C740.183 94.6411 747.701 90.0415 749.7 96.0612C752.552 104.65 758.116 104.78 763.951 108.769" stroke="#0057FD" stroke-opacity="0.05"/>
<path d="M341.383 4.82799C341.383 4.82799 343.005 16.3348 348.033 21.1208C351.023 23.9666 353.451 23.8182 356.806 25.9486C360.516 28.3049 367.101 22.905 366.02 32.7103C365.288 39.3454 363.235 47.6221 366.855 52.5617C370.381 57.3735 380.238 51.7976 383.469 56.8033C386.111 60.8961 381.984 69.688 384.263 73.9581C386.648 78.4286 394.081 73.7121 395.363 78.7502C397.192 85.9385 402.355 85.5186 407.4 88.4249" stroke="#0057FD" stroke-opacity="0.05"/>
<path d="M767.569 154.367C767.569 154.367 770.715 167.959 776.758 174.135C780.351 177.807 782.974 177.925 786.878 180.808C791.195 183.997 797.71 178.5 797.71 189.786C797.71 197.424 796.47 206.814 801 212.999C805.413 219.025 815.464 213.715 819.579 219.931C822.943 225.013 819.509 234.754 822.5 240C825.631 245.491 833.15 240.891 835.148 246.911C838 255.5 843.564 255.63 849.4 259.619" stroke="#0057FD" stroke-opacity="0.05"/>
<path d="M262.121 10.5174C262.121 10.5174 265.266 24.1094 271.309 30.2851C274.902 33.9571 277.525 34.0757 281.429 36.9585C285.747 40.147 292.262 34.65 292.262 45.9366C292.262 53.5739 291.022 62.9642 295.552 69.1497C299.964 75.1751 310.016 69.8657 314.13 76.0815C317.495 81.1636 314.061 90.9049 317.052 96.1499C320.183 101.641 327.701 97.0415 329.7 103.061C332.552 111.65 338.116 111.78 343.951 115.769" stroke="#0057FD" stroke-opacity="0.05"/>
<path d="M1023.12 7.51744C1023.12 7.51744 1026.27 21.1094 1032.31 27.2851C1035.9 30.9571 1038.53 31.0757 1042.43 33.9585C1046.75 37.147 1053.26 31.65 1053.26 42.9366C1053.26 50.5739 1052.02 59.9642 1056.55 66.1497C1060.96 72.1751 1071.02 66.8657 1075.13 73.0815C1078.49 78.1636 1075.06 87.9049 1078.05 93.1499C1081.18 98.6411 1088.7 94.0415 1090.7 100.061C1093.55 108.65 1099.12 108.78 1104.95 112.769" stroke="#0057FD" stroke-opacity="0.05"/>
<path d="M7.12087 67.5174C7.12087 67.5174 11.3408 82.581 18.0998 89.7372C22.1187 93.9923 24.8794 94.2993 29.1709 97.7132C33.9174 101.489 40.3825 95.9235 41.1458 108.255C41.6623 116.6 40.996 126.776 46.168 133.841C51.2061 140.723 61.3951 135.601 66.1332 142.671C70.0072 148.451 67.0626 158.863 70.5558 164.796C74.2129 171.007 81.7915 166.49 84.2961 173.202C87.8695 182.779 93.7176 183.298 100.111 188.051" stroke="#0057FD" stroke-opacity="0.05"/>
<path d="M768.121 64.5174C768.121 64.5174 772.341 79.581 779.1 86.7372C783.119 90.9923 785.879 91.2993 790.171 94.7132C794.917 98.4889 801.383 92.9235 802.146 105.255C802.662 113.6 801.996 123.776 807.168 130.841C812.206 137.723 822.395 132.601 827.133 139.671C831.007 145.451 828.063 155.863 831.556 161.796C835.213 168.007 842.792 163.49 845.296 170.202C848.87 179.779 854.718 180.298 861.111 185.051" stroke="#0057FD" stroke-opacity="0.05"/>
<path d="M6.12087 141.517C6.12087 141.517 10.3408 156.581 17.0998 163.737C21.1187 167.992 23.8794 168.299 28.1709 171.713C32.9174 175.489 39.3825 169.923 40.1458 182.255C40.6623 190.6 39.996 200.776 45.168 207.841C50.2061 214.723 60.3951 209.601 65.1332 216.671C69.0072 222.451 66.0626 232.863 69.5558 238.796C73.2129 245.007 80.7915 240.49 83.2961 247.202C86.8695 256.779 92.7176 257.298 99.1108 262.051" stroke="#0057FD" stroke-opacity="0.05"/>
<path d="M698.72 6.24889C698.72 6.24889 701.342 19.1235 707.036 24.8211C710.421 28.2089 712.977 28.2357 716.692 30.8597C720.801 33.7618 727.34 28.2983 726.968 39.0753C726.716 46.3678 725.196 55.375 729.413 61.1319C733.521 66.7398 743.506 61.3388 747.316 67.1382C750.432 71.88 746.76 81.2947 749.506 86.2043C752.38 91.3444 759.869 86.7045 761.621 92.3866C764.121 100.494 769.548 100.435 775.111 104.051" stroke="#0057FD" stroke-opacity="0.05"/>
<path d="M352.938 5.41686C352.938 5.41686 354.48 16.8122 359.454 21.5241C362.411 24.3257 364.829 24.1631 368.154 26.2533C371.831 28.5651 378.421 23.1703 377.282 32.8966C376.511 39.4781 374.414 47.6954 377.986 52.5684C381.465 57.3154 391.311 51.7252 394.495 56.6663C397.098 60.7062 392.934 69.4474 395.175 73.6654C397.521 78.0814 404.949 73.3586 406.193 78.3443C407.967 85.4578 413.108 85.0085 418.111 87.8569" stroke="#0057FD" stroke-opacity="0.05"/>
<path d="M767.121 138.517C767.121 138.517 771.341 153.581 778.1 160.737C782.119 164.992 784.879 165.299 789.171 168.713C793.917 172.489 800.382 166.923 801.146 179.255C801.662 187.6 800.996 197.776 806.168 204.841C811.206 211.723 821.395 206.601 826.133 213.671C830.007 219.451 827.063 229.863 830.556 235.796C834.213 242.007 841.792 237.49 844.296 244.202C847.87 253.779 853.718 254.298 860.111 259.051" stroke="#0057FD" stroke-opacity="0.05"/>
<path d="M220.121 10.5174C220.121 10.5174 227.449 29.8378 236.28 39.8308C241.53 45.7726 244.689 46.6246 250.102 51.5746C256.089 57.0492 262.41 51.2857 265.381 66.6415C267.392 77.0322 268.386 89.4815 275.415 99.0896C282.262 108.449 292.849 103.872 299.39 113.412C304.739 121.212 303.21 133.561 308.157 141.484C313.335 149.78 321.088 145.501 325.056 154.217C330.717 166.653 337.386 168.296 345.393 175.259" stroke="#0057FD" stroke-opacity="0.05"/>
<path d="M981.121 7.51744C981.121 7.51744 988.449 26.8378 997.28 36.8308C1002.53 42.7726 1005.69 43.6246 1011.1 48.5746C1017.09 54.0492 1023.41 48.2857 1026.38 63.6415C1028.39 74.0322 1029.39 86.4815 1036.41 96.0896C1043.26 105.449 1053.85 100.872 1060.39 110.412C1065.74 118.212 1064.21 130.561 1069.16 138.484C1074.34 146.78 1082.09 142.501 1086.06 151.217C1091.72 163.653 1098.39 165.296 1106.39 172.259" stroke="#0057FD" stroke-opacity="0.05"/>
<path d="M7.71562 46.4844C7.71562 46.4844 12.7434 68.4771 20.5 76.9995C25.1121 82.0669 26.1683 79.8459 31 83.9995C36.344 88.5935 45.3247 80.844 47.1515 94.6321C48.3876 103.962 48.5206 115.233 54.5871 123.523C60.4965 131.598 77.3912 123.24 82.998 131.499C87.5823 138.253 78.8049 153.095 82.998 159.987C87.3879 167.202 94.2908 162.822 97.5 170.5C102.307 182 102 184.5 116.252 188.308" stroke="#0057FD" stroke-opacity="0.05"/>
<path d="M768.716 43.4844C768.716 43.4844 773.743 65.4771 781.5 73.9995C786.112 79.0669 787.168 76.8459 792 80.9995C797.344 85.5935 806.325 77.844 808.151 91.6321C809.388 100.962 809.521 112.233 815.587 120.523C821.497 128.598 838.391 120.24 843.998 128.499C848.582 135.253 839.805 150.095 843.998 156.987C848.388 164.202 855.291 159.822 858.5 167.5C863.307 179 863 181.5 877.252 185.308" stroke="#0057FD" stroke-opacity="0.05"/>
<path d="M235.291 10.2901C235.291 10.2901 240.318 32.2827 248.075 40.8052C252.687 45.8726 253.743 43.6516 258.575 47.8052C263.919 52.3991 272.9 44.6496 274.726 58.4377C275.963 67.7678 276.096 79.0386 282.162 87.3282C288.072 95.4033 304.966 87.0458 310.573 95.3051C315.157 102.058 306.38 116.901 310.573 123.792C314.963 131.007 321.866 126.628 325.075 134.305C329.882 145.805 329.575 148.305 343.827 152.114" stroke="#0057FD" stroke-opacity="0.05"/>
<path d="M996.291 7.29005C996.291 7.29005 1001.32 29.2827 1009.08 37.8052C1013.69 42.8726 1014.74 40.6516 1019.58 44.8052C1024.92 49.3991 1033.9 41.6496 1035.73 55.4377C1036.96 64.7678 1037.1 76.0386 1043.16 84.3282C1049.07 92.4033 1065.97 84.0458 1071.57 92.3051C1076.16 99.0582 1067.38 113.901 1071.57 120.792C1075.96 128.007 1082.87 123.628 1086.08 131.305C1090.88 142.805 1090.58 145.305 1104.83 149.114" stroke="#0057FD" stroke-opacity="0.05"/>
<path d="M33.8222 10.4587C33.8222 10.4587 37.5228 37.1213 47 48C52.6351 54.4684 61.2365 44.5705 67 50C73.3745 56.0051 65.8846 71.3863 82.5905 71.3864C94.1887 71.3865 86.5795 95.575 94.1887 105.977C101.601 116.11 112.311 111.703 119.416 122.014C125.226 130.445 118.1 143.455 123.5 152C129.154 160.946 143 156.686 147.424 166.027C153.737 179.356 160.662 181.349 169.173 189.003" stroke="#0057FD" stroke-opacity="0.05"/>
<path d="M264.353 81.5154C264.353 81.5154 268.054 108.178 277.531 119.057C283.166 125.525 291.768 115.627 297.531 121.057C303.906 127.062 296.416 142.443 313.122 142.443C324.72 142.443 317.111 166.632 324.72 177.034C332.132 187.167 342.843 182.759 349.948 193.071C355.757 201.501 348.631 214.512 354.031 223.057C359.685 232.002 373.531 227.742 377.956 237.084C384.269 250.413 391.193 252.406 399.705 260.059" stroke="#0057FD" stroke-opacity="0.05"/>
<path d="M794.822 7.45873C794.822 7.45873 798.523 34.1213 808 45C813.635 51.4684 822.237 41.5705 828 47C834.374 53.0051 826.885 68.3863 843.59 68.3864C855.189 68.3865 847.579 92.575 855.189 102.977C862.601 113.11 873.311 108.703 880.416 119.014C886.226 127.445 879.1 140.455 884.5 149C890.154 157.946 904 153.686 908.424 163.027C914.737 176.356 921.662 178.349 930.173 186.003" stroke="#0057FD" stroke-opacity="0.05"/>
<path d="M48.121 9.51783C48.121 9.51783 42.5 32.4995 70.0001 32.4999C78.5535 32.5 75.7502 56.5891 81.5001 61.9999C87.8594 67.9843 85.0665 56.1202 96.7525 67.9998C112 83.5 100.703 92.1358 108.29 102.507C115.68 112.61 122.5 115.5 133.469 120.735C142.681 125.132 128.086 136.98 133.469 145.5C139.104 154.421 156.978 155.306 161.385 164.624C167.673 177.917 174.587 179.897 183.079 187.524" stroke="#0057FD" stroke-opacity="0.05"/>
<path d="M278.652 80.5745C278.652 80.5745 273.031 103.556 300.531 103.557C309.085 103.557 306.282 127.646 312.031 133.057C318.391 139.041 315.598 127.177 327.284 139.056C342.531 154.557 331.234 163.192 338.821 173.564C346.211 183.667 353.031 186.557 364 191.792C373.212 196.189 358.617 208.036 364 216.557C369.635 225.477 387.51 226.363 391.917 235.68C398.204 248.974 405.119 250.954 413.61 258.58" stroke="#0057FD" stroke-opacity="0.05"/>
<path d="M809.121 6.51783C809.121 6.51783 803.5 29.4995 831 29.4999C839.553 29.5 836.75 53.5891 842.5 58.9999C848.859 64.9843 846.066 53.1202 857.752 64.9998C873 80.5 861.703 89.1358 869.29 99.5071C876.68 109.61 883.5 112.5 894.469 117.735C903.681 122.132 889.086 133.98 894.469 142.5C900.104 151.421 917.978 152.306 922.385 161.624C928.673 174.917 935.587 176.897 944.079 184.524" stroke="#0057FD" stroke-opacity="0.05"/>
<path d="M82.1209 26.4299C82.1209 26.4299 75.7261 48.3519 102.403 47.2249C110.7 46.8743 106.993 69.7259 112.349 74.5973C118.273 79.9851 116.05 68.9014 126.899 79.6351C141.055 93.64 129.742 102.254 136.676 111.732C143.431 120.965 149.929 123.413 160.354 127.905C169.111 131.677 154.467 143.458 159.339 151.28C164.44 159.468 181.743 159.571 185.636 168.185C191.19 180.475 197.817 182.059 205.741 188.91" stroke="#0057FD" stroke-opacity="0.05"/>
<path d="M312.652 97.4866C312.652 97.4866 306.257 119.409 332.934 118.282C341.232 117.931 337.525 140.783 342.881 145.654C348.804 151.042 346.581 139.958 357.43 150.692C371.586 164.697 360.273 173.311 367.208 182.789C373.962 192.021 380.46 194.47 390.885 198.962C399.642 202.734 384.998 214.515 389.87 222.336C394.971 230.525 412.274 230.628 416.167 239.241C421.721 251.531 428.348 253.116 436.273 259.966" stroke="#0057FD" stroke-opacity="0.05"/>
<path d="M843.121 23.4299C843.121 23.4299 836.726 45.3519 863.403 44.2249C871.7 43.8743 867.993 66.7259 873.349 71.5973C879.273 76.9851 877.05 65.9014 887.899 76.6351C902.055 90.64 890.742 99.2541 897.676 108.732C904.431 117.965 910.929 120.413 921.354 124.905C930.111 128.677 915.467 140.458 920.339 148.28C925.44 156.468 942.743 156.571 946.636 165.185C952.19 177.475 958.817 179.059 966.741 185.91" stroke="#0057FD" stroke-opacity="0.05"/>
<path d="M117.81 17.7118C117.81 17.7118 138.048 20.5384 132.418 43.3778C130.667 50.4817 151.248 56.0096 154.564 62.5495C158.233 69.7828 148.951 63.594 156.425 77.1738C166.176 94.8922 175.661 88.3262 182.722 98.0094C189.599 107.442 190.604 114.049 192.706 124.866C194.472 133.951 207.299 125.693 213.274 132.942C219.529 140.532 216.605 155.666 223.441 162.364C233.195 171.922 233.423 178.31 238.019 187.85" stroke="#0057FD" stroke-opacity="0.05"/>
<path d="M348.342 88.7684C348.342 88.7684 368.579 91.595 362.95 114.434C361.199 121.538 381.779 127.066 385.096 133.606C388.764 140.839 379.482 134.651 386.956 148.23C396.708 165.949 406.193 159.383 413.253 169.066C420.131 178.499 421.135 185.105 423.237 195.922C425.003 205.007 437.831 196.75 443.805 203.999C450.06 211.588 447.136 226.722 453.972 233.421C463.726 242.978 463.954 249.367 468.55 258.906" stroke="#0057FD" stroke-opacity="0.05"/>
<path d="M878.81 14.7118C878.81 14.7118 899.048 17.5384 893.418 40.3778C891.667 47.4817 912.248 53.0096 915.564 59.5495C919.232 66.7828 909.951 60.594 917.425 74.1738C927.176 91.8922 936.661 85.3262 943.722 95.0094C950.599 104.442 951.604 111.049 953.706 121.866C955.472 130.951 968.299 122.693 974.274 129.942C980.529 137.532 977.605 152.666 984.441 159.364C994.195 168.922 994.423 175.31 999.019 184.85" stroke="#0057FD" stroke-opacity="0.05"/>
<path d="M134.774 12.9149C134.774 12.9149 154.632 16.8201 150.343 39.5328C149.009 46.5972 169.341 53.2415 172.913 60.0028C176.864 67.4809 167.501 60.7615 175.49 74.8315C185.913 93.1896 194.808 87.0713 202.19 97.1946C209.382 107.056 210.705 113.764 213.318 124.77C215.513 134.014 227.574 126.366 233.772 133.981C240.26 141.953 238.204 157.045 245.212 164.15C255.21 174.287 255.767 180.734 260.741 190.584" stroke="#0057FD" stroke-opacity="0.05"/>
<path d="M365.305 83.9716C365.305 83.9716 385.163 87.8768 380.874 110.589C379.54 117.654 399.873 124.298 403.445 131.059C407.395 138.538 398.032 131.818 406.021 145.888C416.445 164.246 425.339 158.128 432.722 168.251C439.913 178.112 441.236 184.82 443.849 195.826C446.044 205.07 458.105 197.423 464.303 205.037C470.792 213.009 468.735 228.101 475.743 235.206C485.742 245.344 486.298 251.791 491.273 261.641" stroke="#0057FD" stroke-opacity="0.05"/>
<path d="M895.774 9.91495C895.774 9.91495 915.632 13.8201 911.343 36.5328C910.009 43.5972 930.341 50.2415 933.913 57.0028C937.864 64.4809 928.501 57.7615 936.49 71.8315C946.913 90.1896 955.808 84.0713 963.19 94.1946C970.382 104.056 971.705 110.764 974.318 121.77C976.513 131.014 988.574 123.366 994.772 130.981C1001.26 138.953 999.204 154.045 1006.21 161.15C1016.21 171.287 1016.77 177.734 1021.74 187.584" stroke="#0057FD" stroke-opacity="0.05"/>
<path d="M156.918 13.8175C156.918 13.8175 177.879 16.4923 171.772 40.0803C169.873 47.417 191.158 52.8698 194.522 59.5666C198.243 66.9733 188.687 60.7078 196.281 74.6063C206.19 92.7406 216.106 85.8676 223.317 95.7578C230.342 105.392 231.307 112.185 233.361 123.3C235.087 132.637 248.49 123.982 254.603 131.378C261.003 139.121 257.793 154.742 264.806 161.561C274.813 171.29 274.975 177.867 279.631 187.638" stroke="#0057FD" stroke-opacity="0.05"/>
<path d="M387.45 84.8741C387.45 84.8741 408.41 87.5489 402.304 111.137C400.404 118.474 421.689 123.926 425.053 130.623C428.774 138.03 419.218 131.764 426.812 145.663C436.721 163.797 446.638 156.924 453.849 166.814C460.873 176.449 461.838 183.241 463.892 194.357C465.618 203.693 479.021 195.039 485.134 202.435C491.534 210.178 488.324 225.799 495.338 232.618C505.344 242.347 505.506 248.924 510.162 258.695" stroke="#0057FD" stroke-opacity="0.05"/>
<path d="M917.918 10.8175C917.918 10.8175 938.879 13.4923 932.772 37.0803C930.873 44.417 952.158 49.8698 955.522 56.5666C959.243 63.9733 949.687 57.7078 957.281 71.6063C967.19 89.7406 977.106 82.8676 984.317 92.7578C991.342 102.392 992.307 109.185 994.361 120.3C996.087 129.637 1009.49 120.982 1015.6 128.378C1022 136.121 1018.79 151.742 1025.81 158.561C1035.81 168.29 1035.98 174.867 1040.63 184.638" stroke="#0057FD" stroke-opacity="0.05"/>
<path d="M186.527 22.956C186.527 22.956 211.142 21.7155 199.19 48.2465C195.472 56.4985 219.93 58.178 222.651 64.7099C225.661 71.9343 215.429 67.0806 221.81 80.5168C230.136 98.0478 243.378 88.7207 250.086 97.9273C256.621 106.896 256.445 114.002 256.728 125.536C256.966 135.224 274.74 123.3 280.62 130.043C286.777 137.103 279.862 154.509 286.935 160.456C297.028 168.942 295.932 175.973 299.599 185.553" stroke="#0057FD" stroke-opacity="0.05"/>
<path d="M417.059 94.0126C417.059 94.0126 441.674 92.7722 429.721 119.303C426.003 127.555 450.462 129.235 453.183 135.767C456.192 142.991 445.96 138.137 452.341 151.573C460.668 169.104 473.91 159.777 480.618 168.984C487.152 177.952 486.976 185.058 487.259 196.593C487.497 206.281 505.271 194.356 511.152 201.1C517.308 208.16 510.393 225.566 517.467 231.513C527.559 239.998 526.463 247.029 530.13 256.61" stroke="#0057FD" stroke-opacity="0.05"/>
<path d="M947.527 19.956C947.527 19.956 972.142 18.7155 960.19 45.2465C956.472 53.4985 980.93 55.178 983.651 61.7099C986.661 68.9343 976.429 64.0806 982.81 77.5168C991.136 95.0478 1004.38 85.7207 1011.09 94.9273C1017.62 103.896 1017.45 111.002 1017.73 122.536C1017.97 132.224 1035.74 120.3 1041.62 127.043C1047.78 134.103 1040.86 151.509 1047.94 157.456C1058.03 165.942 1056.93 172.973 1060.6 182.553" stroke="#0057FD" stroke-opacity="0.05"/>
<path d="M422.351 63.5878C422.351 63.5878 446.966 62.3474 435.013 88.8783C431.295 97.1303 455.754 98.8098 458.475 105.342C461.484 112.566 451.252 107.712 457.633 121.149C465.96 138.68 479.202 129.352 485.91 138.559C492.444 147.528 492.268 154.633 492.551 166.168C492.789 175.856 510.563 163.931 516.444 170.675C522.6 177.735 515.685 195.141 522.759 201.088C532.851 209.573 531.755 216.605 535.422 226.185" stroke="#0057FD" stroke-opacity="0.05"/>
<path d="M455.351 78.5878C455.351 78.5878 479.966 77.3474 468.013 103.878C464.295 112.13 488.754 113.81 491.475 120.342C494.484 127.566 484.252 122.712 490.633 136.149C498.96 153.68 512.202 144.352 518.91 153.559C525.444 162.528 525.268 169.633 525.551 181.168C525.789 190.856 543.563 178.931 549.444 185.675C555.6 192.735 548.685 210.141 555.759 216.088C565.851 224.573 564.755 231.605 568.422 241.185" stroke="#0057FD" stroke-opacity="0.05"/>
<path d="M488.351 93.5878C488.351 93.5878 512.966 92.3474 501.013 118.878C497.295 127.13 521.754 128.81 524.475 135.342C527.484 142.566 517.252 137.712 523.633 151.149C531.96 168.68 545.202 159.352 551.91 168.559C558.444 177.528 558.268 184.633 558.551 196.168C558.789 205.856 576.563 193.931 582.444 200.675C588.6 207.735 581.685 225.141 588.759 231.088C598.851 239.573 597.755 246.605 601.422 256.185" stroke="#0057FD" stroke-opacity="0.05"/>
<path d="M521.351 108.588C521.351 108.588 545.345 106.498 532.732 132.125C528.809 140.096 552.544 140.783 554.949 146.883C557.609 153.629 547.834 149.401 553.544 161.918C560.995 178.251 574.224 168.906 580.41 177.397C586.435 185.668 586 192.419 585.848 203.358C585.72 212.545 603.455 200.567 608.926 206.75C614.655 213.224 607.281 230.002 613.943 235.385C623.448 243.065 622.121 249.78 625.333 258.738" stroke="#0057FD" stroke-opacity="0.05"/>
<path d="M554.351 123.588C554.351 123.588 577.635 120.525 564.267 145.118C560.109 152.767 583.014 152.319 585.057 157.923C587.318 164.122 578.066 160.61 583.008 172.076C589.457 187.036 602.672 177.672 608.259 185.343C613.701 192.815 612.97 199.161 612.319 209.417C611.773 218.032 629.463 205.992 634.466 211.534C639.704 217.336 631.806 233.396 637.996 238.133C646.828 244.892 645.237 251.245 647.929 259.491" stroke="#0057FD" stroke-opacity="0.05"/>
<path d="M587.351 138.588C587.351 138.588 610.031 134.698 596.02 158.41C591.662 165.785 613.861 164.371 615.597 169.554C617.517 175.287 608.71 172.385 612.999 182.956C618.596 196.748 631.798 187.367 636.876 194.34C641.821 201.133 640.839 207.134 639.764 216.81C638.862 224.937 656.514 212.845 661.118 217.841C665.939 223.072 657.595 238.521 663.384 242.709C671.643 248.684 669.827 254.728 672.076 262.368" stroke="#0057FD" stroke-opacity="0.05"/>
<path d="M620.351 153.588C620.351 153.588 642.241 148.616 627.39 171.178C622.771 178.196 644.048 175.519 645.382 180.151C646.857 185.275 638.632 183.169 642.067 192.571C646.549 204.838 659.735 195.434 664.147 201.496C668.445 207.401 667.133 212.951 665.504 221.868C664.136 229.357 681.738 217.197 685.822 221.48C690.097 225.964 681.17 240.615 686.435 244.084C693.946 249.035 691.835 254.677 693.507 261.524" stroke="#0057FD" stroke-opacity="0.05"/>
<path d="M653.351 168.588C653.351 168.588 674.535 162.65 658.933 184.183C654.08 190.88 674.533 187.074 675.507 191.215C676.585 195.794 668.88 194.401 671.552 202.757C675.038 213.659 688.209 204.236 692.026 209.483C695.744 214.594 694.138 219.741 692.014 227.98C690.23 234.899 707.787 222.679 711.405 226.324C715.193 230.14 705.745 244.077 710.54 246.904C717.382 250.938 715.009 256.221 716.163 262.36" stroke="#0057FD" stroke-opacity="0.05"/>
<path d="M686.351 183.588C686.351 183.588 706.71 176.519 690.229 196.85C685.103 203.173 704.592 198.047 705.146 201.612C705.759 205.555 698.662 204.994 700.441 212.128C702.762 221.435 715.917 211.989 719.038 216.283C722.078 220.466 720.128 225.141 717.424 232.587C715.154 238.84 732.66 226.548 735.733 229.448C738.951 232.483 728.893 245.585 733.14 247.662C739.2 250.625 736.52 255.486 737.069 260.797" stroke="#0057FD" stroke-opacity="0.05"/>
<path d="M719.351 198.588C719.351 198.588 738.996 190.542 721.756 209.833C716.394 215.833 735.05 209.565 735.24 212.633C735.452 216.025 728.88 216.184 729.887 222.261C731.202 230.19 744.342 220.723 746.861 224.193C749.315 227.574 747.067 231.842 743.863 238.602C741.172 244.279 758.633 231.926 761.235 234.18C763.96 236.541 753.375 248.921 757.149 250.349C762.532 252.386 759.586 256.883 759.613 261.479" stroke="#0057FD" stroke-opacity="0.05"/>
<path d="M204.08 9.3733C204.08 9.3733 198.461 32.3589 225.964 32.3634C234.519 32.3648 231.719 56.4583 237.47 61.8711C243.831 67.8578 241.036 55.9907 252.725 67.8746C267.977 83.3802 256.68 92.0161 264.269 102.391C271.661 112.497 278.483 115.389 289.453 120.626C298.667 125.026 284.072 136.873 289.457 145.397C295.094 154.32 312.971 155.208 317.379 164.528C323.67 177.825 330.585 179.806 339.079 187.436" stroke="#0057FD" stroke-opacity="0.05"/>
<path d="M434.611 80.4299C434.611 80.4299 428.993 103.415 456.496 103.42C465.05 103.421 462.25 127.515 468.001 132.928C474.362 138.914 471.567 127.047 483.256 138.931C498.508 154.437 487.211 163.073 494.8 173.447C502.193 183.553 509.014 186.445 519.984 191.683C529.199 196.082 514.604 207.93 519.988 216.453C525.625 225.376 543.502 226.265 547.911 235.585C554.201 248.882 561.117 250.863 569.61 258.492" stroke="#0057FD" stroke-opacity="0.05"/>
<path d="M965.08 6.3733C965.08 6.3733 959.461 29.3589 986.964 29.3634C995.519 29.3648 992.719 53.4583 998.47 58.8711C1004.83 64.8578 1002.04 52.9907 1013.73 64.8746C1028.98 80.3802 1017.68 89.0161 1025.27 99.3906C1032.66 109.497 1039.48 112.389 1050.45 117.626C1059.67 122.026 1045.07 133.873 1050.46 142.397C1056.09 151.32 1073.97 152.208 1078.38 161.528C1084.67 174.825 1091.59 176.806 1100.08 184.436" stroke="#0057FD" stroke-opacity="0.05"/>
<path d="M285.367 10.6103C285.367 10.6103 306.254 4.16018 290.221 25.2324C285.234 31.7865 305.327 27.3922 306.121 31.2935C306.999 35.6084 299.536 34.5746 301.826 42.4214C304.813 52.6597 318.017 43.198 321.541 48.0442C324.974 52.765 323.212 57.7215 320.829 65.6381C318.827 72.2872 336.414 59.9988 339.805 63.3288C343.355 66.815 333.612 80.429 338.182 82.937C344.703 86.5153 342.189 91.6292 343.082 97.4248" stroke="#0057FD" stroke-opacity="0.05"/>
<path d="M1046.37 7.61032C1046.37 7.61032 1067.25 1.16018 1051.22 22.2324C1046.23 28.7865 1066.33 24.3922 1067.12 28.2935C1068 32.6084 1060.54 31.5746 1062.83 39.4214C1065.81 49.6597 1079.02 40.198 1082.54 45.0442C1085.97 49.765 1084.21 54.7215 1081.83 62.6381C1079.83 69.2872 1097.41 56.9988 1100.81 60.3288C1104.35 63.815 1094.61 77.429 1099.18 79.937C1105.7 83.5153 1103.19 88.6292 1104.08 94.4248" stroke="#0057FD" stroke-opacity="0.05"/>
<path d="M6.91024 104.959C6.91024 104.959 19.2124 107.704 21.4164 113.911C22.7269 117.602 20.9295 120.416 21.1637 124.478C21.4228 128.97 20.8237 131.935 22.8654 135.702C25.5705 140.693 31.7444 139.447 35.0693 144.027C38.308 148.489 35.5592 153.668 39.2214 157.8C42.2157 161.179 46.2273 160.546 49.6707 163.516C53.2757 166.625 54.7761 168.979 56.7975 173.275C59.2479 178.483 59.9941 181.914 60 188" stroke="#0057FD" stroke-opacity="0.05"/>
<path d="M767.91 101.959C767.91 101.959 780.212 104.704 782.416 110.911C783.727 114.602 781.929 117.416 782.164 121.478C782.423 125.97 781.824 128.935 783.865 132.702C786.57 137.693 792.744 136.447 796.069 141.027C799.308 145.489 796.559 150.668 800.221 154.8C803.216 158.179 807.227 157.546 810.671 160.516C814.276 163.625 815.776 165.979 817.797 170.275C820.248 175.483 820.994 178.914 821 185" stroke="#0057FD" stroke-opacity="0.05"/>
<path d="M235.924 178.959C235.924 178.959 248.226 181.704 250.431 187.911C251.741 191.602 249.944 194.416 250.178 198.478C250.437 202.97 249.838 205.935 251.88 209.702C254.585 214.693 260.759 213.447 264.083 218.027C267.322 222.489 264.573 227.668 268.236 231.8C271.23 235.179 275.241 234.546 278.685 237.516C282.29 240.625 283.79 242.979 285.812 247.275C288.262 252.483 289.008 255.914 289.014 262" stroke="#0057FD" stroke-opacity="0.05"/>
<path d="M996.924 175.959C996.924 175.959 1009.23 178.704 1011.43 184.911C1012.74 188.602 1010.94 191.416 1011.18 195.478C1011.44 199.97 1010.84 202.935 1012.88 206.702C1015.58 211.693 1021.76 210.447 1025.08 215.027C1028.32 219.489 1025.57 224.668 1029.24 228.8C1032.23 232.179 1036.24 231.546 1039.68 234.516C1043.29 237.625 1044.79 239.979 1046.81 244.275C1049.26 249.483 1050.01 252.914 1050.01 259" stroke="#0057FD" stroke-opacity="0.05"/>
<path d="M255.924 174.959C255.924 174.959 268.226 177.704 270.431 183.911C271.741 187.602 269.944 190.416 270.178 194.478C270.437 198.97 269.838 201.935 271.88 205.702C274.585 210.693 280.759 209.447 284.083 214.027C287.322 218.489 284.573 223.668 288.236 227.8C291.23 231.179 295.241 230.546 298.685 233.516C302.29 236.625 303.79 238.979 305.812 243.275C308.262 248.483 309.008 251.914 309.014 258" stroke="#0057FD" stroke-opacity="0.05"/>
<path d="M1016.92 171.959C1016.92 171.959 1029.23 174.704 1031.43 180.911C1032.74 184.602 1030.94 187.416 1031.18 191.478C1031.44 195.97 1030.84 198.935 1032.88 202.702C1035.58 207.693 1041.76 206.447 1045.08 211.027C1048.32 215.489 1045.57 220.668 1049.24 224.8C1052.23 228.179 1056.24 227.546 1059.68 230.516C1063.29 233.625 1064.79 235.979 1066.81 240.275C1069.26 245.483 1070.01 248.914 1070.01 255" stroke="#0057FD" stroke-opacity="0.05"/>
<path d="M158.924 179.959C158.924 179.959 171.226 182.704 173.431 188.911C174.741 192.602 172.944 195.416 173.178 199.478C173.437 203.97 172.838 206.935 174.88 210.702C177.585 215.693 183.759 214.447 187.083 219.027C190.322 223.489 187.573 228.668 191.236 232.8C194.23 236.179 198.241 235.546 201.685 238.516C205.29 241.625 206.79 243.979 208.812 248.275C211.262 253.483 212.008 256.914 212.014 263" stroke="#0057FD" stroke-opacity="0.05"/>
<path d="M919.924 176.959C919.924 176.959 932.226 179.704 934.431 185.911C935.741 189.602 933.944 192.416 934.178 196.478C934.437 200.97 933.838 203.935 935.88 207.702C938.585 212.693 944.759 211.447 948.083 216.027C951.322 220.489 948.573 225.668 952.236 229.8C955.23 233.179 959.241 232.546 962.685 235.516C966.29 238.625 967.79 240.979 969.812 245.275C972.262 250.483 973.008 253.914 973.014 260" stroke="#0057FD" stroke-opacity="0.05"/>
<path d="M67.9244 179.959C67.9244 179.959 80.2265 182.704 82.4305 188.911C83.741 192.602 81.9436 195.416 82.1779 199.478C82.4369 203.97 81.8378 206.935 83.8795 210.702C86.5846 215.693 92.7586 214.447 96.0834 219.027C99.3222 223.489 96.5734 228.668 100.236 232.8C103.23 236.179 107.241 235.546 110.685 238.516C114.29 241.625 115.79 243.979 117.812 248.275C120.262 253.483 121.008 256.914 121.014 263" stroke="#0057FD" stroke-opacity="0.05"/>
<path d="M731.684 4.71458C731.684 4.71458 742.372 5.25044 743.5 9.9847C744.172 12.7997 742.168 15.3308 741.819 18.5949C741.434 22.205 740.488 24.6941 741.806 27.4705C743.552 31.1489 749.278 29.2883 751.638 32.5481C753.938 35.7235 750.753 40.3049 753.478 43.1547C755.707 45.4848 759.403 44.4191 762.091 46.3555C764.906 48.3828 765.932 50.0869 767.159 53.2957C768.647 57.1856 768.846 59.8673 768.014 64.8058" stroke="#0057FD" stroke-opacity="0.05"/>
<path d="M386.924 5.76439C386.924 5.76439 399.226 8.51016 401.43 14.7171C402.741 18.4077 400.944 21.2218 401.178 25.2833C401.437 29.7754 400.838 32.7409 402.879 36.5079C405.585 41.4988 411.758 40.2529 415.083 44.8331C418.322 49.2947 415.573 54.4737 419.235 58.606C422.23 61.9846 426.241 61.3516 429.685 64.3212C433.29 67.4303 434.79 69.7844 436.812 74.0807C439.262 79.2891 440.008 82.7199 440.014 88.8058" stroke="#0057FD" stroke-opacity="0.05"/>
<path d="M828.924 176.959C828.924 176.959 841.226 179.704 843.431 185.911C844.741 189.602 842.944 192.416 843.178 196.478C843.437 200.97 842.838 203.935 844.88 207.702C847.585 212.693 853.759 211.447 857.083 216.027C860.322 220.489 857.573 225.668 861.236 229.8C864.23 233.179 868.241 232.546 871.685 235.516C875.29 238.625 876.79 240.979 878.812 245.275C881.262 250.483 882.008 253.914 882.014 260" stroke="#0057FD" stroke-opacity="0.05"/>
<path d="M116.924 174.959C116.924 174.959 129.226 177.704 131.431 183.911C132.741 187.602 130.944 190.416 131.178 194.478C131.437 198.97 130.838 201.935 132.88 205.702C135.585 210.693 141.759 209.447 145.083 214.027C148.322 218.489 145.573 223.668 149.236 227.8C152.23 231.179 156.241 230.546 159.685 233.516C163.29 236.625 164.79 238.979 166.812 243.275C169.262 248.483 170.008 251.914 170.014 258" stroke="#0057FD" stroke-opacity="0.05"/>
<path d="M877.924 171.959C877.924 171.959 890.226 174.704 892.431 180.911C893.741 184.602 891.944 187.416 892.178 191.478C892.437 195.97 891.838 198.935 893.88 202.702C896.585 207.693 902.759 206.447 906.083 211.027C909.322 215.489 906.573 220.668 910.236 224.8C913.23 228.179 917.241 227.546 920.685 230.516C924.29 233.625 925.79 235.979 927.812 240.275C930.262 245.483 931.008 248.914 931.014 255" stroke="#0057FD" stroke-opacity="0.05"/>
<path d="M5.91024 178.959C5.91024 178.959 18.2124 181.704 20.4164 187.911C21.7269 191.602 19.9295 194.416 20.1637 198.478C20.4228 202.97 19.8237 205.935 21.8654 209.702C24.5705 214.693 30.7444 213.447 34.0693 218.027C37.308 222.489 34.5592 227.668 38.2214 231.8C41.2157 235.179 45.2273 234.546 48.6707 237.516C52.2757 240.625 53.7761 242.979 55.7975 247.275C58.2479 252.483 58.9941 255.914 59 262" stroke="#0057FD" stroke-opacity="0.05"/>
<path d="M668.924 4.95872C668.924 4.95872 684.236 11.8261 688.446 20.7797C690.949 26.1034 689.537 29.4452 690.857 34.994C692.318 41.131 692.367 44.9848 695.758 50.5995C700.251 58.0382 707.262 57.9387 712.385 64.9815C717.375 71.8421 715.441 78.1356 720.849 84.6596C725.272 89.9938 729.872 90.1678 734.723 95.0645C739.801 100.191 742.187 103.757 745.69 110.082C749.936 117.749 751.702 122.577 753.271 130.803" stroke="#0057FD" stroke-opacity="0.05"/>
<path d="M324.91 4.76439C324.91 4.76439 337.212 7.51016 339.416 13.7171C340.727 17.4077 338.929 20.2218 339.164 24.2833C339.423 28.7754 338.824 31.7409 340.865 35.5079C343.57 40.4988 349.744 39.2529 353.069 43.8331C356.308 48.2947 353.559 53.4737 357.221 57.606C360.216 60.9846 364.227 60.3516 367.671 63.3212C371.276 66.4303 372.776 68.7844 374.797 73.0807C377.248 78.2891 377.994 81.7199 378 87.8058" stroke="#0057FD" stroke-opacity="0.05"/>
<path d="M766.91 175.959C766.91 175.959 779.212 178.704 781.416 184.911C782.727 188.602 780.929 191.416 781.164 195.478C781.423 199.97 780.824 202.935 782.865 206.702C785.57 211.693 791.744 210.447 795.069 215.027C798.308 219.489 795.559 224.668 799.221 228.8C802.216 232.179 806.227 231.546 809.671 234.516C813.276 237.625 814.776 239.979 816.797 244.275C819.248 249.483 819.994 252.914 820 259" stroke="#0057FD" stroke-opacity="0.05"/>
<path d="M274.924 9.95775C274.924 9.95775 287.227 12.7035 289.431 18.9105C290.741 22.6011 288.944 25.4152 289.178 29.4767C289.437 33.9688 288.838 36.9342 290.88 40.7013C293.585 45.6921 299.759 44.4462 303.083 49.0264C306.322 53.4881 303.573 58.6671 307.236 62.7993C310.23 66.178 314.242 65.5449 317.685 68.5146C321.29 71.6236 322.79 73.9777 324.812 78.2741C327.262 83.4824 328.008 86.9132 328.014 92.9992" stroke="#0057FD" stroke-opacity="0.05"/>
<path d="M1035.92 6.95775C1035.92 6.95775 1048.23 9.70352 1050.43 15.9105C1051.74 19.6011 1049.94 22.4152 1050.18 26.4767C1050.44 30.9688 1049.84 33.9342 1051.88 37.7013C1054.58 42.6921 1060.76 41.4462 1064.08 46.0264C1067.32 50.4881 1064.57 55.6671 1068.24 59.7993C1071.23 63.178 1075.24 62.5449 1078.68 65.5146C1082.29 68.6236 1083.79 70.9777 1085.81 75.2741C1088.26 80.4824 1089.01 83.9132 1089.01 89.9992" stroke="#0057FD" stroke-opacity="0.05"/>
<path d="M1102.92 96.9587C1102.92 96.9587 1115.23 99.7045 1117.43 105.911C1118.74 109.602 1116.94 112.416 1117.18 116.478C1117.44 120.97 1116.84 123.935 1118.88 127.702C1121.58 132.693 1127.76 131.447 1131.08 136.027C1134.32 140.489 1131.57 145.668 1135.24 149.8C1138.23 153.179 1142.24 152.546 1145.68 155.516C1149.29 158.625 1150.79 160.979 1152.81 165.275C1155.26 170.483 1156.01 173.914 1156.01 180" stroke="#0057FD" stroke-opacity="0.05"/>
<path d="M1104.92 69.9587C1104.92 69.9587 1117.23 72.7045 1119.43 78.9114C1120.74 82.6021 1118.94 85.4162 1119.18 89.4777C1119.44 93.9697 1118.84 96.9352 1120.88 100.702C1123.58 105.693 1129.76 104.447 1133.08 109.027C1136.32 113.489 1133.57 118.668 1137.24 122.8C1140.23 126.179 1144.24 125.546 1147.68 128.516C1151.29 131.625 1152.79 133.979 1154.81 138.275C1157.26 143.483 1158.01 146.914 1158.01 153" stroke="#0057FD" stroke-opacity="0.05"/>
<path d="M71.9145 97.6841C74.1884 99.2216 76.8799 98.9713 77.7372 101.621C78.6193 104.347 71.3533 112.48 75.8896 110.796C78.2954 109.904 79.4018 107.147 81.8194 106.208C86.3693 104.44 81.0922 111.898 83.0299 113.829C84.7251 115.519 90.8495 112.463 89.8604 115.728C89.3916 117.275 87.3945 118.463 86.8969 120.02C86.1656 122.309 87.6721 122.744 89.1862 123.621C90.8396 124.577 94.2527 122.603 95.0269 124.286C95.7687 125.898 92.2869 128.739 92.8065 130.502C93.4356 132.636 99.1393 131.823 99.1393 131.823C99.1393 131.823 103.209 131.013 103.963 132.301C104.626 133.433 103.029 136.7 103.029 136.7" stroke="#0057FD" stroke-opacity="0.05"/>
<path d="M832.914 94.6841C835.188 96.2216 837.88 95.9713 838.737 98.621C839.619 101.347 832.353 109.48 836.89 107.796C839.295 106.904 840.402 104.147 842.819 103.208C847.369 101.44 842.092 108.898 844.03 110.829C845.725 112.519 851.849 109.463 850.86 112.728C850.392 114.275 848.394 115.463 847.897 117.02C847.166 119.309 848.672 119.744 850.186 120.621C851.84 121.577 855.253 119.603 856.027 121.286C856.769 122.898 853.287 125.739 853.806 127.502C854.436 129.636 860.139 128.823 860.139 128.823C860.139 128.823 864.209 128.013 864.963 129.301C865.626 130.433 864.029 133.7 864.029 133.7" stroke="#0057FD" stroke-opacity="0.05"/>
<path d="M289.851 190.367C293.394 193.495 296.803 194.145 298.922 198.377C301.102 202.731 294.721 211.973 299.99 211.208C302.784 210.802 303.181 207.157 305.973 206.687C311.227 205.802 307.18 214.802 310.434 218.384C313.28 221.517 320.097 219.329 320.045 223.769C320.02 225.873 317.87 226.868 317.812 228.976C317.726 232.075 319.852 233.288 322.155 235.153C324.67 237.19 328.366 235.57 330.011 238.345C331.587 241.004 328.129 243.875 329.473 246.671C331.1 250.056 338.218 251.017 338.218 251.017C338.218 251.017 343.21 251.363 344.679 253.548C345.97 255.468 345.127 259.681 345.127 259.681" stroke="#0057FD" stroke-opacity="0.05"/>
<path d="M1050.85 187.367C1054.39 190.495 1057.8 191.145 1059.92 195.377C1062.1 199.731 1055.72 208.973 1060.99 208.208C1063.78 207.802 1064.18 204.157 1066.97 203.687C1072.23 202.802 1068.18 211.802 1071.43 215.384C1074.28 218.517 1081.1 216.329 1081.05 220.769C1081.02 222.873 1078.87 223.868 1078.81 225.976C1078.73 229.075 1080.85 230.288 1083.16 232.153C1085.67 234.19 1089.37 232.57 1091.01 235.345C1092.59 238.004 1089.13 240.875 1090.47 243.671C1092.1 247.056 1099.22 248.017 1099.22 248.017C1099.22 248.017 1104.21 248.363 1105.68 250.548C1106.97 252.468 1106.13 256.681 1106.13 256.681" stroke="#0057FD" stroke-opacity="0.05"/>
<path d="M95.8511 195.367C99.2655 198.334 102.602 198.893 104.594 202.966C106.644 207.156 100.173 216.286 105.368 215.428C108.123 214.973 108.592 211.417 111.346 210.9C116.529 209.926 112.358 218.771 115.479 222.186C118.209 225.174 124.956 222.898 124.809 227.22C124.74 229.268 122.605 230.282 122.502 232.335C122.351 235.351 124.415 236.486 126.638 238.251C129.066 240.179 132.734 238.524 134.291 241.189C135.783 243.742 132.323 246.61 133.583 249.301C135.11 252.56 142.085 253.342 142.085 253.342C142.085 253.342 146.984 253.572 148.381 255.666C149.608 257.506 148.69 261.625 148.69 261.625" stroke="#0057FD" stroke-opacity="0.05"/>
<path d="M749.02 4.90869C752.111 7.47017 755.265 7.79939 756.934 11.4678C758.652 15.2423 751.956 24.089 756.964 22.9967C759.619 22.4175 760.269 19.0887 762.928 18.4516C767.931 17.2525 763.446 25.703 766.231 28.6968C768.667 31.3159 775.237 28.8183 774.851 32.8401C774.669 34.7461 772.573 35.8096 772.358 37.7213C772.042 40.5314 773.948 41.4675 775.97 42.9804C778.177 44.6325 781.773 42.8866 783.108 45.2725C784.386 47.5584 780.92 50.4189 781.97 52.8465C783.242 55.7861 789.856 56.1153 789.856 56.1153C789.856 56.1153 794.519 56.0497 795.734 57.9148C796.801 59.5539 795.69 63.4305 795.69 63.4305" stroke="#0057FD" stroke-opacity="0.05"/>
<path d="M414.851 21.1724C418.266 24.14 421.602 24.699 423.594 28.7714C425.644 32.9616 419.173 42.0916 424.368 41.2338C427.123 40.7789 427.592 37.2231 430.346 36.7058C435.529 35.7322 431.358 44.5765 434.479 47.9916C437.209 50.9794 443.956 48.7033 443.809 53.0252C443.74 55.0734 441.605 56.0879 441.502 58.1402C441.351 61.157 443.415 62.2916 445.638 64.057C448.066 65.9848 451.734 64.3295 453.291 66.9943C454.783 69.5472 451.323 72.4156 452.583 75.1069C454.11 78.3661 461.085 79.148 461.085 79.148C461.085 79.148 465.984 79.3777 467.381 81.4716C468.608 83.312 467.69 87.4302 467.69 87.4302" stroke="#0057FD" stroke-opacity="0.05"/>
<path d="M856.851 192.367C860.266 195.334 863.602 195.893 865.594 199.966C867.644 204.156 861.173 213.286 866.368 212.428C869.123 211.973 869.592 208.417 872.346 207.9C877.529 206.926 873.358 215.771 876.479 219.186C879.209 222.174 885.956 219.898 885.809 224.22C885.74 226.268 883.605 227.282 883.502 229.335C883.351 232.351 885.415 233.486 887.638 235.251C890.066 237.179 893.734 235.524 895.291 238.189C896.783 240.742 893.323 243.61 894.583 246.301C896.11 249.56 903.085 250.342 903.085 250.342C903.085 250.342 907.984 250.572 909.381 252.666C910.608 254.506 909.69 258.625 909.69 258.625" stroke="#0057FD" stroke-opacity="0.05"/>
<path d="M106.851 188.367C110.63 191.791 114.173 192.609 116.528 197.136C118.95 201.794 112.734 211.243 118.139 210.649C121.006 210.334 121.27 206.522 124.132 206.14C129.518 205.42 125.7 214.708 129.199 218.597C132.26 222 139.205 219.973 139.328 224.632C139.387 226.841 137.208 227.8 137.231 230.01C137.266 233.26 139.508 234.618 141.958 236.667C144.633 238.905 148.382 237.352 150.189 240.331C151.921 243.184 148.468 246.061 149.965 249.05C151.778 252.668 159.159 253.96 159.159 253.96C159.159 253.96 164.323 254.521 165.925 256.873C167.334 258.94 166.632 263.33 166.632 263.33" stroke="#0057FD" stroke-opacity="0.05"/>
<path d="M763.903 3.95556C767.365 6.98176 770.728 7.57396 772.766 11.7046C774.863 15.9549 768.426 25.1258 773.647 24.3018C776.417 23.8648 776.859 20.2762 779.627 19.7762C784.836 18.8351 780.71 27.7362 783.88 31.2122C786.653 34.2531 793.425 32.009 793.313 36.3742C793.26 38.4429 791.119 39.4503 791.033 41.5229C790.906 44.5695 792.992 45.7328 795.244 47.5346C797.704 49.5022 801.382 47.86 802.971 50.565C804.494 53.1565 801.035 56.026 802.326 58.7554C803.889 62.0606 810.916 62.9079 810.916 62.9079C810.916 62.9079 815.849 63.1801 817.272 65.3071C818.523 67.1765 817.632 71.3296 817.632 71.3296" stroke="#0057FD" stroke-opacity="0.05"/>
<path d="M425.851 14.1724C429.63 17.597 433.173 18.4146 435.528 22.9417C437.95 27.5997 431.734 37.0486 437.139 36.4546C440.006 36.1396 440.27 32.3281 443.132 31.9457C448.518 31.2258 444.7 40.5133 448.199 44.4026C451.26 47.8053 458.205 45.7785 458.328 50.4381C458.387 52.6463 456.208 53.6055 456.231 55.8161C456.266 59.0655 458.508 60.4234 460.958 62.473C463.633 64.7112 467.382 63.1578 469.189 66.1363C470.921 68.9899 467.468 71.867 468.965 74.8552C470.778 78.4738 478.159 79.7653 478.159 79.7653C478.159 79.7653 483.323 80.3272 484.925 82.6788C486.334 84.7456 485.632 89.1357 485.632 89.1357" stroke="#0057FD" stroke-opacity="0.05"/>
<path d="M867.851 185.367C871.63 188.791 875.173 189.609 877.528 194.136C879.95 198.794 873.734 208.243 879.139 207.649C882.006 207.334 882.27 203.522 885.132 203.14C890.518 202.42 886.7 211.708 890.199 215.597C893.26 219 900.205 216.973 900.328 221.632C900.387 223.841 898.208 224.8 898.231 227.01C898.266 230.26 900.508 231.618 902.958 233.667C905.633 235.905 909.382 234.352 911.189 237.331C912.921 240.184 909.468 243.061 910.965 246.05C912.778 249.668 920.159 250.96 920.159 250.96C920.159 250.96 925.323 251.521 926.925 253.873C928.334 255.94 927.632 260.33 927.632 260.33" stroke="#0057FD" stroke-opacity="0.05"/>
<path d="M91.8512 14.3667C98.261 21.0905 103.293 23.7751 108.265 31.5841C113.38 39.6192 109 51.3698 115.924 52.6803C119.596 53.3753 118.389 47.719 122.027 48.3099C128.874 49.4221 127.607 61.9087 133.836 69.2211C139.285 75.6184 147.666 75.3912 149.733 82.4889C150.713 85.8526 148.215 86.4128 149.15 89.7659C150.524 94.6946 154.051 97.6645 158.137 101.765C162.599 106.244 166.935 105.427 170.548 110.67C174.01 115.693 170.608 118.634 173.814 123.765C177.697 129.979 188.012 134.949 188.012 134.949C188.012 134.949 195.088 137.909 198.173 142.12C200.885 145.822 201.749 152.175 201.749 152.175" stroke="#0057FD" stroke-opacity="0.05"/>
<path d="M322.382 85.4233C328.792 92.1472 333.824 94.8318 338.796 102.641C343.912 110.676 339.531 122.426 346.455 123.737C350.127 124.432 348.92 118.776 352.558 119.367C359.405 120.479 358.138 132.965 364.367 140.278C369.817 146.675 378.197 146.448 380.264 153.546C381.244 156.909 378.747 157.469 379.681 160.823C381.055 165.751 384.583 168.721 388.668 172.822C393.13 177.301 397.466 176.483 401.08 181.727C404.542 186.75 401.139 189.691 404.345 194.822C408.228 201.036 418.543 206.006 418.543 206.006C418.543 206.006 425.619 208.966 428.705 213.177C431.416 216.879 432.28 223.232 432.28 223.232" stroke="#0057FD" stroke-opacity="0.05"/>
<path d="M852.851 11.3667C859.261 18.0905 864.293 20.7751 869.265 28.5841C874.38 36.6192 870 48.3698 876.924 49.6803C880.596 50.3753 879.389 44.719 883.027 45.3099C889.874 46.4221 888.607 58.9087 894.836 66.2211C900.285 72.6184 908.666 72.3912 910.733 79.4889C911.713 82.8526 909.215 83.4128 910.15 86.7659C911.524 91.6946 915.051 94.6645 919.137 98.7654C923.599 103.244 927.935 102.427 931.548 107.67C935.01 112.693 931.608 115.634 934.814 120.765C938.697 126.979 949.012 131.949 949.012 131.949C949.012 131.949 956.088 134.909 959.173 139.12C961.885 142.822 962.749 149.175 962.749 149.175" stroke="#0057FD" stroke-opacity="0.05"/>
<path d="M311.851 11.3667C314.125 12.9042 316.817 12.6539 317.674 15.3036C318.556 18.03 311.29 26.1623 315.826 24.4789C318.232 23.5862 319.339 20.8301 321.756 19.8908C326.306 18.1231 321.029 25.5806 322.967 27.512C324.662 29.2016 330.786 26.1454 329.797 29.4105C329.328 30.9578 327.331 32.1452 326.834 33.7024C326.102 35.9912 327.609 36.427 329.123 37.3031C330.776 38.2599 334.189 36.2856 334.964 37.9685C335.705 39.5809 332.224 42.4218 332.743 44.1842C333.372 46.3183 339.076 45.5057 339.076 45.5057C339.076 45.5057 343.146 44.6959 343.9 45.9836C344.562 47.1154 342.965 50.3827 342.965 50.3827" stroke="#0057FD" stroke-opacity="0.05"/>
<path d="M1072.85 8.36669C1075.13 9.90417 1077.82 9.65393 1078.67 12.3036C1079.56 15.03 1072.29 23.1623 1076.83 21.4789C1079.23 20.5862 1080.34 17.8301 1082.76 16.8908C1087.31 15.1231 1082.03 22.5806 1083.97 24.512C1085.66 26.2016 1091.79 23.1454 1090.8 26.4105C1090.33 27.9578 1088.33 29.1452 1087.83 30.7024C1087.1 32.9912 1088.61 33.427 1090.12 34.3031C1091.78 35.2599 1095.19 33.2856 1095.96 34.9685C1096.71 36.5809 1093.22 39.4218 1093.74 41.1842C1094.37 43.3183 1100.08 42.5057 1100.08 42.5057C1100.08 42.5057 1104.15 41.6959 1104.9 42.9836C1105.56 44.1154 1103.97 47.3827 1103.97 47.3827" stroke="#0057FD" stroke-opacity="0.05"/>
<path d="M1100.85 6.36669C1104.6 9.74861 1108.12 10.5421 1110.44 15.0266C1112.83 19.641 1106.59 29.06 1111.97 28.4414C1114.83 28.1133 1115.11 24.3258 1117.97 23.9307C1123.33 23.1872 1119.48 32.4332 1122.94 36.2783C1125.98 39.6421 1132.9 37.592 1133 42.2201C1133.05 44.4134 1130.87 45.3777 1130.88 47.5736C1130.9 50.8012 1133.13 52.1382 1135.55 54.1612C1138.21 56.3704 1141.95 54.8075 1143.73 57.7567C1145.44 60.5822 1141.99 63.4585 1143.46 66.419C1145.25 70.004 1152.59 71.2479 1152.59 71.2479C1152.59 71.2479 1157.73 71.7787 1159.31 74.1063C1160.71 76.1519 1159.98 80.5166 1159.98 80.5166" stroke="#0057FD" stroke-opacity="0.05"/>
<path d="M1112.85 4.36669C1116.08 7.10424 1119.32 7.5331 1121.12 11.3766C1122.99 15.3314 1116.39 24.3009 1121.48 23.3103C1124.18 22.7849 1124.75 19.3577 1127.45 18.7725C1132.53 17.6712 1128.18 26.2924 1131.11 29.4689C1133.67 32.2478 1140.32 29.8463 1140.04 33.9982C1139.9 35.9658 1137.79 37.008 1137.63 38.9807C1137.38 41.8804 1139.36 42.9026 1141.46 44.5249C1143.77 46.2966 1147.39 44.5899 1148.83 47.0968C1150.2 49.4984 1146.73 52.3624 1147.87 54.9043C1149.26 57.9824 1156.03 58.5078 1156.03 58.5078C1156.03 58.5078 1160.79 58.5703 1162.09 60.5346C1163.22 62.261 1162.2 66.2423 1162.2 66.2423" stroke="#0057FD" stroke-opacity="0.05"/>
<path d="M1124.85 2.36669C1127.47 4.33349 1130.35 4.32619 1131.55 7.40298C1132.78 10.5688 1125.76 19.0006 1130.49 17.5651C1133 16.8038 1133.92 13.8076 1136.43 12.995C1141.17 11.4656 1136.23 19.3395 1138.52 21.7163C1140.53 23.7956 1146.84 20.9736 1146.1 24.5559C1145.75 26.2536 1143.72 27.3891 1143.34 29.0949C1142.78 31.6022 1144.45 32.2478 1146.18 33.3909C1148.07 34.6392 1151.56 32.7606 1152.56 34.7383C1153.53 36.633 1150.06 39.4822 1150.8 41.5234C1151.7 43.9953 1157.78 43.6614 1157.78 43.6614C1157.78 43.6614 1162.1 43.1636 1163.05 44.6934C1163.88 46.0379 1162.49 49.5606 1162.49 49.5606" stroke="#0057FD" stroke-opacity="0.05"/>
<path d="M1139.73 3.97412C1141.51 4.89993 1143.93 4.30358 1144.3 6.34482C1144.68 8.44515 1137.08 16.1506 1141.33 14.1142C1143.59 13.0342 1144.97 10.6202 1147.24 9.50043C1151.52 7.39303 1145.77 14.2575 1147.2 15.5542C1148.46 16.6887 1154.31 13.2988 1152.96 16.1119C1152.32 17.445 1150.39 18.7064 1149.72 20.0517C1148.74 22.0292 1150.01 22.1662 1151.22 22.662C1152.54 23.2034 1155.85 21.0926 1156.29 22.3557C1156.71 23.5657 1153.22 26.3949 1153.42 27.7599C1153.66 29.4129 1158.82 27.9184 1158.82 27.9184C1158.82 27.9184 1162.54 26.664 1163.02 27.6069C1163.44 28.4357 1161.55 31.339 1161.55 31.339" stroke="#0057FD" stroke-opacity="0.05"/>
<path d="M1103.94 121.699C1107.37 124.683 1110.71 125.252 1112.72 129.341C1114.78 133.549 1108.32 142.691 1113.52 141.843C1116.28 141.393 1116.74 137.828 1119.5 137.316C1124.69 136.352 1120.53 145.213 1123.67 148.645C1126.41 151.649 1133.16 149.382 1133.03 153.716C1132.96 155.771 1130.83 156.783 1130.73 158.841C1130.59 161.867 1132.66 163.01 1134.89 164.786C1137.32 166.725 1140.99 165.074 1142.56 167.75C1144.06 170.314 1140.6 173.183 1141.87 175.885C1143.41 179.158 1150.4 179.959 1150.4 179.959C1150.4 179.959 1155.31 180.201 1156.71 182.305C1157.95 184.153 1157.04 188.282 1157.04 188.282" stroke="#0057FD" stroke-opacity="0.05"/>
<path d="M387.851 5.36669C390.764 7.70524 393.817 7.90832 395.31 11.3549C396.846 14.9013 390.025 23.5924 394.931 22.3715C397.532 21.724 398.281 18.5199 400.887 17.817C405.792 16.4941 401.134 24.7284 403.735 27.4909C406.01 29.9077 412.483 27.2885 411.965 31.1455C411.72 32.9734 409.646 34.0639 409.37 35.8985C408.964 38.595 410.782 39.4223 412.693 40.7965C414.781 42.2972 418.336 40.5016 419.549 42.7345C420.711 44.8737 417.242 47.73 418.176 50.0127C419.308 52.777 425.724 52.8576 425.724 52.8576C425.724 52.8576 430.258 52.63 431.372 54.3694C432.351 55.8981 431.134 59.642 431.134 59.642" stroke="#0057FD" stroke-opacity="0.05"/>
<path d="M400.94 5.68505C404.426 8.74186 407.803 9.35137 409.866 13.5125C411.988 17.794 405.567 26.9863 410.803 26.18C413.58 25.7524 414.009 22.1466 416.784 21.6556C422.006 20.7316 417.904 29.6624 421.099 33.1701C423.894 36.2388 430.679 34.0114 430.585 38.3992C430.541 40.4786 428.397 41.4823 428.319 43.5655C428.205 46.6277 430.303 47.8059 432.571 49.6267C435.047 51.6152 438.73 49.9797 440.336 52.7057C441.875 55.3174 438.416 58.1874 439.723 60.9367C441.305 64.266 448.36 65.1474 448.36 65.1474C448.36 65.1474 453.31 65.4419 454.747 67.5862C456.01 69.4707 455.134 73.642 455.134 73.642" stroke="#0057FD" stroke-opacity="0.05"/>
<path d="M414.03 6.00341C418.525 10.326 422.473 11.6518 425.54 17.0721C428.695 22.6492 422.979 32.7246 428.797 32.6489C431.883 32.6088 431.747 28.2952 434.82 28.1777C440.604 27.9565 437.48 38.1147 441.722 42.9357C445.433 47.1534 452.769 45.6164 453.421 50.9396C453.731 53.4623 451.465 54.3129 451.736 56.8345C452.136 60.5409 454.727 62.3375 457.622 64.9454C460.784 67.7934 464.692 66.4403 466.991 70.0353C469.194 73.4794 465.755 76.3738 467.717 79.9453C470.093 84.2703 478.273 86.5629 478.273 86.5629C478.273 86.5629 483.958 87.7775 485.964 90.6353C487.727 93.147 487.451 98.0714 487.451 98.0714" stroke="#0057FD" stroke-opacity="0.05"/>
<path d="M427.119 6.32177C431.256 10.1949 435.001 11.2664 437.711 16.2397C440.5 21.3568 434.534 31.1186 440.145 30.7836C443.121 30.6059 443.186 26.5436 446.153 26.2935C451.737 25.8228 448.266 35.5452 452.137 39.8999C455.523 43.7097 462.663 41.9275 463.05 46.9187C463.234 49.284 461.011 50.1889 461.159 52.5549C461.376 56.0326 463.792 57.6096 466.465 59.9381C469.383 62.4809 473.211 61.0275 475.264 64.314C477.231 67.4626 473.785 70.3483 475.515 73.6279C477.609 77.5994 485.389 79.391 485.389 79.391C485.389 79.391 490.813 80.2788 492.617 82.8833C494.203 85.1724 493.714 89.8294 493.714 89.8294" stroke="#0057FD" stroke-opacity="0.05"/>
<path d="M440.208 6.64013C445.006 11.3422 449.126 12.8828 452.493 18.6806C455.959 24.6463 450.453 34.9864 456.447 35.1298C459.625 35.2059 459.32 30.6801 462.482 30.6745C468.434 30.6641 465.604 41.1903 470.16 46.405C474.146 50.9672 481.647 49.6372 482.522 55.2409C482.938 57.8966 480.635 58.7012 481.012 61.3542C481.565 65.2538 484.304 67.2359 487.388 70.0798C490.755 73.1854 494.731 71.917 497.238 75.7726C499.639 79.4663 496.206 82.368 498.365 86.186C500.979 90.8095 509.497 93.5253 509.497 93.5253C509.497 93.5253 515.401 95.0157 517.577 98.0875C519.49 100.787 519.395 105.937 519.395 105.937" stroke="#0057FD" stroke-opacity="0.05"/>
<path d="M453.298 6.95849C458.8 12.5445 463.319 14.5852 467.388 21.2623C471.574 28.1327 466.561 39.0895 472.961 39.7432C476.355 40.0898 475.656 35.0698 479.026 35.325C485.369 35.8054 483.222 47.1886 488.51 53.3205C493.136 58.685 501.021 57.8371 502.418 64.094C503.08 67.0592 500.692 67.757 501.313 70.716C502.225 75.0656 505.309 77.4795 508.83 80.873C512.676 84.5788 516.809 83.5076 519.8 87.9699C522.665 92.245 519.245 95.1637 521.862 99.5559C525.031 104.875 534.334 108.576 534.334 108.576C534.334 108.576 540.751 110.709 543.325 114.279C545.587 117.417 545.911 123.093 545.911 123.093" stroke="#0057FD" stroke-opacity="0.05"/>
<path d="M466.387 7.27685C471.808 12.7613 476.281 14.7446 480.27 21.3208C484.374 28.0873 479.304 38.9732 485.657 39.5683C489.026 39.8839 488.373 34.9206 491.719 35.1459C498.017 35.5699 495.792 46.8548 500.995 52.8813C505.547 58.1536 513.389 57.2504 514.726 63.4323C515.359 66.362 512.981 67.072 513.574 69.9959C514.445 74.2938 517.489 76.6582 520.96 79.9885C524.751 83.6254 528.866 82.5316 531.801 86.9242C534.613 91.1326 531.192 94.0492 533.756 98.3755C536.861 103.614 546.075 107.203 546.075 107.203C546.075 107.203 552.432 109.262 554.961 112.775C557.183 115.862 557.458 121.478 557.458 121.478" stroke="#0057FD" stroke-opacity="0.05"/>
<path d="M479.476 7.59521C485.381 13.6861 490.128 16.0125 494.597 23.1919C499.196 30.5791 494.463 41.8881 501.096 42.8332C504.613 43.3344 503.689 38.032 507.178 38.4362C513.744 39.197 511.988 51.0698 517.694 57.7255C522.685 63.5482 530.79 62.9758 532.484 69.6058C533.287 72.7478 530.851 73.3845 531.611 76.5184C532.728 81.1249 536.008 83.7856 539.78 87.493C543.899 91.5416 548.123 90.5831 551.39 95.392C554.52 99.9992 551.108 102.927 553.986 107.648C557.472 113.364 567.224 117.628 567.224 117.628C567.224 117.628 573.933 120.128 576.734 123.982C579.196 127.37 579.759 133.347 579.759 133.347" stroke="#0057FD" stroke-opacity="0.05"/>
<path d="M492.566 7.91357C498.404 13.9207 503.112 16.1997 507.515 23.2958C512.046 30.5972 507.267 41.8478 513.861 42.7446C517.358 43.2202 516.471 37.9646 519.94 38.3441C526.469 39.0583 524.648 50.85 530.284 57.4187C535.215 63.1655 543.284 62.5474 544.929 69.1155C545.708 72.2282 543.28 72.875 544.017 75.9799C545.1 80.5438 548.348 83.1635 552.078 86.8188C556.152 90.8106 560.36 89.8334 563.581 94.5848C566.667 99.1369 563.254 102.064 566.089 106.729C569.522 112.379 579.2 116.55 579.2 116.55C579.2 116.55 585.86 118.989 588.624 122.797C591.052 126.143 591.576 132.07 591.576 132.07" stroke="#0057FD" stroke-opacity="0.05"/>
<path d="M505.655 8.23193C512.315 15.2696 517.489 18.1318 522.709 26.2531C528.081 34.6094 523.875 46.579 530.944 48.0707C534.692 48.8618 533.346 43.0299 537.057 43.7135C544.043 45 543.019 57.7909 549.508 65.4289C555.184 72.1111 563.701 72.0552 565.954 79.3849C567.021 82.8585 564.493 83.3806 565.515 86.8424C567.016 91.9309 570.666 95.0541 574.907 99.3503C579.539 104.042 583.93 103.294 587.716 108.753C591.342 113.983 587.945 116.93 591.314 122.265C595.393 128.726 605.987 134.046 605.987 134.046C605.987 134.046 613.245 137.234 616.472 141.622C619.308 145.479 620.32 152.019 620.32 152.019" stroke="#0057FD" stroke-opacity="0.05"/>
<path d="M518.744 8.55029C526.059 16.4094 531.604 19.7364 537.476 28.6748C543.518 37.8719 539.769 50.4146 547.216 52.3805C551.165 53.423 549.452 47.1318 553.357 48.0577C560.707 49.8003 560.318 63.3878 567.486 71.8781C573.757 79.3058 582.632 79.698 585.368 87.6346C586.665 91.3959 584.058 91.8188 585.306 95.565C587.141 101.072 591.11 104.596 595.759 109.403C600.836 114.652 605.373 114.088 609.609 120.111C613.666 125.881 610.281 128.844 614.075 134.712C618.67 141.819 629.995 148.055 629.995 148.055C629.995 148.055 637.729 151.84 641.325 156.692C644.485 160.956 645.888 167.984 645.888 167.984" stroke="#0057FD" stroke-opacity="0.05"/>
<path d="M531.833 8.86865C539.035 16.5858 544.516 19.8325 550.275 28.6296C556.202 37.6814 552.374 50.1251 559.755 52.0089C563.669 53.008 562.02 46.7962 565.892 47.6802C573.178 49.344 572.68 62.7938 579.73 71.1368C585.899 78.4357 594.711 78.7504 597.364 86.5821C598.621 90.2937 596.028 90.7337 597.237 94.4308C599.014 99.8651 602.928 103.32 607.507 108.039C612.506 113.192 617.019 112.596 621.176 118.521C625.159 124.198 621.772 127.158 625.493 132.934C629.999 139.93 641.197 146.007 641.197 146.007C641.197 146.007 648.849 149.689 652.381 154.46C655.485 158.654 656.82 165.598 656.82 165.598" stroke="#0057FD" stroke-opacity="0.05"/>
<path d="M544.923 9.18701C549.329 13.3986 553.227 14.6616 556.206 19.9715C559.271 25.4351 553.493 35.433 559.26 35.2933C562.319 35.2192 562.233 30.9677 565.279 30.8175C571.014 30.5346 567.804 40.5852 571.955 45.2911C575.586 49.408 582.873 47.8105 583.46 53.0517C583.738 55.5356 581.483 56.3996 581.724 58.8827C582.078 62.5327 584.627 64.2751 587.467 66.814C590.568 69.5866 594.457 68.2088 596.695 71.7276C598.839 75.0987 595.399 77.991 597.303 81.4904C599.61 85.7281 607.691 87.897 607.691 87.897C607.691 87.897 613.311 89.0309 615.267 91.8262C616.987 94.2829 616.658 99.1413 616.658 99.1413" stroke="#0057FD" stroke-opacity="0.05"/>
<path d="M611.851 102.367C615.337 105.423 618.714 106.033 620.776 110.194C622.899 114.476 616.478 123.668 621.714 122.862C624.49 122.434 624.919 118.828 627.694 118.337C632.917 117.413 628.815 126.344 632.01 129.852C634.805 132.92 641.59 130.693 641.496 135.081C641.452 137.16 639.308 138.164 639.23 140.247C639.115 143.309 641.214 144.488 643.481 146.308C645.958 148.297 649.641 146.661 651.247 149.387C652.786 151.999 649.327 154.869 650.634 157.618C652.216 160.948 659.27 161.829 659.27 161.829C659.27 161.829 664.221 162.124 665.658 164.268C666.921 166.152 666.045 170.324 666.045 170.324" stroke="#0057FD" stroke-opacity="0.05"/>
<path d="M558.012 9.50537C562.627 13.9782 566.643 15.3889 569.829 20.9587C573.107 26.6896 567.474 36.8697 573.362 36.8808C576.484 36.8867 576.281 32.4891 579.39 32.4159C585.239 32.2781 582.232 42.5819 586.598 47.5588C590.418 51.9128 597.82 50.4578 598.56 55.892C598.911 58.4673 596.631 59.2997 596.944 61.8733C597.404 65.6562 600.055 67.5263 603.024 70.2276C606.267 73.1775 610.202 71.8579 612.584 75.556C614.865 79.099 611.428 81.9962 613.468 85.6653C615.939 90.1085 624.252 92.5686 624.252 92.5686C624.252 92.5686 630.024 93.8923 632.097 96.8348C633.919 99.421 633.715 104.435 633.715 104.435" stroke="#0057FD" stroke-opacity="0.05"/>
<path d="M624.94 102.685C628.426 105.742 631.803 106.351 633.866 110.512C635.988 114.794 629.567 123.986 634.803 123.18C637.58 122.752 638.009 119.147 640.784 118.656C646.006 117.732 641.904 126.662 645.099 130.17C647.894 133.239 654.679 131.011 654.585 135.399C654.541 137.479 652.397 138.482 652.319 140.566C652.205 143.628 654.303 144.806 656.571 146.627C659.047 148.615 662.73 146.98 664.336 149.706C665.875 152.317 662.416 155.187 663.723 157.937C665.305 161.266 672.36 162.147 672.36 162.147C672.36 162.147 677.31 162.442 678.747 164.586C680.01 166.471 679.134 170.642 679.134 170.642" stroke="#0057FD" stroke-opacity="0.05"/>
<path d="M571.101 9.82373C575.773 14.3685 579.822 15.8201 583.065 21.4614C586.402 27.2661 580.809 37.4965 586.73 37.5491C589.87 37.577 589.635 33.1392 592.76 33.0872C598.642 32.9894 595.69 43.3631 600.116 48.4147C603.989 52.8341 611.421 51.4183 612.204 56.9058C612.575 59.5063 610.288 60.33 610.621 62.9286C611.111 66.7481 613.789 68.6533 616.794 71.3994C620.076 74.3983 624.024 73.0948 626.445 76.8423C628.764 80.4326 625.328 83.3313 627.406 87.0471C629.921 91.5469 638.299 94.0873 638.299 94.0873C638.299 94.0873 644.112 95.4634 646.218 98.4466C648.069 101.068 647.898 106.125 647.898 106.125" stroke="#0057FD" stroke-opacity="0.05"/>
<path d="M638.03 103.003C642.916 107.816 647.085 109.419 650.541 115.327C654.096 121.406 648.653 131.823 654.697 132.031C657.902 132.141 657.548 127.553 660.736 127.58C666.736 127.631 663.992 138.265 668.64 143.594C672.706 148.257 680.255 146.987 681.196 152.673C681.642 155.367 679.329 156.158 679.736 158.85C680.334 162.806 683.117 164.842 686.255 167.755C689.682 170.935 693.678 169.692 696.245 173.623C698.705 177.39 695.273 180.293 697.489 184.183C700.173 188.894 708.789 191.733 708.789 191.733C708.789 191.733 714.757 193.304 716.984 196.438C718.94 199.193 718.897 204.409 718.897 204.409" stroke="#0057FD" stroke-opacity="0.05"/>
<path d="M584.191 10.1421C588.798 14.6051 592.809 16.0104 595.987 21.5704C599.258 27.2913 593.619 37.4647 599.502 37.4701C602.622 37.473 602.424 33.0809 605.53 33.0048C611.376 32.8616 608.361 43.1559 612.719 48.1227C616.532 52.4678 623.929 51.0075 624.664 56.4345C625.012 59.0064 622.733 59.84 623.043 62.4102C623.499 66.1881 626.146 68.0534 629.111 70.7486C632.348 73.6919 636.282 72.3702 638.658 76.0616C640.934 79.5981 637.497 82.4952 639.532 86.1579C641.996 90.5934 650.301 93.0426 650.301 93.0426C650.301 93.0426 656.067 94.3593 658.136 97.2963C659.954 99.8776 659.745 104.886 659.745 104.886" stroke="#0057FD" stroke-opacity="0.05"/>
<path d="M651.119 103.322C655.44 107.426 659.29 108.628 662.183 113.831C665.16 119.185 659.322 129.107 665.04 128.906C668.072 128.799 668.034 124.607 671.056 124.425C676.742 124.083 673.45 134.029 677.511 138.623C681.064 142.643 688.305 140.987 688.828 146.148C689.077 148.595 686.832 149.472 687.043 151.918C687.354 155.513 689.86 157.203 692.647 159.675C695.69 162.374 699.56 160.973 701.739 164.418C703.827 167.718 700.385 170.608 702.234 174.038C704.473 178.191 712.459 180.24 712.459 180.24C712.459 180.24 718.016 181.296 719.924 184.03C721.601 186.434 721.222 191.228 721.222 191.228" stroke="#0057FD" stroke-opacity="0.05"/>
<path d="M597.28 10.4604C602.122 15.2189 606.267 16.7913 609.68 22.6452C613.191 28.6685 607.717 39.0479 613.736 39.2239C616.928 39.3172 616.599 34.7599 619.774 34.771C625.75 34.7918 622.964 45.3726 627.567 50.6458C631.593 55.2591 639.119 53.9599 640.028 59.6052C640.459 62.2806 638.151 63.0784 638.543 65.7509C639.119 69.6792 641.88 71.6888 644.992 74.5677C648.389 77.7116 652.375 76.4558 654.913 80.35C657.344 84.0808 653.912 86.9835 656.1 90.8382C658.749 95.506 667.317 98.2846 667.317 98.2846C667.317 98.2846 673.254 99.816 675.456 102.92C677.391 105.647 677.322 110.831 677.322 110.831" stroke="#0057FD" stroke-opacity="0.05"/>
<path d="M664.208 103.64C669.923 109.493 674.562 111.684 678.842 118.626C683.247 125.769 678.381 136.912 684.904 137.719C688.363 138.148 687.546 132.979 690.978 133.313C697.439 133.941 695.499 145.582 701.006 151.991C705.825 157.597 713.827 156.895 715.38 163.348C716.117 166.407 713.703 167.072 714.397 170.124C715.418 174.609 718.605 177.153 722.259 180.712C726.249 184.599 730.43 183.587 733.566 188.232C736.571 192.683 733.156 195.606 735.91 200.172C739.246 205.7 748.787 209.698 748.787 209.698C748.787 209.698 755.358 212.025 758.051 215.745C760.419 219.015 760.869 224.85 760.869 224.85" stroke="#0057FD" stroke-opacity="0.05"/>
<path d="M610.369 10.7788C614.919 15.17 618.898 16.5346 622.019 22.0231C625.231 27.6705 619.552 37.7937 625.403 37.7577C628.505 37.7385 628.339 33.3866 631.428 33.2893C637.241 33.1062 634.171 43.3309 638.47 48.2231C642.231 52.503 649.597 51.0035 650.289 56.3774C650.617 58.9241 648.345 59.7664 648.635 62.3117C649.063 66.0531 651.681 67.8832 654.61 70.5338C657.809 73.4283 661.73 72.0906 664.066 75.7326C666.305 79.2219 662.867 82.1176 664.864 85.7336C667.284 90.1126 675.525 92.4817 675.525 92.4817C675.525 92.4817 681.249 93.7461 683.285 96.6426C685.076 99.1883 684.833 104.154 684.833 104.154" stroke="#0057FD" stroke-opacity="0.05"/>
<path d="M677.298 103.958C682.679 109.393 687.129 111.348 691.078 117.874C695.141 124.589 690.043 135.44 696.373 136.006C699.73 136.306 699.099 131.371 702.433 131.581C708.709 131.977 706.445 143.213 711.607 149.188C716.123 154.414 723.942 153.484 725.249 159.629C725.869 162.541 723.496 163.257 724.074 166.163C724.925 170.436 727.95 172.775 731.396 176.074C735.16 179.677 739.266 178.572 742.173 182.93C744.959 187.106 741.537 190.021 744.075 194.315C747.149 199.514 756.317 203.046 756.317 203.046C756.317 203.046 762.646 205.069 765.151 208.554C767.354 211.616 767.606 217.202 767.606 217.202" stroke="#0057FD" stroke-opacity="0.05"/>
<path d="M623.458 11.0972C628.159 15.6782 632.224 17.1502 635.496 22.8275C638.863 28.6692 633.29 38.9248 639.227 38.9984C642.376 39.0374 642.125 34.5793 645.259 34.538C651.157 34.4603 648.233 44.8691 652.689 49.9582C656.587 54.4104 664.036 53.0144 664.84 58.5286C665.221 61.1418 662.931 61.9611 663.274 64.5722C663.778 68.4102 666.47 70.3331 669.493 73.1016C672.795 76.1251 676.749 74.8296 679.19 78.602C681.528 82.2161 678.093 85.1155 680.189 88.8548C682.727 93.3831 691.137 95.9638 691.137 95.9638C691.137 95.9638 696.971 97.3662 699.093 100.37C700.958 103.009 700.805 108.088 700.805 108.088" stroke="#0057FD" stroke-opacity="0.05"/>
<path d="M690.387 104.277C694.945 108.679 698.929 110.049 702.059 115.549C705.279 121.207 699.607 131.338 705.462 131.308C708.567 131.292 708.396 126.934 711.487 126.84C717.306 126.663 714.244 136.898 718.551 141.801C722.32 146.091 729.69 144.597 730.389 149.979C730.721 152.529 728.447 153.37 728.741 155.919C729.172 159.666 731.795 161.502 734.729 164.159C737.934 167.061 741.856 165.725 744.199 169.375C746.443 172.871 743.005 175.767 745.008 179.39C747.434 183.777 755.685 186.158 755.685 186.158C755.685 186.158 761.415 187.431 763.457 190.333C765.251 192.884 765.013 197.856 765.013 197.856" stroke="#0057FD" stroke-opacity="0.05"/>
<path d="M636.548 11.4155C641.168 15.8954 645.187 17.3102 648.379 22.8869C651.663 28.6251 646.034 38.8102 651.925 38.8253C655.049 38.8334 654.843 34.4319 657.953 34.3607C663.806 34.2269 660.804 44.5376 665.176 49.5218C669.001 53.8822 676.406 52.431 677.151 57.8705C677.504 60.4483 675.223 61.2798 675.538 63.8559C676.001 67.6424 678.654 69.5159 681.627 72.2216C684.874 75.1763 688.81 73.8583 691.195 77.5613C693.48 81.1089 690.044 84.0063 692.087 87.68C694.562 92.1287 702.882 94.5967 702.882 94.5967C702.882 94.5967 708.657 95.9255 710.734 98.8721C712.559 101.462 712.358 106.48 712.358 106.48" stroke="#0057FD" stroke-opacity="0.05"/>
<path d="M703.476 104.595C706.962 107.652 710.339 108.262 712.401 112.423C714.524 116.704 708.103 125.896 713.339 125.09C716.116 124.663 716.544 121.057 719.319 120.566C724.542 119.642 720.44 128.573 723.635 132.08C726.43 135.149 733.215 132.922 733.121 137.309C733.077 139.389 730.933 140.392 730.855 142.476C730.741 145.538 732.839 146.716 735.106 148.537C737.583 150.525 741.266 148.89 742.872 151.616C744.411 154.228 740.952 157.098 742.259 159.847C743.841 163.176 750.896 164.058 750.896 164.058C750.896 164.058 755.846 164.352 757.283 166.496C758.546 168.381 757.67 172.552 757.67 172.552" stroke="#0057FD" stroke-opacity="0.05"/>
<path d="M649.637 11.7339C655.988 18.3842 660.987 21.0272 665.9 28.763C670.956 36.7228 666.535 48.4221 673.425 49.6902C677.079 50.3627 675.905 44.7474 679.525 45.3167C686.34 46.3881 685.016 58.8033 691.184 66.0394C696.58 72.37 704.929 72.1027 706.953 79.1461C707.912 82.484 705.422 83.0531 706.336 86.3807C707.68 91.272 711.179 94.2059 715.228 98.2612C719.65 102.69 723.973 101.856 727.546 107.049C730.97 112.024 727.566 114.963 730.734 120.047C734.571 126.203 744.82 131.091 744.82 131.091C744.82 131.091 751.854 133.997 754.906 138.167C757.589 141.832 758.418 148.141 758.418 148.141" stroke="#0057FD" stroke-opacity="0.05"/>
<path d="M716.566 104.914C720.051 107.97 723.428 108.58 725.491 112.741C727.613 117.023 721.192 126.215 726.428 125.408C729.205 124.981 729.634 121.375 732.409 120.884C737.631 119.96 733.529 128.891 736.724 132.399C739.519 135.467 746.304 133.24 746.211 137.628C746.166 139.707 744.022 140.711 743.944 142.794C743.83 145.856 745.928 147.034 748.196 148.855C750.672 150.844 754.355 149.208 755.961 151.934C757.5 154.546 754.041 157.416 755.348 160.165C756.93 163.495 763.985 164.376 763.985 164.376C763.985 164.376 768.935 164.67 770.372 166.815C771.635 168.699 770.759 172.871 770.759 172.871" stroke="#0057FD" stroke-opacity="0.05"/>
<path d="M203.851 191.367C207.325 194.409 210.695 195.01 212.746 199.156C214.856 203.422 208.427 212.604 213.656 211.79C216.429 211.357 216.865 207.76 219.636 207.265C224.853 206.332 220.739 215.249 223.921 218.741C226.706 221.796 233.484 219.561 233.382 223.938C233.333 226.012 231.191 227.017 231.109 229.095C230.988 232.15 233.081 233.321 235.341 235.132C237.809 237.111 241.49 235.472 243.088 238.188C244.619 240.79 241.16 243.66 242.459 246.399C244.032 249.717 251.073 250.582 251.073 250.582C251.073 250.582 256.015 250.865 257.445 253.001C258.702 254.879 257.819 259.041 257.819 259.041" stroke="#0057FD" stroke-opacity="0.05"/>
<path d="M964.851 188.367C968.325 191.409 971.695 192.01 973.746 196.156C975.856 200.422 969.427 209.604 974.656 208.79C977.429 208.357 977.865 204.76 980.636 204.265C985.853 203.332 981.739 212.249 984.921 215.741C987.706 218.796 994.484 216.561 994.382 220.938C994.333 223.012 992.191 224.017 992.109 226.095C991.988 229.15 994.081 230.321 996.341 232.132C998.809 234.111 1002.49 232.472 1004.09 235.188C1005.62 237.79 1002.16 240.66 1003.46 243.399C1005.03 246.717 1012.07 247.582 1012.07 247.582C1012.07 247.582 1017.02 247.865 1018.45 250.001C1019.7 251.879 1018.82 256.041 1018.82 256.041" stroke="#0057FD" stroke-opacity="0.05"/>
<path d="M217.851 191.367C221.325 194.409 224.695 195.01 226.746 199.156C228.856 203.422 222.427 212.604 227.656 211.79C230.429 211.357 230.865 207.76 233.636 207.265C238.853 206.332 234.739 215.249 237.921 218.741C240.706 221.796 247.484 219.561 247.382 223.938C247.333 226.012 245.191 227.017 245.109 229.095C244.988 232.15 247.081 233.321 249.341 235.132C251.809 237.111 255.49 235.472 257.088 238.188C258.619 240.79 255.16 243.66 256.459 246.399C258.032 249.717 265.073 250.582 265.073 250.582C265.073 250.582 270.015 250.865 271.445 253.001C272.702 254.879 271.819 259.041 271.819 259.041" stroke="#0057FD" stroke-opacity="0.05"/>
<path d="M978.851 188.367C982.325 191.409 985.695 192.01 987.746 196.156C989.856 200.422 983.427 209.604 988.656 208.79C991.429 208.357 991.865 204.76 994.636 204.265C999.853 203.332 995.739 212.249 998.921 215.741C1001.71 218.796 1008.48 216.561 1008.38 220.938C1008.33 223.012 1006.19 224.017 1006.11 226.095C1005.99 229.15 1008.08 230.321 1010.34 232.132C1012.81 234.111 1016.49 232.472 1018.09 235.188C1019.62 237.79 1016.16 240.66 1017.46 243.399C1019.03 246.717 1026.07 247.582 1026.07 247.582C1026.07 247.582 1031.02 247.865 1032.45 250.001C1033.7 251.879 1032.82 256.041 1032.82 256.041" stroke="#0057FD" stroke-opacity="0.05"/>
<path d="M348.851 186.367C352.175 189.221 355.461 189.716 357.363 193.675C359.32 197.75 352.786 206.8 357.929 205.877C360.656 205.388 361.175 201.895 363.903 201.344C369.036 200.308 364.777 209.042 367.804 212.34C370.452 215.224 377.149 212.887 376.936 217.125C376.835 219.133 374.711 220.161 374.577 222.174C374.38 225.133 376.4 226.213 378.567 227.907C380.933 229.758 384.581 228.078 386.076 230.665C387.508 233.143 384.046 236.009 385.248 238.627C386.703 241.797 393.578 242.452 393.578 242.452C393.578 242.452 398.411 242.6 399.757 244.63C400.939 246.414 399.967 250.465 399.967 250.465" stroke="#0057FD" stroke-opacity="0.05"/>
<path d="M1109.85 183.367C1113.18 186.221 1116.46 186.716 1118.36 190.675C1120.32 194.75 1113.79 203.8 1118.93 202.877C1121.66 202.388 1122.18 198.895 1124.9 198.344C1130.04 197.308 1125.78 206.042 1128.8 209.34C1131.45 212.224 1138.15 209.887 1137.94 214.125C1137.84 216.133 1135.71 217.161 1135.58 219.174C1135.38 222.133 1137.4 223.213 1139.57 224.907C1141.93 226.758 1145.58 225.078 1147.08 227.665C1148.51 230.143 1145.05 233.009 1146.25 235.627C1147.7 238.797 1154.58 239.452 1154.58 239.452C1154.58 239.452 1159.41 239.6 1160.76 241.63C1161.94 243.414 1160.97 247.465 1160.97 247.465" stroke="#0057FD" stroke-opacity="0.05"/>
<path d="M59.2214 70.0994C63.3844 74.9684 66.2818 80.0901 67.6136 84.4187C68.2798 86.5839 68.547 88.5269 68.4022 90.1291C68.2577 91.7281 67.7079 92.9535 66.7715 93.7542C65.835 94.5548 64.539 94.9075 62.937 94.8018C61.3318 94.6959 59.4539 94.13 57.4185 93.1355C53.3494 91.1473 48.7401 87.4892 44.5772 82.6203C40.4142 77.7514 37.5168 72.6297 36.185 68.301C35.5188 66.1359 35.2516 64.1928 35.3964 62.5906C35.5409 60.9916 36.0907 59.7662 37.0271 58.9656C37.9636 58.1649 39.2595 57.8122 40.8616 57.9179C42.4668 58.0239 44.3447 58.5897 46.3801 59.5842C50.4492 61.5724 55.0585 65.2305 59.2214 70.0994Z" stroke="#0057FD" stroke-opacity="0.05"/>
<path d="M820.221 67.0994C824.384 71.9684 827.282 77.0901 828.614 81.4187C829.28 83.5839 829.547 85.5269 829.402 87.1291C829.258 88.7281 828.708 89.9535 827.771 90.7542C826.835 91.5548 825.539 91.9075 823.937 91.8018C822.332 91.6959 820.454 91.13 818.418 90.1355C814.349 88.1473 809.74 84.4892 805.577 79.6203C801.414 74.7514 798.517 69.6297 797.185 65.301C796.519 63.1359 796.252 61.1928 796.396 59.5906C796.541 57.9916 797.091 56.7662 798.027 55.9656C798.964 55.1649 800.26 54.8122 801.862 54.9179C803.467 55.0239 805.345 55.5897 807.38 56.5842C811.449 58.5724 816.058 62.2305 820.221 67.0994Z" stroke="#0057FD" stroke-opacity="0.05"/>
<path d="M331.221 187.099C335.384 191.968 338.282 197.09 339.614 201.419C340.28 203.584 340.547 205.527 340.402 207.129C340.258 208.728 339.708 209.954 338.771 210.754C337.835 211.555 336.539 211.908 334.937 211.802C333.332 211.696 331.454 211.13 329.418 210.136C325.349 208.147 320.74 204.489 316.577 199.62C312.414 194.751 309.517 189.63 308.185 185.301C307.519 183.136 307.252 181.193 307.396 179.591C307.541 177.992 308.091 176.766 309.027 175.966C309.964 175.165 311.26 174.812 312.862 174.918C314.467 175.024 316.345 175.59 318.38 176.584C322.449 178.572 327.058 182.23 331.221 187.099Z" stroke="#0057FD" stroke-opacity="0.05"/>
<path d="M1092.22 184.099C1096.38 188.968 1099.28 194.09 1100.61 198.419C1101.28 200.584 1101.55 202.527 1101.4 204.129C1101.26 205.728 1100.71 206.954 1099.77 207.754C1098.84 208.555 1097.54 208.908 1095.94 208.802C1094.33 208.696 1092.45 208.13 1090.42 207.136C1086.35 205.147 1081.74 201.489 1077.58 196.62C1073.41 191.751 1070.52 186.63 1069.18 182.301C1068.52 180.136 1068.25 178.193 1068.4 176.591C1068.54 174.992 1069.09 173.766 1070.03 172.966C1070.96 172.165 1072.26 171.812 1073.86 171.918C1075.47 172.024 1077.34 172.59 1079.38 173.584C1083.45 175.572 1088.06 179.23 1092.22 184.099Z" stroke="#0057FD" stroke-opacity="0.05"/>
<path d="M114.125 155.091C116.154 157.464 117.479 160.017 117.999 162.208C118.525 164.428 118.198 166.125 117.17 167.004C116.142 167.883 114.415 167.942 112.304 167.077C110.22 166.224 107.904 164.517 105.875 162.144C103.846 159.771 102.521 157.218 102.001 155.027C101.475 152.807 101.802 151.11 102.83 150.231C103.858 149.353 105.585 149.294 107.696 150.158C109.78 151.012 112.096 152.718 114.125 155.091Z" stroke="#0057FD" stroke-opacity="0.05"/>
<path d="M875.125 152.091C877.154 154.464 878.479 157.017 878.999 159.208C879.525 161.428 879.198 163.125 878.17 164.004C877.142 164.883 875.415 164.942 873.304 164.077C871.22 163.224 868.904 161.517 866.875 159.144C864.846 156.771 863.521 154.218 863.001 152.027C862.475 149.807 862.802 148.11 863.83 147.231C864.858 146.353 866.585 146.294 868.696 147.158C870.78 148.012 873.096 149.718 875.125 152.091Z" stroke="#0057FD" stroke-opacity="0.05"/>
<path d="M360.125 227.091C362.154 229.464 363.479 232.017 363.999 234.208C364.525 236.428 364.198 238.125 363.17 239.004C362.142 239.883 360.415 239.942 358.304 239.077C356.22 238.224 353.904 236.517 351.875 234.144C349.846 231.771 348.521 229.218 348.001 227.027C347.475 224.807 347.802 223.11 348.83 222.231C349.858 221.353 351.585 221.294 353.696 222.158C355.78 223.012 358.096 224.718 360.125 227.091Z" stroke="#0057FD" stroke-opacity="0.05"/>
<path d="M1121.12 224.091C1123.15 226.464 1124.48 229.017 1125 231.208C1125.52 233.428 1125.2 235.125 1124.17 236.004C1123.14 236.883 1121.42 236.942 1119.3 236.077C1117.22 235.224 1114.9 233.517 1112.88 231.144C1110.85 228.771 1109.52 226.218 1109 224.027C1108.48 221.807 1108.8 220.11 1109.83 219.231C1110.86 218.353 1112.58 218.294 1114.7 219.158C1116.78 220.012 1119.1 221.718 1121.12 224.091Z" stroke="#0057FD" stroke-opacity="0.05"/>
<path d="M217.125 172.091C219.154 174.464 220.479 177.017 220.999 179.208C221.525 181.428 221.198 183.125 220.17 184.004C219.142 184.883 217.415 184.942 215.304 184.077C213.22 183.224 210.904 181.517 208.875 179.144C206.846 176.771 205.521 174.218 205.001 172.027C204.475 169.807 204.802 168.11 205.83 167.231C206.858 166.353 208.585 166.294 210.696 167.158C212.78 168.012 215.096 169.718 217.125 172.091Z" stroke="#0057FD" stroke-opacity="0.05"/>
<path d="M978.125 169.091C980.154 171.464 981.479 174.017 981.999 176.208C982.525 178.428 982.198 180.125 981.17 181.004C980.142 181.883 978.415 181.942 976.304 181.077C974.22 180.224 971.904 178.517 969.875 176.144C967.846 173.771 966.521 171.218 966.001 169.027C965.475 166.807 965.802 165.11 966.83 164.231C967.858 163.353 969.585 163.294 971.696 164.158C973.78 165.012 976.096 166.718 978.125 169.091Z" stroke="#0057FD" stroke-opacity="0.05"/>
<path d="M248.125 75.0909C250.154 77.464 251.479 80.0169 251.999 82.2081C252.525 84.4279 252.198 86.125 251.17 87.0039C250.142 87.8828 248.415 87.9418 246.304 87.0772C244.22 86.2237 241.904 84.5175 239.875 82.1444C237.846 79.7714 236.521 77.2185 236.001 75.0273C235.475 72.8074 235.802 71.1104 236.83 70.2315C237.858 69.3526 239.585 69.2936 241.696 70.1582C243.78 71.0116 246.096 72.7179 248.125 75.0909Z" stroke="#0057FD" stroke-opacity="0.05"/>
<path d="M1009.12 72.0909C1011.15 74.464 1012.48 77.0169 1013 79.2081C1013.52 81.4279 1013.2 83.125 1012.17 84.0039C1011.14 84.8828 1009.42 84.9418 1007.3 84.0772C1005.22 83.2237 1002.9 81.5175 1000.88 79.1444C998.846 76.7714 997.521 74.2185 997.001 72.0273C996.475 69.8074 996.802 68.1104 997.83 67.2315C998.858 66.3526 1000.58 66.2936 1002.7 67.1582C1004.78 68.0116 1007.1 69.7179 1009.12 72.0909Z" stroke="#0057FD" stroke-opacity="0.05"/>
<path d="M335.125 120.091C337.154 122.464 338.479 125.017 338.999 127.208C339.525 129.428 339.198 131.125 338.17 132.004C337.142 132.883 335.415 132.942 333.304 132.077C331.22 131.224 328.904 129.517 326.875 127.144C324.846 124.771 323.521 122.218 323.001 120.027C322.475 117.807 322.802 116.11 323.83 115.231C324.858 114.353 326.585 114.294 328.696 115.158C330.78 116.012 333.096 117.718 335.125 120.091Z" stroke="#0057FD" stroke-opacity="0.05"/>
<path d="M1096.12 117.091C1098.15 119.464 1099.48 122.017 1100 124.208C1100.52 126.428 1100.2 128.125 1099.17 129.004C1098.14 129.883 1096.42 129.942 1094.3 129.077C1092.22 128.224 1089.9 126.517 1087.88 124.144C1085.85 121.771 1084.52 119.218 1084 117.027C1083.48 114.807 1083.8 113.11 1084.83 112.231C1085.86 111.353 1087.58 111.294 1089.7 112.158C1091.78 113.012 1094.1 114.718 1096.12 117.091Z" stroke="#0057FD" stroke-opacity="0.05"/>
</svg>
