<svg width="158" height="142" viewBox="0 0 158 142" fill="none" xmlns="http://www.w3.org/2000/svg">
<g clip-path="url(#clip0_2120_38692)">
<path d="M118.72 16.7165C118.483 18.9216 118.84 21.6311 119.317 23.2381C116.691 24.3312 115.251 26.8863 116.105 28.9379C116.959 30.9895 119.786 31.7682 122.412 30.6751C122.741 30.5385 123.069 30.4018 123.344 30.137C125.311 35.7872 121.381 42.538 114.159 45.544C106.938 48.5501 99.3788 46.5816 96.7554 41.2047C98.7823 40.0601 99.9472 37.7699 99.2 35.9747C98.346 33.9232 95.5185 33.1444 92.8924 34.2375C92.7283 34.3058 92.5642 34.3742 92.4001 34.4425C90.6761 32.1513 87.1627 28.7996 85.0291 29.6878C82.8954 30.5759 82.7446 35.3024 83.209 38.2683C82.8807 38.405 82.4991 38.4134 82.1709 38.55C79.5448 39.6431 78.1051 42.1982 78.9591 44.2498C79.7063 46.0449 81.988 46.9004 84.4459 46.3286C86.4128 51.9789 82.4831 58.7296 75.2615 61.7357C68.04 64.7417 60.4275 62.6451 57.8041 57.2681C59.7776 55.9953 60.6676 53.9699 59.9204 52.1748C59.0664 50.1232 56.2389 49.3445 53.6129 50.4376C53.4488 50.5059 53.2846 50.5742 53.1205 50.6425C51.3965 48.3513 47.8831 44.9997 45.7495 45.8878C43.6159 46.776 43.4651 51.5024 43.9294 54.4684C43.6012 54.605 43.2196 54.6135 42.8913 54.7501C40.2653 55.8432 38.8255 58.3983 39.6795 60.4498C40.4801 62.3732 42.926 63.1604 45.4946 62.392C47.4615 68.0423 43.3677 74.8614 36.3102 77.7991C29.0887 80.8051 21.5295 78.8367 18.9062 73.4597C19.2344 73.3231 19.6161 73.3147 19.9443 73.178C22.5703 72.0849 24.0101 69.5299 23.1561 67.4783C22.3021 65.4267 19.4746 64.648 16.8486 65.7411C16.6845 65.8094 16.6845 65.8094 16.5204 65.8777C15.4982 64.3474 14.0985 62.3726 12.6947 60.8507C11.6152 59.6452 9.2601 60.9265 9.90059 62.4651L14.9178 74.5182L15.7184 76.4415L34.8798 122.474L147.142 75.7435L128.088 29.9677L127.287 28.0443L122.27 15.9913C121.301 14.5892 119.007 15.0927 118.72 16.7165Z" fill="#FFB636"/>
<path d="M140.166 57.1354L25.9339 104.686C24.785 105.164 23.6975 104.864 23.3239 103.967L21.5091 99.607C21.1355 98.7095 21.6893 97.7268 22.8382 97.2485L136.906 49.7667C138.055 49.2885 139.142 49.588 139.516 50.4856L141.331 54.8452C141.868 55.6744 141.315 56.6571 140.166 57.1354ZM151.209 78.1136L149.394 73.754C149.021 72.8564 147.933 72.5569 146.784 73.0351L32.5523 120.585C31.4034 121.063 30.8497 122.046 31.2233 122.944L33.038 127.303C33.4116 128.201 34.4991 128.5 35.648 128.022L149.716 80.5404C151.029 79.9938 151.583 79.0111 151.209 78.1136Z" fill="#FFD469"/>
<path d="M133.078 69.7139C134.038 72.0219 132.488 74.7735 129.534 76.0033C126.579 77.233 123.534 76.3943 122.574 74.0863C121.613 71.7783 123.163 69.0267 126.118 67.7969C129.072 66.5672 132.117 67.4059 133.078 69.7139ZM84.7579 85.0134C81.8036 86.2431 80.2531 88.9947 81.2138 91.3027C82.1745 93.6108 85.2195 94.4494 88.1738 93.2197C91.1281 91.9899 92.6786 89.2383 91.7179 86.9303C90.7571 84.6223 87.7121 83.7836 84.7579 85.0134ZM43.398 102.23C40.4438 103.46 38.8932 106.211 39.854 108.519C40.8147 110.827 43.8597 111.666 46.814 110.436C49.7683 109.206 51.2654 106.327 50.3581 104.147C49.4507 101.967 46.3523 101 43.398 102.23Z" fill="#FFC7EF"/>
</g>
<defs>
<clipPath id="clip0_2120_38692">
<rect width="128" height="100" fill="white" transform="translate(0.693359 49.5996) rotate(-22.6)"/>
</clipPath>
</defs>
</svg>
