<svg width="151" height="150" viewBox="0 0 151 150" fill="none" xmlns="http://www.w3.org/2000/svg">
<g id="vuesax/outline/dislike">
<g id="dislike">
<path id="Vector" d="M68.0001 138.125C66.1876 138.125 64.3751 137.813 62.6876 137.188C54.8751 134.625 49.8751 126 51.6251 118L54.6876 98.3125C54.7501 97.875 54.7501 97.25 54.3126 96.75C54.0001 96.4375 53.5626 96.25 53.0626 96.25H28.0626C21.9376 96.25 16.6251 93.6875 13.5001 89.25C10.4376 84.9375 9.81262 79.25 11.8126 73.75L26.7501 28.25C29.0626 19.1875 38.7501 11.875 48.7501 11.875H72.5001C76.0001 11.875 83.6251 12.9375 87.6876 17L106.625 31.625L100.875 39.0625L81.5001 24.0625C79.9376 22.5 76.0001 21.25 72.5001 21.25H48.7501C43.1251 21.25 37.0626 25.75 35.8126 30.8125L20.6876 76.75C19.6876 79.5 19.8751 82 21.1876 83.8125C22.5626 85.75 25.0626 86.875 28.1251 86.875H53.1251C56.3751 86.875 59.3751 88.25 61.4376 90.625C63.5626 93.0625 64.5001 96.3125 64.0001 99.6875L60.8751 119.75C60.1251 123.25 62.5001 127.188 65.8751 128.313C68.8751 129.438 72.8751 127.812 74.2501 125.812L99.8751 87.6875L107.625 92.9375L82.0001 131.062C79.0626 135.438 73.5001 138.125 68.0001 138.125Z" fill="#F80000"/>
<path id="Vector_2" d="M123.125 113.125H116.875C105.313 113.125 99.6875 107.688 99.6875 96.5625V35.3125C99.6875 24.1875 105.313 18.75 116.875 18.75H123.125C134.688 18.75 140.312 24.1875 140.312 35.3125V96.5625C140.312 107.688 134.688 113.125 123.125 113.125ZM116.875 28.125C110.063 28.125 109.063 29.75 109.063 35.3125V96.5625C109.063 102.125 110.063 103.75 116.875 103.75H123.125C129.938 103.75 130.938 102.125 130.938 96.5625V35.3125C130.938 29.75 129.938 28.125 123.125 28.125H116.875Z" fill="#F80000"/>
</g>
</g>
</svg>
