<svg width="151" height="150" viewBox="0 0 151 150" fill="none" xmlns="http://www.w3.org/2000/svg">
<path d="M102.25 138.126H78.5C75 138.126 67.375 137.064 63.3125 133.001L44.375 118.376L50.125 110.939L69.5 125.939C71.0625 127.439 75 128.689 78.5 128.689H102.25C107.875 128.689 113.938 124.189 115.188 119.126L130.312 73.1885C131.312 70.4385 131.125 67.9385 129.812 66.126C128.438 64.1885 125.937 63.0635 122.875 63.0635H97.875C94.625 63.0635 91.625 61.6885 89.5625 59.3135C87.4375 56.876 86.5 53.626 87 50.251L90.125 30.1885C90.875 26.6885 88.5 22.751 85.125 21.626C82.0625 20.501 78.125 22.126 76.75 24.126L51.125 62.251L43.375 57.0635L69 18.9385C72.9375 13.0635 81.5625 10.251 88.3125 12.8135C96.125 15.376 101.125 24.001 99.375 32.001L96.3125 51.6885C96.25 52.126 96.25 52.751 96.6875 53.251C97 53.5635 97.4375 53.751 97.9375 53.751H122.938C129.062 53.751 134.375 56.3135 137.5 60.751C140.562 65.0635 141.188 70.751 139.188 76.251L124.25 121.751C121.937 130.814 112.312 138.126 102.25 138.126Z" fill="#0057FD"/>
<path d="M34.125 131.25H27.875C16.3125 131.25 10.6875 125.813 10.6875 114.688V53.4375C10.6875 42.3125 16.3125 36.875 27.875 36.875H34.125C45.6875 36.875 51.3125 42.3125 51.3125 53.4375V114.688C51.3125 125.813 45.6875 131.25 34.125 131.25ZM27.875 46.25C21.0625 46.25 20.0625 47.875 20.0625 53.4375V114.688C20.0625 120.25 21.0625 121.875 27.875 121.875H34.125C40.9375 121.875 41.9375 120.25 41.9375 114.688V53.4375C41.9375 47.875 40.9375 46.25 34.125 46.25H27.875Z" fill="#0057FD"/>
</svg>
