<svg width="60" height="60" viewBox="0 0 60 60" fill="none" xmlns="http://www.w3.org/2000/svg">
<g clip-path="url(#clip0_1295_26329)">
<rect width="60" height="60" rx="30" fill="white"/>
<path fill-rule="evenodd" clip-rule="evenodd" d="M21.3335 51.0875C21.9749 51.0875 22.4435 51.2342 22.7395 51.5276C23.0355 51.821 23.1837 52.2773 23.184 52.8965V56.2153H22.222V53.0369C22.222 52.337 21.8587 51.9871 21.132 51.9871C20.8181 51.9843 20.51 52.0779 20.2435 52.2571C20.2896 52.4665 20.3113 52.6813 20.308 52.8965V56.2153H19.346V53.0369C19.346 52.337 18.9827 51.9871 18.256 51.9871C17.9245 51.9874 17.5956 52.0518 17.285 52.1772V56.2153H16.3235V51.6075C16.6419 51.4366 16.9788 51.3096 17.3265 51.2295C17.6974 51.1361 18.0767 51.0876 18.4575 51.0848C19.0575 51.0848 19.5034 51.2108 19.795 51.4628C20.2754 51.215 20.8012 51.0867 21.3335 51.0875ZM26.48 56.3676C25.7467 56.3676 25.1955 56.141 24.8265 55.6877C24.4575 55.2345 24.2729 54.5748 24.2725 53.7086C24.2725 51.9558 25.0059 51.0796 26.4725 51.0799C27.2115 51.0799 27.7672 51.3047 28.1395 51.7544C28.5119 52.204 28.6982 52.8554 28.6985 53.7086C28.6985 54.5611 28.5062 55.2174 28.1215 55.6775C27.7369 56.1376 27.1897 56.3676 26.48 56.3676ZM26.4705 55.4777C27.3135 55.4777 27.7349 54.888 27.7345 53.7086C27.7345 53.1222 27.6345 52.6841 27.4345 52.3943C27.2345 52.1045 26.9139 51.9594 26.4725 51.959C26.0269 51.959 25.7079 52.1074 25.5155 52.404C25.3232 52.7006 25.227 53.1355 25.227 53.7086C25.227 54.2814 25.3262 54.7195 25.5245 55.023C25.7229 55.3265 26.0382 55.4773 26.4705 55.4755V55.4777ZM31.91 51.0896C32.594 51.0896 33.113 51.3128 33.467 51.7592C33.821 52.2056 33.9985 52.838 33.9995 53.6563C33.9995 54.6427 33.7874 55.3407 33.363 55.7504C32.9387 56.1601 32.3994 56.3658 31.745 56.3676C30.432 56.3676 29.7755 55.9878 29.7755 55.2282V49.1883H30.7285V51.3996C30.9202 51.3007 31.1214 51.2252 31.3285 51.1744C31.5187 51.1217 31.7138 51.0925 31.91 51.0875V51.0896ZM31.6715 55.4577C32.1715 55.4577 32.5215 55.3011 32.7215 54.9879C32.9215 54.6747 33.0215 54.2449 33.0215 53.6984C33.0215 53.1389 32.9162 52.7125 32.7055 52.4191C32.4949 52.1257 32.182 51.9792 31.767 51.9796C31.5862 51.9809 31.4062 52.0059 31.231 52.0541C31.0556 52.0998 30.8872 52.1726 30.731 52.2701V54.9701C30.7294 55.2941 31.0429 55.4559 31.6715 55.4555V55.4577ZM35.0865 49.4502H36.1125V50.4001H35.0865V49.4502ZM35.114 51.2295H36.076L36.085 56.2175H35.114V51.2295ZM37.439 56.2175V49.2985H38.392V56.2153L37.439 56.2175ZM41.6145 51.0756C42.3292 51.0756 42.8529 51.3276 43.1855 51.8316C43.5182 52.3356 43.6815 53.0403 43.6755 53.9457H40.4495C40.4805 54.4389 40.6139 54.8138 40.8495 55.0705C41.0852 55.3272 41.4195 55.4554 41.8525 55.455C42.3713 55.4556 42.8817 55.3146 43.3365 55.0451V56.0247C42.8602 56.2533 42.3145 56.3676 41.6995 56.3676C41.0095 56.3676 40.4675 56.1394 40.0735 55.6829C39.6795 55.2264 39.4827 54.5784 39.483 53.7389C39.483 52.8792 39.6692 52.2213 40.0415 51.7652C40.4139 51.3091 40.9382 51.0792 41.6145 51.0756ZM41.587 51.9396C41.2634 51.9396 41.01 52.033 40.827 52.2199C40.644 52.4067 40.5249 52.7231 40.4695 53.1692H42.6955C42.6525 52.7426 42.5425 52.4312 42.3655 52.235C42.1885 52.0388 41.929 51.9403 41.587 51.9396ZM32.3995 10.8164C31.3385 10.5331 30.5219 10.3913 29.9495 10.3909C25.68 10.3909 22.2185 14.1169 22.2185 18.7118C22.2185 23.3066 25.6815 27.0332 29.9495 27.0332C34.2175 27.0332 37.681 23.3072 37.681 18.7118C37.6813 18.0405 37.6064 17.3716 37.458 16.7197L43.6045 14.9318C44.1024 16.9761 44.1966 19.1106 43.8809 21.1968C43.5652 23.2829 42.8467 25.274 41.772 27.0407L31.594 47.4198H22.165L28.865 34.0818C28.9015 34.0084 28.794 33.8464 28.704 33.8377C21.5445 33.1357 15.9365 26.6557 15.9365 18.7669C15.9365 10.4082 22.2315 3.63282 29.9975 3.63282C31.4191 3.63113 32.8328 3.86181 34.1905 4.317L32.3995 10.8164Z" fill="#006E53"/>
<path d="M29.8843 22.7647C32.6927 22.7647 34.9693 20.4881 34.9693 17.6797C34.9693 14.8714 32.6927 12.5947 29.8843 12.5947C27.0759 12.5947 24.7993 14.8714 24.7993 17.6797C24.7993 20.4881 27.0759 22.7647 29.8843 22.7647Z" fill="#D6E806"/>
<path d="M38.6675 14.2129C37.7865 12.0076 36.0886 10.2274 33.9275 9.24308M41.9039 12.8257C40.6597 9.76718 38.3072 7.29081 35.3165 5.89148M45.0245 11.7859C43.4397 7.75375 40.3233 4.51287 36.3563 2.77148" stroke="#D6E806" stroke-width="19.262" stroke-linecap="round"/>
</g>
<rect x="0.5" y="0.5" width="59" height="59" rx="29.5" stroke="#C4C4C4"/>
<defs>
<clipPath id="clip0_1295_26329">
<rect width="60" height="60" rx="30" fill="white"/>
</clipPath>
</defs>
</svg>
