<svg width="60" height="60" viewBox="0 0 60 60" fill="none" xmlns="http://www.w3.org/2000/svg">
<circle cx="30" cy="30" r="29.5" fill="white" stroke="#C4C4C4"/>
<path d="M34.0263 7.2002C35.1565 7.2217 36.2347 7.51529 37.2416 8.21654C38.1294 8.83879 38.8532 9.70881 39.3473 10.908C39.6684 11.6996 39.879 12.5661 39.9684 13.4633C40.152 15.1856 39.9663 16.8518 39.5515 18.481C39.3077 19.4366 38.9703 20.3328 38.605 21.2131C37.8607 23.005 36.9043 24.5581 35.7919 25.9349C34.3647 27.703 32.7997 29.2505 31.1251 30.5496C30.4764 31.0512 29.8037 31.4724 29.0802 31.73C28.637 31.8939 28.1793 31.9732 27.7203 31.9656C27.1159 31.9488 26.643 31.572 26.2753 30.9371C25.9357 30.3673 25.7608 29.6467 25.7836 28.9119C25.7876 28.7075 25.8092 28.5045 25.8478 28.307C26.0667 27.2425 26.3641 26.2228 26.8086 25.293C27.1484 24.5829 27.5533 23.9522 28.0829 23.5011C28.6719 22.999 29.3121 22.7844 30.0045 22.9915C30.221 23.061 30.4247 23.1907 30.603 23.3725C31.0589 23.8185 31.035 24.5183 30.8161 24.9653C30.6286 25.3537 30.419 25.7212 30.1892 26.0644C29.8 26.6385 29.3865 27.1812 28.9829 27.7366C28.6258 28.228 28.2901 28.7436 28.018 29.3313C27.877 29.6361 27.7469 29.947 27.708 30.313C27.6588 30.7721 27.8329 31.0849 28.1713 31.1279C28.3464 31.1474 28.5226 31.1232 28.6913 31.0564C29.2113 30.8595 29.6941 30.5421 30.1684 30.1999C30.8997 29.6702 31.5748 29.0227 32.2327 28.3397C33.0303 27.5118 33.8057 26.6483 34.5204 25.688C35.3343 24.5955 36.0599 23.408 36.6151 22.0378C37.0207 21.0373 37.3195 19.9808 37.4523 18.8475C37.5697 17.8494 37.5042 16.877 37.1665 15.9607C37.0039 15.5078 36.7495 15.1285 36.4338 14.8682C36.288 14.748 36.1272 14.6659 35.9595 14.626C35.3494 14.4778 34.759 14.5993 34.1789 14.8644C33.5742 15.1412 33.0132 15.5451 32.468 15.9864C31.2845 16.9476 30.0997 17.9083 28.972 18.9906C28.4066 19.5329 27.8585 20.1098 27.3044 20.6736C26.8038 21.1832 26.3067 21.6988 25.7597 22.1154C25.3158 22.4615 24.8354 22.7111 24.3356 22.8554C23.7162 23.0275 23.1453 22.8676 22.6209 22.4066C22.0766 21.9284 21.6956 21.272 21.5283 20.4034C21.4217 19.855 21.4637 19.3113 21.5556 18.7699C21.6898 17.9752 21.9445 17.2552 22.262 16.5727C23.0473 14.8869 24.0348 13.4568 25.183 12.2343C26.8848 10.4227 28.7572 9.02766 30.7826 8.01832C31.8225 7.49751 32.9191 7.22091 34.0263 7.2002Z" fill="#E20010"/>
<path d="M20.0256 45.7428C20.0198 45.2136 19.9757 44.7377 19.7524 44.3249C19.6437 44.1254 19.4931 43.9761 19.3208 43.8967C18.877 43.6788 18.4249 43.7045 17.9841 43.8911C17.6307 44.0407 17.29 44.2445 16.9441 44.4263C16.8758 44.4609 16.8137 44.5054 16.731 44.5558C16.5682 44.0028 16.408 43.4661 16.2404 42.9051C16.4831 42.7475 16.7119 42.5867 16.9478 42.4488C17.4914 42.1304 18.0551 41.9121 18.6479 41.863C19.2406 41.8139 19.8255 41.857 20.365 42.2506C20.9751 42.6928 21.4156 43.3315 21.5999 44.2608C21.6265 44.3825 21.6425 44.508 21.6474 44.6348C21.671 45.8415 21.7027 47.0481 21.7065 48.2547C21.7089 49.0794 21.6693 49.9045 21.6515 50.7297C21.6483 50.8428 21.6139 50.9501 21.5552 51.0298C21.1335 51.6656 20.6176 52.1051 20.0331 52.4001C19.4063 52.7132 18.7387 52.8446 18.0729 52.7857C17.4583 52.739 16.9277 52.3944 16.479 51.8227C16.0304 51.2509 15.717 50.5604 15.6295 49.7143C15.51 48.5553 15.7542 47.5497 16.3626 46.7222C16.7539 46.1902 17.236 45.9153 17.7792 45.8181C18.3802 45.711 18.9832 45.7396 19.5861 45.7419L20.0256 45.7428ZM19.9467 47.6269C19.9113 47.6173 19.8755 47.6106 19.8395 47.6068C19.6346 47.6012 19.4274 47.5913 19.2215 47.5955C18.9746 47.6007 18.7267 47.6021 18.4812 47.6339C18.2276 47.6671 17.9814 47.7685 17.7847 48.0004C17.4583 48.3856 17.3613 48.8886 17.4409 49.4557C17.5399 50.157 17.826 50.6469 18.3361 50.8554C18.5992 50.9631 18.8777 50.9792 19.1464 50.9022C19.3961 50.8396 19.6291 50.6866 19.8211 50.459C19.8535 50.4245 19.8803 50.3808 19.8994 50.331C19.9185 50.2812 19.9297 50.2263 19.932 50.1701C19.9399 49.9237 19.9631 49.6778 19.9645 49.4314C19.9672 48.8671 19.961 48.3029 19.9576 47.7386C19.9556 47.7011 19.9519 47.6638 19.9467 47.6269Z" fill="#E20010"/>
<path d="M40.5632 47.5782C39.0985 47.5782 37.661 47.5352 36.2034 47.5875C36.2109 47.7278 36.2153 47.8606 36.2246 47.9901C36.2621 48.5197 36.3454 49.0345 36.509 49.5202C36.6361 49.9164 36.8335 50.2628 37.0833 50.5281C37.4793 50.94 37.9314 51.0073 38.4057 50.9236C38.7976 50.8544 39.1626 50.6581 39.5266 50.4603C39.6936 50.3701 39.8592 50.2733 40.0388 50.1728C40.2095 50.6618 40.3768 51.1424 40.5509 51.637C40.5188 51.6688 40.4888 51.7044 40.4553 51.7305C39.7451 52.3074 38.9824 52.6791 38.1585 52.7773C37.4073 52.8666 36.6903 52.6978 36.0416 52.1289C35.5997 51.7413 35.2904 51.1939 35.0316 50.5814C34.7128 49.8195 34.5198 48.9712 34.4662 48.0962C34.3578 46.5008 34.6052 45.0153 35.2084 43.64C35.6291 42.6839 36.257 42.1645 37.043 41.9855C37.7655 41.8115 38.5097 41.9811 39.1521 42.4661C39.5119 42.733 39.7625 43.1533 39.9691 43.6245C40.2423 44.2458 40.386 44.9307 40.455 45.6404C40.511 46.2126 40.5287 46.7919 40.5622 47.3702C40.5663 47.4295 40.5632 47.4912 40.5632 47.5782ZM38.7877 45.7619C38.7027 45.2285 38.6447 44.6834 38.3896 44.2313C38.2617 44.0067 38.0821 43.8478 37.8799 43.7807C37.3421 43.5857 36.8016 43.9251 36.5704 44.6222C36.4878 44.8704 36.4393 45.1402 36.3792 45.4015C36.3523 45.5198 36.3348 45.6427 36.3133 45.7619C36.4578 45.8143 38.6399 45.8166 38.7884 45.7633L38.7877 45.7619Z" fill="#E20010"/>
<path d="M30.9526 39.4328L32.7005 39.0625V42.0017C33.0883 42.0335 33.4578 41.9989 33.8293 42.0536V43.8642C33.4537 43.8726 33.086 43.8572 32.7025 43.889V44.1433C32.6993 45.8862 32.6966 47.6292 32.6943 49.3723C32.6943 49.6467 32.7104 49.9216 32.7285 50.1951C32.7572 50.6159 32.9275 50.8828 33.2253 50.9852C33.3895 51.0422 33.5582 51.0745 33.7248 51.118L33.8921 51.1647V52.7014C33.8733 52.7141 33.8533 52.7233 33.8327 52.7285C33.3366 52.7589 32.8425 52.7411 32.3628 52.5415C31.8943 52.348 31.5037 51.9973 31.2388 51.4195C31.0882 51.0923 31.0117 50.7243 30.9786 50.3443C30.9586 50.1062 30.9488 49.8667 30.9492 49.6271C30.9492 46.3172 30.9506 43.0076 30.9533 39.6983L30.9526 39.4328Z" fill="#E20010"/>
<path d="M41.5225 39.4324L43.2126 39.0312V39.3506C43.2126 42.3566 43.2135 45.3626 43.2153 48.3687C43.2153 48.9189 43.2187 49.4692 43.2218 50.0199C43.2245 50.5631 43.3693 50.8399 43.7483 51.0016C43.8771 51.0504 44.0079 51.0888 44.1399 51.1166C44.2205 51.1372 44.3021 51.147 44.4001 51.1634V52.7333C44.391 52.7436 44.3802 52.7508 44.3687 52.7543C43.8886 52.781 43.4106 52.7702 42.9439 52.5832C42.6611 52.4717 42.3977 52.2828 42.1698 52.0278C41.7454 51.5524 41.5727 50.9151 41.5283 50.1966C41.5153 49.9862 41.517 49.7735 41.5174 49.5622C41.5174 46.2738 41.5191 42.9857 41.5225 39.6979V39.4324Z" fill="#E20010"/>
<path d="M27.5548 52.595H25.8477C25.8456 52.4973 25.8422 52.408 25.8418 52.3197C25.84 50.9153 25.8385 49.5109 25.8374 48.1066C25.8354 46.9846 25.8302 45.8626 25.8306 44.7405C25.8311 44.5371 25.8425 44.334 25.8647 44.1328C25.89 43.9033 25.9777 43.712 26.0996 43.5508C26.7702 42.6569 27.5736 42.1211 28.4897 41.8902C29.0638 41.746 29.6522 41.7449 30.2266 41.8869C30.257 41.8944 30.2874 41.9037 30.3171 41.914C30.3318 41.9192 30.3458 41.929 30.3741 41.944C30.1802 42.619 29.9439 43.2642 29.7213 43.9018C29.4553 43.9018 29.2033 43.8911 28.952 43.9042C28.518 43.9239 28.092 44.0692 27.702 44.3305C27.5914 44.4049 27.5501 44.4974 27.5504 44.6718C27.5552 47.2275 27.5563 49.7832 27.5538 52.3389L27.5548 52.595Z" fill="#E20010"/>
<path d="M24.5877 42.0996C24.6058 45.6021 24.586 49.0841 24.6024 52.5875H22.9317C22.9276 52.5029 22.9194 52.4146 22.9194 52.3262C22.9194 50.1243 22.9194 47.922 22.9194 45.7195C22.9194 44.7101 22.9256 43.7008 22.9287 42.6915C22.9287 42.6148 22.9287 42.5381 22.9287 42.4418L24.5877 42.0996Z" fill="#E20010"/>
<path d="M23.6844 41.0677C22.8687 41.0649 22.3579 39.9532 22.6962 38.9036C22.9042 38.2599 23.2613 38.0154 23.7765 38.0196C24.4669 38.0275 24.9787 38.9677 24.8142 39.8863C24.6827 40.6203 24.2525 41.0696 23.6844 41.0677Z" fill="#E20010"/>
</svg>
