<svg width="60" height="60" viewBox="0 0 60 60" fill="none" xmlns="http://www.w3.org/2000/svg">
<rect x="0.5" y="0.5" width="59" height="59" rx="29.5" stroke="#C4C4C4"/>
<path d="M30.1494 53.5634C43.4635 53.5634 54.2568 42.7702 54.2568 29.456C54.2568 16.1419 43.4635 5.34863 30.1494 5.34863C16.8352 5.34863 6.04199 16.1419 6.04199 29.456C6.04199 42.7702 16.8352 53.5634 30.1494 53.5634Z" fill="#50B651"/>
<path opacity="0.663" fill-rule="evenodd" clip-rule="evenodd" d="M54.1831 29.388C54.1831 42.744 43.3561 53.571 30.0031 53.571C16.6501 53.571 5.82007 42.744 5.82007 29.388C5.82007 23.4798 5.98567 22.6014 8.31127 19.2378C8.31127 19.2378 8.19127 23.037 10.9771 25.2978C12.7093 26.7024 14.5171 25.6884 17.8261 24.1644C21.4057 22.5144 24.3157 21.45 26.5861 21.7308C30.0061 22.1544 40.5475 28.485 46.0489 27.2244C50.4439 26.2194 49.9801 15.8574 49.9801 15.8574C54.7801 20.5446 54.1831 23.7126 54.1831 29.388Z" fill="url(#paint0_linear_1295_26334)"/>
<path opacity="0.586" fill-rule="evenodd" clip-rule="evenodd" d="M40.3801 47.1513C49.1261 38.9245 50.5799 29.4997 44.7415 18.8769C44.7711 18.8985 45.1323 17.6521 45.8251 15.1377C48.9323 18.9005 50.5845 23.5449 50.7817 29.0709C50.7801 36.2285 47.3129 42.2553 40.3801 47.1513Z" fill="url(#paint1_linear_1295_26334)"/>
<path opacity="0.744" fill-rule="evenodd" clip-rule="evenodd" d="M36.2316 15.1873C32.01 12.8509 27.1668 8.15108 27.8106 7.16408C28.4544 6.17708 36.8106 6.34687 41.0328 8.68327C45.255 11.0197 48.8484 18.0283 48.2052 19.0153C47.562 20.0023 40.4532 17.5237 36.2316 15.1873Z" fill="url(#paint2_radial_1295_26334)"/>
<path fill-rule="evenodd" clip-rule="evenodd" d="M39.909 35.393C36.4068 35.393 33.5676 32.4728 33.5676 28.871C33.5676 25.2692 36.4068 22.3496 39.909 22.3496C43.4112 22.3496 46.251 25.2692 46.251 28.871C46.251 32.4728 43.4118 35.393 39.909 35.393ZM39.954 33.3242C42.1398 33.3242 43.914 31.3304 43.914 28.871C43.914 26.4116 42.1398 24.4196 39.954 24.4196C37.7682 24.4196 35.994 26.4134 35.994 28.8722C35.994 31.331 37.7682 33.3242 39.954 33.3242Z" fill="white"/>
<path fill-rule="evenodd" clip-rule="evenodd" d="M26.825 17.0986H31.3946V35.3206H28.886V19.0972H26.825V17.0986Z" fill="white"/>
<path fill-rule="evenodd" clip-rule="evenodd" d="M23.4193 22.5352H25.7911V37.7524C25.7911 39.139 24.3325 40.5832 22.9111 41.2048C22.2391 41.4984 20.9991 41.6728 19.1911 41.728V40.2142C20.9595 40.017 22.1531 39.6236 22.7719 39.034C23.129 38.5378 23.3522 37.958 23.4199 37.3504V32.8798C22.7859 34.225 21.9875 35.1168 21.0247 35.5552C20.0239 36.0952 17.9869 36.0064 17.1553 35.5552C16.3237 35.104 15.1039 33.916 14.5447 32.1466C14.3899 31.6582 14.0047 30.3292 14.0449 28.921C14.0809 27.58 14.5249 26.161 14.8939 25.5778C15.5275 24.5818 16.5265 23.3344 18.0397 22.813C18.7789 22.5582 20.1489 22.4666 22.1497 22.5382V24.0436C20.6629 23.9432 19.7353 23.9934 19.3669 24.1942C18.8143 24.4942 17.5669 24.8644 17.1553 27.583C16.7437 30.3016 17.1673 32.5264 18.4723 33.223C18.9193 33.463 19.7101 33.7468 20.4409 33.4966C21.8449 33.0166 23.1661 31.3048 23.2669 30.145C23.3685 28.9682 23.4193 26.4316 23.4193 22.5352Z" fill="white"/>
<path fill-rule="evenodd" clip-rule="evenodd" d="M53.4253 34.2284C51.1855 45.0134 41.6287 53.117 30.1801 53.117C17.0683 53.117 6.43872 42.4874 6.43872 29.3756C6.43872 21.23 10.5409 14.0426 16.7917 9.76758C11.7127 13.9796 8.47872 20.3426 8.47872 27.458C8.47872 40.1498 18.7675 50.438 31.4587 50.438C41.7943 50.438 50.5351 43.6154 53.4253 34.2284Z" fill="url(#paint3_radial_1295_26334)"/>
<path fill-rule="evenodd" clip-rule="evenodd" d="M30.1801 1.25977C14.6521 1.25977 2.06348 13.8478 2.06348 29.3758C2.06348 44.9038 14.6521 57.4924 30.1801 57.4924C45.7081 57.4924 58.2967 44.9038 58.2967 29.3758C58.2967 13.8478 45.7081 1.25977 30.1801 1.25977ZM30.1801 53.1178C17.0683 53.1178 6.43868 42.4882 6.43868 29.3764C6.43868 21.2308 10.5409 14.0434 16.7917 9.76836C20.7339 7.06841 25.402 5.62702 30.1801 5.63437C43.2919 5.63437 53.9215 16.2634 53.9215 29.3758C53.9223 31.0061 53.7561 32.6322 53.4253 34.2286C51.1855 45.0136 41.6287 53.1172 30.1801 53.1172V53.1178Z" fill="white"/>
<defs>
<linearGradient id="paint0_linear_1295_26334" x1="29.0689" y1="19.1598" x2="32.1685" y2="47.1516" gradientUnits="userSpaceOnUse">
<stop stop-color="#123214"/>
<stop offset="0.46" stop-color="#3E7C37"/>
<stop offset="0.91" stop-color="#5FBB46"/>
</linearGradient>
<linearGradient id="paint1_linear_1295_26334" x1="46.9756" y1="17.3405" x2="46.9756" y2="39.9757" gradientUnits="userSpaceOnUse">
<stop stop-color="white" stop-opacity="0"/>
<stop offset="0.64" stop-color="white" stop-opacity="0.43"/>
<stop offset="1" stop-color="white" stop-opacity="0.42"/>
</linearGradient>
<radialGradient id="paint2_radial_1295_26334" cx="0" cy="0" r="1" gradientUnits="userSpaceOnUse" gradientTransform="translate(38.5217 13.2483) rotate(26.7606) scale(11.9126 4.96138)">
<stop offset="0.13" stop-color="white"/>
<stop offset="0.29" stop-color="white" stop-opacity="0.69"/>
<stop offset="0.45" stop-color="white" stop-opacity="0.4"/>
<stop offset="0.59" stop-color="white" stop-opacity="0.18"/>
<stop offset="0.69" stop-color="white" stop-opacity="0.05"/>
<stop offset="0.74" stop-color="white" stop-opacity="0"/>
</radialGradient>
<radialGradient id="paint3_radial_1295_26334" cx="0" cy="0" r="1" gradientUnits="userSpaceOnUse" gradientTransform="translate(34.2512 23.9055) rotate(39.84) scale(26.6958 29.0984)">
<stop offset="0.86" stop-opacity="0"/>
<stop offset="0.98" stop-opacity="0.47"/>
<stop offset="1"/>
</radialGradient>
</defs>
</svg>
