<svg width="350" height="315" viewBox="0 0 350 315" fill="none" xmlns="http://www.w3.org/2000/svg">
<path d="M19.655 117.479C9.24455 146.193 8.64722 176.443 27.5055 202.299C54.8115 239.716 101.36 238.692 137.412 250.468C156.313 256.655 168.004 273.465 184.302 283.705C234.861 315.405 305.216 275.683 328.427 227.343C374.591 131.004 275.82 11.4123 178.883 0.660502C150.255 -2.53942 120.901 6.12171 96.8799 21.5667C63.43 43.1129 33.2227 79.976 19.655 117.479Z" fill="#357AFF"/>
<path opacity="0.7" d="M19.655 117.479C9.24455 146.193 8.64722 176.443 27.5055 202.299C54.8115 239.716 101.36 238.692 137.412 250.468C156.313 256.655 168.004 273.465 184.302 283.705C234.861 315.405 305.216 275.683 328.427 227.343C374.591 131.004 275.82 11.4123 178.883 0.660502C150.255 -2.53942 120.901 6.12171 96.8799 21.5667C63.43 43.1129 33.2227 79.976 19.655 117.479Z" fill="white"/>
<path d="M318.186 295.779C318.186 306.274 247.532 314.807 160.366 314.807C73.2423 314.807 2.58789 306.274 2.58789 295.779C2.58789 285.24 73.2423 276.707 160.366 276.707C247.532 276.707 318.186 285.24 318.186 295.779Z" fill="#357AFF"/>
<path opacity="0.2" d="M318.186 295.779C318.186 306.274 247.532 314.807 160.366 314.807C73.2423 314.807 2.58789 306.274 2.58789 295.779C2.58789 285.24 73.2423 276.707 160.366 276.707C247.532 276.707 318.186 285.24 318.186 295.779Z" fill="black"/>
<path d="M305.985 212.88C307.308 211.728 308.716 209.808 308.673 207.717C308.588 205.626 307.095 203.706 305.217 203.792C302.615 203.877 300.481 208.528 300.097 211.13C300.055 211.386 299.884 215.013 299.927 215.013C299.927 215.013 304.364 214.202 305.985 212.88Z" fill="#357AFF"/>
<path d="M307.734 278.243C308.204 278.542 311.916 280.974 313.836 281.23C315.585 281.486 317.846 281.229 318.956 279.694C320.107 277.987 319.852 275.683 318.273 274.36C316.054 272.483 311.702 274.104 309.91 275.64C309.825 275.768 308.588 277.091 307.948 277.816C308.332 277.091 308.716 276.366 309.1 275.64C309.654 274.574 310.252 273.507 310.849 272.44L311.873 270.819C312.172 270.264 312.556 269.795 312.897 269.24C313.452 268.472 314.049 267.747 314.604 266.979C315.585 267.79 318.401 270.179 320.107 270.734C321.857 271.246 324.118 271.374 325.483 270.094C326.849 268.558 326.849 266.254 325.483 264.761C323.478 262.585 318.913 263.395 316.908 264.547C316.865 264.59 316.438 264.889 315.969 265.273C316.566 264.547 317.164 263.822 317.804 263.139C319.51 261.134 321.387 259.214 323.222 257.251L324.374 256.014C325.185 256.739 328.299 259.342 330.006 259.897C331.755 260.409 334.017 260.579 335.339 259.257C336.747 257.763 336.747 255.417 335.339 253.923C333.377 251.748 328.811 252.558 326.806 253.71C326.721 253.753 326.251 254.137 325.739 254.563C326.721 253.454 327.702 252.345 328.641 251.236C330.262 249.273 331.755 247.211 333.121 245.049C333.377 245.305 336.96 248.462 338.88 249.06C340.63 249.614 342.891 249.742 344.256 248.462C345.622 246.926 345.622 244.622 344.256 243.129C342.251 240.91 337.686 241.764 335.68 242.916C335.552 243.001 333.846 244.324 333.249 244.836L333.291 244.75C334.614 242.532 335.723 240.185 336.576 237.753C337.401 235.535 338.112 233.288 338.71 231.012C339.264 228.836 339.648 226.831 339.99 225.081C340.16 224.1 340.288 223.204 340.416 222.394V222.436C340.459 222.479 342.251 219.663 342.336 219.45C343.403 217.188 344.214 211.898 342.379 209.551C342.18 209.295 341.952 209.068 341.696 208.869C340.459 207.93 338.71 208.186 337.771 209.466C336.576 210.916 336.619 213.562 337.046 215.61C337.472 217.658 339.734 221.327 340.288 222.223C340.16 223.076 339.99 224.015 339.776 224.996C339.435 226.788 338.966 228.751 338.368 230.841C338.24 231.439 338.027 232.036 337.856 232.591C337.984 231.524 338.112 230.073 338.112 229.903C338.112 227.215 336.704 221.839 334.23 220.644C332.438 219.748 330.731 220.943 330.347 222.991C329.963 224.996 330.987 227.385 332.225 229.092C333.419 230.841 336.832 233.103 337.6 233.572C337.216 234.852 336.747 236.175 336.235 237.455C335.296 239.844 334.187 242.105 332.822 244.281L332.694 244.196C332.907 243.257 333.334 241.209 333.334 241.038C333.547 238.393 332.651 232.932 330.262 231.439C328.555 230.329 326.678 231.268 326.081 233.231C325.526 235.193 326.422 237.71 327.403 239.502C328.555 241.55 332.395 244.58 332.523 244.708C331.186 246.756 329.707 248.704 328.086 250.553C326.891 251.876 325.654 253.198 324.417 254.521C324.587 253.838 325.099 251.15 325.099 250.98C325.355 248.292 324.459 242.873 322.07 241.337C320.321 240.27 318.486 241.252 317.889 243.172C317.334 245.092 318.188 247.609 319.212 249.401C320.321 251.406 323.99 254.35 324.289 254.563L322.582 256.355C320.662 258.233 318.785 260.153 316.95 262.115C316.31 262.798 315.713 263.481 315.116 264.163C315.329 263.139 315.713 261.305 315.713 261.134C315.969 258.489 315.073 253.027 312.641 251.534C310.934 250.425 309.057 251.406 308.502 253.369C307.905 255.289 308.801 257.806 309.825 259.555C310.806 261.347 313.836 263.907 314.732 264.59C313.708 265.785 312.769 266.936 311.873 268.174C311.532 268.686 311.062 269.24 310.764 269.752L309.74 271.374C309.057 272.483 308.417 273.507 307.82 274.574C307.521 275.086 307.265 275.64 306.966 276.152C307.35 275.171 307.905 273.635 307.905 273.464C308.502 270.947 308.332 265.486 306.113 263.566C305.829 263.338 305.53 263.153 305.217 263.011C303.767 262.499 302.231 263.225 301.676 264.633C301.562 264.86 301.477 265.102 301.42 265.358C299.884 266.809 298.732 268.686 298.092 270.776C298.092 270.947 297.751 272.91 297.623 273.976C297.58 273.08 297.495 272.227 297.452 271.331C297.409 270.008 297.367 268.643 297.324 267.32C297.324 266.638 297.324 265.955 297.324 265.23C297.281 264.505 297.367 263.865 297.367 263.139C297.409 262.115 297.495 261.091 297.58 260.025C298.732 260.153 302.017 260.494 303.681 259.854C305.303 259.214 307.137 257.849 307.564 255.843C307.948 253.881 306.924 251.577 305.047 251.108C302.401 250.425 299.244 254.094 298.263 256.398C298.22 256.483 298.049 256.995 297.879 257.635C298.007 256.611 298.092 255.587 298.263 254.563C298.689 251.662 299.201 248.761 299.671 245.817C299.784 245.191 299.884 244.58 299.969 243.982C300.951 244.068 304.577 244.452 306.198 243.812C307.862 243.172 309.697 241.806 310.081 239.801C310.508 237.839 309.441 235.535 307.564 235.065C304.961 234.383 301.804 238.052 300.823 240.356C300.78 240.441 300.567 241.081 300.353 241.764C300.609 240.185 300.865 238.564 301.036 236.985C301.377 234.198 301.548 231.41 301.548 228.623C301.889 228.665 306.198 229.177 307.99 228.495C309.612 227.855 311.446 226.447 311.873 224.484C312.257 222.479 311.233 220.218 309.356 219.706C306.71 219.023 303.553 222.692 302.572 225.039C302.529 225.167 301.804 227.471 301.591 228.281V228.196C301.562 225.409 301.306 222.635 300.823 219.876C300.424 217.402 299.884 214.941 299.201 212.495C298.647 210.234 297.964 208.186 297.367 206.394C297.068 205.455 296.727 204.559 296.428 203.706H296.513C296.513 203.706 296.513 200.079 296.513 199.823C296.257 197.135 294.423 191.888 291.82 190.992C289.986 190.352 288.364 191.76 288.194 193.85C288.023 195.941 289.26 198.245 290.583 199.781C291.905 201.317 295.404 203.151 296.3 203.621C296.599 204.474 296.897 205.413 297.239 206.437C297.793 208.229 298.391 210.276 298.945 212.538C299.116 213.135 299.244 213.775 299.372 214.415C298.945 213.434 298.348 211.983 298.263 211.855C297.025 209.466 293.313 205.583 290.796 206.095C288.962 206.479 288.194 208.655 288.876 210.746C289.559 212.794 291.521 214.202 293.271 214.97C295.02 215.738 298.817 215.567 299.628 215.524C299.927 216.89 300.183 218.34 300.396 219.876C300.823 222.607 301.036 225.352 301.036 228.111H300.908C300.609 227.129 299.927 225.039 299.841 224.911C298.775 222.394 295.447 218.084 292.844 218.298C291.009 218.426 290.028 220.474 290.54 222.607C291.01 224.697 292.887 226.404 294.551 227.343C296.428 228.409 300.865 228.665 300.993 228.665C300.936 231.368 300.723 234.055 300.353 236.729C300.097 238.692 299.756 240.654 299.415 242.617C299.201 241.892 298.305 239.204 298.263 238.99C297.153 236.473 293.825 232.207 291.266 232.377C289.388 232.548 288.407 234.553 288.919 236.687C289.388 238.82 291.308 240.484 292.929 241.422C294.764 242.489 299.031 242.788 299.372 242.788C299.201 243.669 299.031 244.551 298.86 245.433C298.305 248.377 297.751 251.278 297.281 254.179C297.111 255.203 296.983 256.185 296.855 257.209C296.513 256.142 295.916 254.265 295.831 254.094C294.764 251.577 291.436 247.31 288.834 247.481C286.999 247.652 286.018 249.7 286.53 251.79C286.999 253.881 288.876 255.587 290.54 256.526C292.161 257.465 295.745 257.763 296.769 257.849C296.556 259.513 296.343 261.177 296.257 262.841C296.215 263.566 296.129 264.291 296.129 265.017C296.129 265.699 296.129 266.382 296.129 267.064C296.172 268.515 296.172 269.838 296.215 271.16C296.257 271.843 296.3 272.483 296.3 273.123C296.129 272.014 295.788 270.307 295.745 270.136C295.02 267.491 292.247 262.755 289.602 262.499C287.724 262.286 286.444 264.121 286.658 266.254C286.914 268.387 288.578 270.35 290.071 271.587C291.735 272.91 295.831 273.891 296.343 274.019C296.428 275.598 296.513 277.176 296.599 278.627C296.897 282.765 297.281 286.349 297.58 288.995H299.329C298.945 286.435 298.561 282.851 298.177 278.627C298.049 277.304 297.921 275.939 297.836 274.488C298.348 274.446 302.145 274.232 303.852 273.336C304.762 274.531 305.729 275.669 306.753 276.75C306.07 278.072 305.388 279.31 304.791 280.547C303.084 283.875 301.761 286.776 300.78 288.995H302.785C303.639 286.947 304.791 284.387 306.156 281.528C306.71 280.462 307.265 279.267 307.734 278.243Z" fill="#357AFF"/>
<path d="M349.504 233.145C350.485 231.353 349.973 229.092 348.309 227.897C345.963 226.319 341.824 228.537 340.246 230.329C340.075 230.457 338.24 233.188 338.24 233.188C338.24 233.23 342.592 235.449 344.64 235.449C346.389 235.449 348.565 234.894 349.504 233.145Z" fill="#357AFF"/>
<path opacity="0.2" d="M305.985 212.88C307.308 211.728 308.716 209.808 308.673 207.717C308.588 205.626 307.095 203.706 305.217 203.792C302.615 203.877 300.481 208.528 300.097 211.13C300.055 211.386 299.884 215.013 299.927 215.013C299.927 215.013 304.364 214.202 305.985 212.88Z" fill="black"/>
<path opacity="0.2" d="M307.734 278.243C308.204 278.542 311.916 280.974 313.836 281.23C315.585 281.486 317.846 281.229 318.956 279.694C320.107 277.987 319.852 275.683 318.273 274.36C316.054 272.483 311.702 274.104 309.91 275.64C309.825 275.768 308.588 277.091 307.948 277.816C308.332 277.091 308.716 276.366 309.1 275.64C309.654 274.574 310.252 273.507 310.849 272.44L311.873 270.819C312.172 270.264 312.556 269.795 312.897 269.24C313.452 268.472 314.049 267.747 314.604 266.979C315.585 267.79 318.401 270.179 320.107 270.734C321.857 271.246 324.118 271.374 325.483 270.094C326.849 268.558 326.849 266.254 325.483 264.761C323.478 262.585 318.913 263.395 316.908 264.547C316.865 264.59 316.438 264.889 315.969 265.273C316.566 264.547 317.164 263.822 317.804 263.139C319.51 261.134 321.387 259.214 323.222 257.251L324.374 256.014C325.185 256.739 328.299 259.342 330.006 259.897C331.755 260.409 334.017 260.579 335.339 259.257C336.747 257.763 336.747 255.417 335.339 253.923C333.377 251.748 328.811 252.558 326.806 253.71C326.721 253.753 326.251 254.137 325.739 254.563C326.721 253.454 327.702 252.345 328.641 251.236C330.262 249.273 331.755 247.211 333.121 245.049C333.377 245.305 336.96 248.462 338.88 249.06C340.63 249.614 342.891 249.742 344.256 248.462C345.622 246.926 345.622 244.622 344.256 243.129C342.251 240.91 337.686 241.764 335.68 242.916C335.552 243.001 333.846 244.324 333.249 244.836L333.291 244.75C334.614 242.532 335.723 240.185 336.576 237.753C337.401 235.535 338.112 233.288 338.71 231.012C339.264 228.836 339.648 226.831 339.99 225.081C340.16 224.1 340.288 223.204 340.416 222.394V222.436C340.459 222.479 342.251 219.663 342.336 219.45C343.403 217.188 344.214 211.898 342.379 209.551C342.18 209.295 341.952 209.068 341.696 208.869C340.459 207.93 338.71 208.186 337.771 209.466C336.576 210.916 336.619 213.562 337.046 215.61C337.472 217.658 339.734 221.327 340.288 222.223C340.16 223.076 339.99 224.015 339.776 224.996C339.435 226.788 338.966 228.751 338.368 230.841C338.24 231.439 338.027 232.036 337.856 232.591C337.984 231.524 338.112 230.073 338.112 229.903C338.112 227.215 336.704 221.839 334.23 220.644C332.438 219.748 330.731 220.943 330.347 222.991C329.963 224.996 330.987 227.385 332.225 229.092C333.419 230.841 336.832 233.103 337.6 233.572C337.216 234.852 336.747 236.175 336.235 237.455C335.296 239.844 334.187 242.105 332.822 244.281L332.694 244.196C332.907 243.257 333.334 241.209 333.334 241.038C333.547 238.393 332.651 232.932 330.262 231.439C328.555 230.329 326.678 231.268 326.081 233.231C325.526 235.193 326.422 237.71 327.403 239.502C328.555 241.55 332.395 244.58 332.523 244.708C331.186 246.756 329.707 248.704 328.086 250.553C326.891 251.876 325.654 253.198 324.417 254.521C324.587 253.838 325.099 251.15 325.099 250.98C325.355 248.292 324.459 242.873 322.07 241.337C320.321 240.27 318.486 241.252 317.889 243.172C317.334 245.092 318.188 247.609 319.212 249.401C320.321 251.406 323.99 254.35 324.289 254.563L322.582 256.355C320.662 258.233 318.785 260.153 316.95 262.115C316.31 262.798 315.713 263.481 315.116 264.163C315.329 263.139 315.713 261.305 315.713 261.134C315.969 258.489 315.073 253.027 312.641 251.534C310.934 250.425 309.057 251.406 308.502 253.369C307.905 255.289 308.801 257.806 309.825 259.555C310.806 261.347 313.836 263.907 314.732 264.59C313.708 265.785 312.769 266.936 311.873 268.174C311.532 268.686 311.062 269.24 310.764 269.752L309.74 271.374C309.057 272.483 308.417 273.507 307.82 274.574C307.521 275.086 307.265 275.64 306.966 276.152C307.35 275.171 307.905 273.635 307.905 273.464C308.502 270.947 308.332 265.486 306.113 263.566C305.829 263.338 305.53 263.153 305.217 263.011C303.767 262.499 302.231 263.225 301.676 264.633C301.562 264.86 301.477 265.102 301.42 265.358C299.884 266.809 298.732 268.686 298.092 270.776C298.092 270.947 297.751 272.91 297.623 273.976C297.58 273.08 297.495 272.227 297.452 271.331C297.409 270.008 297.367 268.643 297.324 267.32C297.324 266.638 297.324 265.955 297.324 265.23C297.281 264.505 297.367 263.865 297.367 263.139C297.409 262.115 297.495 261.091 297.58 260.025C298.732 260.153 302.017 260.494 303.681 259.854C305.303 259.214 307.137 257.849 307.564 255.843C307.948 253.881 306.924 251.577 305.047 251.108C302.401 250.425 299.244 254.094 298.263 256.398C298.22 256.483 298.049 256.995 297.879 257.635C298.007 256.611 298.092 255.587 298.263 254.563C298.689 251.662 299.201 248.761 299.671 245.817C299.784 245.191 299.884 244.58 299.969 243.982C300.951 244.068 304.577 244.452 306.198 243.812C307.862 243.172 309.697 241.806 310.081 239.801C310.508 237.839 309.441 235.535 307.564 235.065C304.961 234.383 301.804 238.052 300.823 240.356C300.78 240.441 300.567 241.081 300.353 241.764C300.609 240.185 300.865 238.564 301.036 236.985C301.377 234.198 301.548 231.41 301.548 228.623C301.889 228.665 306.198 229.177 307.99 228.495C309.612 227.855 311.446 226.447 311.873 224.484C312.257 222.479 311.233 220.218 309.356 219.706C306.71 219.023 303.553 222.692 302.572 225.039C302.529 225.167 301.804 227.471 301.591 228.281V228.196C301.562 225.409 301.306 222.635 300.823 219.876C300.424 217.402 299.884 214.941 299.201 212.495C298.647 210.234 297.964 208.186 297.367 206.394C297.068 205.455 296.727 204.559 296.428 203.706H296.513C296.513 203.706 296.513 200.079 296.513 199.823C296.257 197.135 294.423 191.888 291.82 190.992C289.986 190.352 288.364 191.76 288.194 193.85C288.023 195.941 289.26 198.245 290.583 199.781C291.905 201.317 295.404 203.151 296.3 203.621C296.599 204.474 296.897 205.413 297.239 206.437C297.793 208.229 298.391 210.276 298.945 212.538C299.116 213.135 299.244 213.775 299.372 214.415C298.945 213.434 298.348 211.983 298.263 211.855C297.025 209.466 293.313 205.583 290.796 206.095C288.962 206.479 288.194 208.655 288.876 210.746C289.559 212.794 291.521 214.202 293.271 214.97C295.02 215.738 298.817 215.567 299.628 215.524C299.927 216.89 300.183 218.34 300.396 219.876C300.823 222.607 301.036 225.352 301.036 228.111H300.908C300.609 227.129 299.927 225.039 299.841 224.911C298.775 222.394 295.447 218.084 292.844 218.298C291.009 218.426 290.028 220.474 290.54 222.607C291.01 224.697 292.887 226.404 294.551 227.343C296.428 228.409 300.865 228.665 300.993 228.665C300.936 231.368 300.723 234.055 300.353 236.729C300.097 238.692 299.756 240.654 299.415 242.617C299.201 241.892 298.305 239.204 298.263 238.99C297.153 236.473 293.825 232.207 291.266 232.377C289.388 232.548 288.407 234.553 288.919 236.687C289.388 238.82 291.308 240.484 292.929 241.422C294.764 242.489 299.031 242.788 299.372 242.788C299.201 243.669 299.031 244.551 298.86 245.433C298.305 248.377 297.751 251.278 297.281 254.179C297.111 255.203 296.983 256.185 296.855 257.209C296.513 256.142 295.916 254.265 295.831 254.094C294.764 251.577 291.436 247.31 288.834 247.481C286.999 247.652 286.018 249.7 286.53 251.79C286.999 253.881 288.876 255.587 290.54 256.526C292.161 257.465 295.745 257.763 296.769 257.849C296.556 259.513 296.343 261.177 296.257 262.841C296.215 263.566 296.129 264.291 296.129 265.017C296.129 265.699 296.129 266.382 296.129 267.064C296.172 268.515 296.172 269.838 296.215 271.16C296.257 271.843 296.3 272.483 296.3 273.123C296.129 272.014 295.788 270.307 295.745 270.136C295.02 267.491 292.247 262.755 289.602 262.499C287.724 262.286 286.444 264.121 286.658 266.254C286.914 268.387 288.578 270.35 290.071 271.587C291.735 272.91 295.831 273.891 296.343 274.019C296.428 275.598 296.513 277.176 296.599 278.627C296.897 282.765 297.281 286.349 297.58 288.995H299.329C298.945 286.435 298.561 282.851 298.177 278.627C298.049 277.304 297.921 275.939 297.836 274.488C298.348 274.446 302.145 274.232 303.852 273.336C304.762 274.531 305.729 275.669 306.753 276.75C306.07 278.072 305.388 279.31 304.791 280.547C303.084 283.875 301.761 286.776 300.78 288.995H302.785C303.639 286.947 304.791 284.387 306.156 281.528C306.71 280.462 307.265 279.267 307.734 278.243Z" fill="black"/>
<path opacity="0.2" d="M349.504 233.145C350.485 231.353 349.973 229.092 348.309 227.897C345.963 226.319 341.824 228.537 340.246 230.329C340.075 230.457 338.24 233.188 338.24 233.188C338.24 233.23 342.592 235.449 344.64 235.449C346.389 235.449 348.565 234.894 349.504 233.145Z" fill="black"/>
<path d="M44.0168 217.189C42.6515 216.08 41.2436 214.117 41.3289 212.027C41.3716 209.936 42.9075 208.016 44.7848 208.101C47.3874 208.229 49.478 212.837 49.9047 215.44C49.9047 215.696 50.0754 219.322 50.0327 219.322C50.0327 219.322 45.5955 218.512 44.0168 217.189Z" fill="#357AFF"/>
<path d="M42.2682 282.595C41.7989 282.894 38.0443 285.326 36.1244 285.582C34.3751 285.838 32.1565 285.582 31.0045 284.003C29.8525 282.297 30.1512 280.035 31.6871 278.67C33.9058 276.793 38.2577 278.414 40.0496 279.95C40.1776 280.078 41.3722 281.401 42.0122 282.126C41.6709 281.401 41.2869 280.718 40.8603 279.95C40.3056 278.926 39.7083 277.817 39.111 276.75L38.087 275.129C37.7883 274.574 37.4043 274.105 37.063 273.55C36.5084 272.825 35.9537 272.057 35.3564 271.289C34.3751 272.142 31.6018 274.531 29.8525 275.043C28.1459 275.555 25.8419 275.726 24.5193 274.403C23.154 272.91 23.154 270.606 24.5193 269.07C26.4819 266.894 31.0472 267.705 33.0524 268.899C33.1378 268.899 33.5218 269.241 33.9911 269.582C33.3938 268.857 32.8391 268.174 32.1991 267.449C30.4498 265.444 28.6152 263.524 26.7379 261.561L25.5859 260.324C24.7753 261.049 21.7034 263.694 19.9541 264.206C18.2475 264.761 15.9435 264.889 14.6209 263.566C13.2129 262.073 13.2129 259.769 14.6209 258.233C16.5835 256.057 21.1914 256.868 23.154 258.062C23.2393 258.105 23.7087 258.446 24.2633 258.873C23.2393 257.764 22.258 256.697 21.3194 255.545C19.6981 253.611 18.219 251.563 16.8822 249.401C16.5835 249.657 13.0422 252.815 11.0796 253.412C9.33032 253.924 7.06904 254.052 5.74641 252.772C4.33844 251.236 4.33844 248.932 5.74641 247.439C7.70903 245.22 12.2743 246.073 14.2795 247.225C14.4502 247.311 16.1142 248.633 16.7115 249.145L16.6688 249.06C15.3462 246.841 14.2795 244.495 13.3836 242.063C12.5587 239.844 11.8618 237.597 11.2929 235.322C10.7383 233.188 10.3116 231.183 9.97031 229.391C9.79965 228.41 9.67165 227.556 9.54365 226.703V226.746C9.50099 226.788 7.75169 223.973 7.66636 223.759C6.59972 221.498 5.74641 216.207 7.58103 213.861C7.78014 213.605 8.00769 213.377 8.26368 213.178C9.50099 212.239 11.2929 212.495 12.2316 213.775C13.3836 215.269 13.3409 217.871 12.9142 219.919C12.4876 221.967 10.2263 225.636 9.67165 226.532C9.79965 227.428 9.97031 228.324 10.1836 229.348C10.5676 231.098 10.9943 233.06 11.5916 235.194C11.7623 235.748 11.9329 236.346 12.1036 236.943C11.9756 235.834 11.8476 234.383 11.8476 234.212C11.8476 231.524 13.2556 226.148 15.7728 224.954C17.5221 224.058 19.2714 225.252 19.6554 227.3C20.0394 229.348 18.9728 231.695 17.7781 233.402C16.5408 235.151 13.1276 237.412 12.3596 237.924C12.7862 239.161 13.2129 240.484 13.7249 241.807C14.6635 244.153 15.8155 246.457 17.1381 248.591L17.2661 248.505C17.0528 247.567 16.6688 245.519 16.6688 245.348C16.4128 242.703 17.3088 237.242 19.6981 235.748C21.4474 234.682 23.282 235.62 23.8793 237.583C24.434 239.503 23.5807 242.063 22.5567 243.812C21.4047 245.86 17.5648 248.889 17.4368 249.017C18.7737 251.065 20.2527 253.014 21.874 254.862C23.0687 256.228 24.306 257.508 25.5859 258.83C25.4153 258.148 24.8606 255.46 24.8606 255.289C24.6046 252.644 25.5006 247.183 27.9326 245.647C29.6392 244.58 31.5165 245.561 32.0711 247.481C32.6684 249.401 31.7725 251.961 30.7912 253.71C29.6392 255.716 25.9699 258.66 25.6713 258.916L27.3779 260.665C29.2979 262.542 31.1752 264.462 33.0098 266.425C33.6498 267.108 34.2471 267.79 34.8444 268.473C34.6311 267.492 34.2471 265.614 34.2471 265.444C33.9911 262.798 34.9297 257.337 37.319 255.844C39.0256 254.777 40.9029 255.758 41.4576 257.678C42.0549 259.598 41.2016 262.116 40.1776 263.908C39.1536 265.657 36.1244 268.217 35.2711 268.899C36.2524 270.094 37.2337 271.246 38.087 272.483C38.471 273.038 38.8976 273.55 39.239 274.062L40.2629 275.683C40.9029 276.793 41.5429 277.859 42.1402 278.926C42.4389 279.438 42.6949 279.95 42.9935 280.462C42.6522 279.481 42.0549 277.945 42.0549 277.774C41.4576 275.257 41.6709 269.795 43.8895 267.918C44.1455 267.662 44.4442 267.477 44.7855 267.364C46.1935 266.809 47.7721 267.534 48.2841 268.942C48.3979 269.17 48.4832 269.411 48.5401 269.667C50.1187 271.161 51.2707 273.038 51.868 275.086C51.9107 275.257 52.2093 277.262 52.3373 278.286C52.38 277.39 52.4653 276.537 52.508 275.641C52.5933 274.318 52.636 272.953 52.6787 271.63C52.6787 270.947 52.636 270.265 52.6787 269.539C52.6787 268.814 52.5933 268.174 52.5933 267.449C52.5507 266.425 52.4653 265.401 52.38 264.334C51.228 264.462 47.9428 264.804 46.3215 264.164C44.6575 263.524 42.8229 262.158 42.3962 260.153C42.0122 258.19 43.0789 255.929 44.9562 255.417C47.5588 254.734 50.716 258.404 51.6973 260.75C51.74 260.793 51.9107 261.348 52.0813 261.945C51.996 260.921 51.868 259.897 51.6973 258.916C51.3134 256.014 50.8014 253.07 50.2894 250.127C50.1756 249.501 50.076 248.889 49.9907 248.292C49.0521 248.42 45.3828 248.761 43.7615 248.121C42.1402 247.524 40.2629 246.116 39.879 244.153C39.4523 242.148 40.5189 239.887 42.3962 239.375C44.9988 238.692 48.1561 242.361 49.1801 244.708C49.1801 244.793 49.3934 245.391 49.6067 246.116C49.3507 244.495 49.1374 242.916 48.9241 241.295C48.5828 238.507 48.4121 235.72 48.4121 232.932C48.0708 232.975 43.8042 233.53 42.0122 232.804C40.3483 232.164 38.5137 230.799 38.087 228.794C37.703 226.831 38.7696 224.527 40.6469 224.058C43.2495 223.375 46.4068 227.044 47.3881 229.348C47.4734 229.519 48.1561 231.78 48.3694 232.634V232.506C48.4263 229.718 48.6823 226.945 49.1374 224.186C49.5641 221.711 50.1045 219.251 50.7587 216.805C51.356 214.586 51.996 212.538 52.5933 210.746C52.9347 209.765 53.2333 208.869 53.532 208.058H53.4893C53.4893 208.058 53.4893 204.389 53.4893 204.133C53.7026 201.445 55.5799 196.24 58.1399 195.301C60.0172 194.661 61.5958 196.069 61.7665 198.16C61.9798 200.25 60.6998 202.554 59.3772 204.09C58.0545 205.669 54.556 207.504 53.66 207.93C53.3613 208.784 53.0627 209.722 52.7213 210.746C52.1667 212.538 51.5694 214.586 51.0147 216.847C50.8867 217.445 50.7587 218.127 50.588 218.725C51.0147 217.743 51.612 216.293 51.6973 216.165C52.9773 213.775 56.6466 209.893 59.2065 210.447C60.9985 210.831 61.7664 213.007 61.0838 215.055C60.4011 217.103 58.4385 218.511 56.6892 219.279C54.9399 220.047 51.1854 219.877 50.332 219.834C50.076 221.242 49.7774 222.693 49.5641 224.186C49.1374 226.916 48.9241 229.661 48.9241 232.42H49.0947C49.3934 231.439 50.0334 229.391 50.1187 229.22C51.228 226.703 54.5133 222.394 57.1159 222.607C58.9505 222.735 59.9318 224.783 59.4625 226.916C58.9505 229.007 57.0732 230.714 55.4519 231.652C53.5746 232.719 49.1374 232.975 48.9667 232.975C49.0236 235.677 49.237 238.365 49.6067 241.039C49.8627 243.001 50.2041 244.964 50.588 246.927C50.7587 246.244 51.6547 243.513 51.74 243.3C52.8067 240.783 56.1346 236.516 58.7372 236.73C60.5718 236.858 61.5531 238.905 61.0411 240.996C60.5718 243.129 58.6945 244.793 57.0306 245.732C55.2386 246.799 50.972 247.097 50.588 247.097C50.7587 247.979 50.9294 248.875 51.1 249.785C51.6547 252.687 52.2093 255.588 52.7213 258.489C52.8493 259.513 52.9773 260.537 53.148 261.518C53.4466 260.452 54.044 258.574 54.1293 258.404C55.2386 255.886 58.5239 251.62 61.1265 251.833C62.9611 251.961 63.9424 254.009 63.4731 256.1C62.9611 258.233 61.0838 259.897 59.4625 260.836C57.7985 261.774 54.2146 262.116 53.2333 262.158C53.4466 263.865 53.6173 265.529 53.7453 267.193C53.7453 267.918 53.8306 268.601 53.8306 269.326C53.8306 270.037 53.8306 270.734 53.8306 271.417C53.788 272.825 53.788 274.147 53.7453 275.47C53.7026 276.153 53.66 276.793 53.66 277.433C53.8306 276.366 54.172 274.617 54.2146 274.446C54.9826 271.801 57.7132 267.065 60.3585 266.809C62.2358 266.638 63.5157 268.43 63.3024 270.563C63.0891 272.697 61.3825 274.702 59.8892 275.897C58.2252 277.219 54.1293 278.201 53.6173 278.329C53.532 279.907 53.4466 281.486 53.3613 282.936C53.0627 287.075 52.6787 290.702 52.38 293.304H50.6307C51.0147 290.744 51.4414 287.16 51.8253 282.936C51.9107 281.657 52.0387 280.249 52.124 278.798C51.6547 278.798 47.8574 278.542 46.1081 277.646C45.1979 278.841 44.2309 279.993 43.2069 281.102C43.8895 282.382 44.5722 283.662 45.1695 284.856C46.8761 288.184 48.2414 291.086 49.2227 293.304H47.1748C46.3215 291.256 45.1695 288.696 43.8042 285.838C43.2495 284.771 42.6949 283.576 42.2682 282.595Z" fill="#357AFF"/>
<path d="M0.498212 237.497C-0.483099 235.663 0.0288877 233.444 1.65018 232.207C4.03946 230.628 8.13537 232.847 9.75666 234.639C9.88466 234.767 11.7619 237.497 11.7193 237.54C11.7193 237.54 7.36738 239.759 5.31943 239.759C3.6128 239.759 1.43686 239.204 0.498212 237.497Z" fill="#357AFF"/>
<path opacity="0.2" d="M44.0168 217.189C42.6515 216.08 41.2436 214.117 41.3289 212.027C41.3716 209.936 42.9075 208.016 44.7848 208.101C47.3874 208.229 49.478 212.837 49.9047 215.44C49.9047 215.696 50.0754 219.322 50.0327 219.322C50.0327 219.322 45.5955 218.512 44.0168 217.189Z" fill="black"/>
<path opacity="0.2" d="M42.2682 282.595C41.7989 282.894 38.0443 285.326 36.1244 285.582C34.3751 285.838 32.1565 285.582 31.0045 284.003C29.8525 282.297 30.1512 280.035 31.6871 278.67C33.9058 276.793 38.2577 278.414 40.0496 279.95C40.1776 280.078 41.3722 281.401 42.0122 282.126C41.6709 281.401 41.2869 280.718 40.8603 279.95C40.3056 278.926 39.7083 277.817 39.111 276.75L38.087 275.129C37.7883 274.574 37.4043 274.105 37.063 273.55C36.5084 272.825 35.9537 272.057 35.3564 271.289C34.3751 272.142 31.6018 274.531 29.8525 275.043C28.1459 275.555 25.8419 275.726 24.5193 274.403C23.154 272.91 23.154 270.606 24.5193 269.07C26.4819 266.894 31.0472 267.705 33.0524 268.899C33.1378 268.899 33.5218 269.241 33.9911 269.582C33.3938 268.857 32.8391 268.174 32.1991 267.449C30.4498 265.444 28.6152 263.524 26.7379 261.561L25.5859 260.324C24.7753 261.049 21.7034 263.694 19.9541 264.206C18.2475 264.761 15.9435 264.889 14.6209 263.566C13.2129 262.073 13.2129 259.769 14.6209 258.233C16.5835 256.057 21.1914 256.868 23.154 258.062C23.2393 258.105 23.7087 258.446 24.2633 258.873C23.2393 257.764 22.258 256.697 21.3194 255.545C19.6981 253.611 18.219 251.563 16.8822 249.401C16.5835 249.657 13.0422 252.815 11.0796 253.412C9.33032 253.924 7.06904 254.052 5.74641 252.772C4.33844 251.236 4.33844 248.932 5.74641 247.439C7.70903 245.22 12.2743 246.073 14.2795 247.225C14.4502 247.311 16.1142 248.633 16.7115 249.145L16.6688 249.06C15.3462 246.841 14.2795 244.495 13.3836 242.063C12.5587 239.844 11.8618 237.597 11.2929 235.322C10.7383 233.188 10.3116 231.183 9.97031 229.391C9.79965 228.41 9.67165 227.556 9.54365 226.703V226.746C9.50099 226.788 7.75169 223.973 7.66636 223.759C6.59972 221.498 5.74641 216.207 7.58103 213.861C7.78014 213.605 8.00769 213.377 8.26368 213.178C9.50099 212.239 11.2929 212.495 12.2316 213.775C13.3836 215.269 13.3409 217.871 12.9142 219.919C12.4876 221.967 10.2263 225.636 9.67165 226.532C9.79965 227.428 9.97031 228.324 10.1836 229.348C10.5676 231.098 10.9943 233.06 11.5916 235.194C11.7623 235.748 11.9329 236.346 12.1036 236.943C11.9756 235.834 11.8476 234.383 11.8476 234.212C11.8476 231.524 13.2556 226.148 15.7728 224.954C17.5221 224.058 19.2714 225.252 19.6554 227.3C20.0394 229.348 18.9728 231.695 17.7781 233.402C16.5408 235.151 13.1276 237.412 12.3596 237.924C12.7862 239.161 13.2129 240.484 13.7249 241.807C14.6635 244.153 15.8155 246.457 17.1381 248.591L17.2661 248.505C17.0528 247.567 16.6688 245.519 16.6688 245.348C16.4128 242.703 17.3088 237.242 19.6981 235.748C21.4474 234.682 23.282 235.62 23.8793 237.583C24.434 239.503 23.5807 242.063 22.5567 243.812C21.4047 245.86 17.5648 248.889 17.4368 249.017C18.7737 251.065 20.2527 253.014 21.874 254.862C23.0687 256.228 24.306 257.508 25.5859 258.83C25.4153 258.148 24.8606 255.46 24.8606 255.289C24.6046 252.644 25.5006 247.183 27.9326 245.647C29.6392 244.58 31.5165 245.561 32.0711 247.481C32.6684 249.401 31.7725 251.961 30.7912 253.71C29.6392 255.716 25.9699 258.66 25.6713 258.916L27.3779 260.665C29.2979 262.542 31.1752 264.462 33.0098 266.425C33.6498 267.108 34.2471 267.79 34.8444 268.473C34.6311 267.492 34.2471 265.614 34.2471 265.444C33.9911 262.798 34.9297 257.337 37.319 255.844C39.0256 254.777 40.9029 255.758 41.4576 257.678C42.0549 259.598 41.2016 262.116 40.1776 263.908C39.1536 265.657 36.1244 268.217 35.2711 268.899C36.2524 270.094 37.2337 271.246 38.087 272.483C38.471 273.038 38.8976 273.55 39.239 274.062L40.2629 275.683C40.9029 276.793 41.5429 277.859 42.1402 278.926C42.4389 279.438 42.6949 279.95 42.9935 280.462C42.6522 279.481 42.0549 277.945 42.0549 277.774C41.4576 275.257 41.6709 269.795 43.8895 267.918C44.1455 267.662 44.4442 267.477 44.7855 267.364C46.1935 266.809 47.7721 267.534 48.2841 268.942C48.3979 269.17 48.4832 269.411 48.5401 269.667C50.1187 271.161 51.2707 273.038 51.868 275.086C51.9107 275.257 52.2093 277.262 52.3373 278.286C52.38 277.39 52.4653 276.537 52.508 275.641C52.5933 274.318 52.636 272.953 52.6787 271.63C52.6787 270.947 52.636 270.265 52.6787 269.539C52.6787 268.814 52.5933 268.174 52.5933 267.449C52.5507 266.425 52.4653 265.401 52.38 264.334C51.228 264.462 47.9428 264.804 46.3215 264.164C44.6575 263.524 42.8229 262.158 42.3962 260.153C42.0122 258.19 43.0789 255.929 44.9562 255.417C47.5588 254.734 50.716 258.404 51.6973 260.75C51.74 260.793 51.9107 261.348 52.0813 261.945C51.996 260.921 51.868 259.897 51.6973 258.916C51.3134 256.014 50.8014 253.07 50.2894 250.127C50.1756 249.501 50.076 248.889 49.9907 248.292C49.0521 248.42 45.3828 248.761 43.7615 248.121C42.1402 247.524 40.2629 246.116 39.879 244.153C39.4523 242.148 40.5189 239.887 42.3962 239.375C44.9988 238.692 48.1561 242.361 49.1801 244.708C49.1801 244.793 49.3934 245.391 49.6067 246.116C49.3507 244.495 49.1374 242.916 48.9241 241.295C48.5828 238.507 48.4121 235.72 48.4121 232.932C48.0708 232.975 43.8042 233.53 42.0122 232.804C40.3483 232.164 38.5137 230.799 38.087 228.794C37.703 226.831 38.7696 224.527 40.6469 224.058C43.2495 223.375 46.4068 227.044 47.3881 229.348C47.4734 229.519 48.1561 231.78 48.3694 232.634V232.506C48.4263 229.718 48.6823 226.945 49.1374 224.186C49.5641 221.711 50.1045 219.251 50.7587 216.805C51.356 214.586 51.996 212.538 52.5933 210.746C52.9347 209.765 53.2333 208.869 53.532 208.058H53.4893C53.4893 208.058 53.4893 204.389 53.4893 204.133C53.7026 201.445 55.5799 196.24 58.1399 195.301C60.0172 194.661 61.5958 196.069 61.7665 198.16C61.9798 200.25 60.6998 202.554 59.3772 204.09C58.0545 205.669 54.556 207.504 53.66 207.93C53.3613 208.784 53.0627 209.722 52.7213 210.746C52.1667 212.538 51.5694 214.586 51.0147 216.847C50.8867 217.445 50.7587 218.127 50.588 218.725C51.0147 217.743 51.612 216.293 51.6973 216.165C52.9773 213.775 56.6466 209.893 59.2065 210.447C60.9985 210.831 61.7664 213.007 61.0838 215.055C60.4011 217.103 58.4385 218.511 56.6892 219.279C54.9399 220.047 51.1854 219.877 50.332 219.834C50.076 221.242 49.7774 222.693 49.5641 224.186C49.1374 226.916 48.9241 229.661 48.9241 232.42H49.0947C49.3934 231.439 50.0334 229.391 50.1187 229.22C51.228 226.703 54.5133 222.394 57.1159 222.607C58.9505 222.735 59.9318 224.783 59.4625 226.916C58.9505 229.007 57.0732 230.714 55.4519 231.652C53.5746 232.719 49.1374 232.975 48.9667 232.975C49.0236 235.677 49.237 238.365 49.6067 241.039C49.8627 243.001 50.2041 244.964 50.588 246.927C50.7587 246.244 51.6547 243.513 51.74 243.3C52.8067 240.783 56.1346 236.516 58.7372 236.73C60.5718 236.858 61.5531 238.905 61.0411 240.996C60.5718 243.129 58.6945 244.793 57.0306 245.732C55.2386 246.799 50.972 247.097 50.588 247.097C50.7587 247.979 50.9294 248.875 51.1 249.785C51.6547 252.687 52.2093 255.588 52.7213 258.489C52.8493 259.513 52.9773 260.537 53.148 261.518C53.4466 260.452 54.044 258.574 54.1293 258.404C55.2386 255.886 58.5239 251.62 61.1265 251.833C62.9611 251.961 63.9424 254.009 63.4731 256.1C62.9611 258.233 61.0838 259.897 59.4625 260.836C57.7985 261.774 54.2146 262.116 53.2333 262.158C53.4466 263.865 53.6173 265.529 53.7453 267.193C53.7453 267.918 53.8306 268.601 53.8306 269.326C53.8306 270.037 53.8306 270.734 53.8306 271.417C53.788 272.825 53.788 274.147 53.7453 275.47C53.7026 276.153 53.66 276.793 53.66 277.433C53.8306 276.366 54.172 274.617 54.2146 274.446C54.9826 271.801 57.7132 267.065 60.3585 266.809C62.2358 266.638 63.5157 268.43 63.3024 270.563C63.0891 272.697 61.3825 274.702 59.8892 275.897C58.2252 277.219 54.1293 278.201 53.6173 278.329C53.532 279.907 53.4466 281.486 53.3613 282.936C53.0627 287.075 52.6787 290.702 52.38 293.304H50.6307C51.0147 290.744 51.4414 287.16 51.8253 282.936C51.9107 281.657 52.0387 280.249 52.124 278.798C51.6547 278.798 47.8574 278.542 46.1081 277.646C45.1979 278.841 44.2309 279.993 43.2069 281.102C43.8895 282.382 44.5722 283.662 45.1695 284.856C46.8761 288.184 48.2414 291.086 49.2227 293.304H47.1748C46.3215 291.256 45.1695 288.696 43.8042 285.838C43.2495 284.771 42.6949 283.576 42.2682 282.595Z" fill="black"/>
<path opacity="0.2" d="M0.498212 237.497C-0.483099 235.663 0.0288877 233.444 1.65018 232.207C4.03946 230.628 8.13537 232.847 9.75666 234.639C9.88466 234.767 11.7619 237.497 11.7193 237.54C11.7193 237.54 7.36738 239.759 5.31943 239.759C3.6128 239.759 1.43686 239.204 0.498212 237.497Z" fill="black"/>
<path d="M126.28 60.9052C126.28 47.4655 115.4 36.5431 101.96 36.5431C88.5632 36.5004 77.6408 47.3802 77.6408 60.8199C77.5981 71.9556 85.15 81.6834 95.9017 84.414L101.747 94.5684L107.293 84.67C118.387 82.1954 126.28 72.2969 126.28 60.9052Z" fill="#263238"/>
<path fill-rule="evenodd" clip-rule="evenodd" d="M104.265 73.5765V77.5871H100.681V73.7045C97.4809 73.6191 94.4089 72.6378 91.7637 70.8459L93.7263 66.494C95.7742 67.9019 98.1635 68.7979 100.681 69.0112V63.0381C96.7129 62.0567 92.233 60.7341 92.233 55.6142C92.233 51.817 94.9636 48.5744 100.681 47.8917V43.9238H104.265V47.8064C106.825 47.9771 109.299 48.7451 111.518 50.025L109.726 54.4196C108.062 53.4383 106.185 52.7983 104.265 52.5423V58.6861C108.233 59.5821 112.627 60.9048 112.627 65.982C112.627 69.6512 109.897 72.8938 104.265 73.5765ZM100.681 57.7475V52.6703C98.7609 53.097 98.0355 54.1209 98.0355 55.3156C98.0355 56.4675 99.1022 57.2355 100.681 57.7475ZM106.825 66.366C106.825 65.1287 105.801 64.446 104.265 63.8914V68.8406C106.057 68.4566 106.825 67.5179 106.825 66.366Z" fill="white"/>
<path d="M50.6758 122.684L63.8168 305.634L200.774 289.677L162.332 115.175L50.6758 122.684Z" fill="#357AFF" stroke="#263238" stroke-width="2" stroke-linecap="round" stroke-linejoin="round"/>
<path d="M50.6754 122.685L30.9639 296.249L63.8164 305.635L50.6754 122.685Z" fill="#357AFF" stroke="#263238" stroke-width="2" stroke-linecap="round" stroke-linejoin="round"/>
<path opacity="0.1" d="M63.8164 305.635L50.6754 122.685L30.9639 296.249L63.8164 305.635Z" fill="black"/>
<path d="M89.2021 132.327C89.2021 132.327 96.9673 165.478 118.684 168.636C140.358 171.836 146.715 124.775 146.715 124.775" stroke="#263238" stroke-width="2" stroke-linecap="round" stroke-linejoin="round"/>
<path d="M93.3409 131.517C93.3409 133.778 91.5063 135.613 89.2023 135.613C86.9411 135.613 85.1064 133.778 85.1064 131.517C85.1064 129.256 86.9411 127.421 89.2023 127.421C91.5063 127.421 93.3409 129.256 93.3409 131.517Z" fill="#263238"/>
<path d="M177.049 50.4922H298.134C302.785 50.4922 306.539 54.2468 306.539 58.8973V290.529C306.539 295.18 302.785 298.934 298.134 298.934H177.049C172.441 298.934 168.687 295.18 168.687 290.529V58.8973C168.687 54.2468 172.441 50.4922 177.049 50.4922Z" fill="#263238" stroke="#263238" stroke-width="2" stroke-linecap="round" stroke-linejoin="round"/>
<path d="M170.692 50.4922H291.777C296.385 50.4922 300.14 54.2468 300.14 58.8973V290.529C300.14 295.18 296.385 298.934 291.777 298.934H170.692C166.042 298.934 162.287 295.18 162.287 290.529V58.8973C162.287 54.2468 166.042 50.4922 170.692 50.4922Z" fill="white" stroke="#263238" stroke-width="2" stroke-linecap="round" stroke-linejoin="round"/>
<path d="M240.749 65.3394H223.598C222.616 65.3394 221.806 64.5714 221.806 63.5901C221.806 62.6088 222.616 61.8408 223.598 61.8408H240.749C241.731 61.8408 242.499 62.6088 242.499 63.5901C242.499 64.5714 241.731 65.3394 240.749 65.3394Z" fill="#263238"/>
<path d="M291.394 65.5954V276.705H170.991V65.5527H199.535L202.734 68.198C203.844 69.1367 205.252 69.6486 206.745 69.6486H257.091C258.627 69.6486 260.077 69.094 261.229 68.1127L264.13 65.5954H291.394Z" fill="#263238"/>
<path d="M291.394 276.705H170.991V65.5527H199.535L202.734 68.198C203.844 69.1367 205.294 69.6486 206.745 69.6486H257.091C258.627 69.6486 260.077 69.094 261.229 68.1127L264.13 65.6381H291.394V276.705Z" stroke="#263238" stroke-width="2" stroke-linecap="round" stroke-linejoin="round"/>
<path d="M235.075 283.234C235.075 281.698 233.838 280.503 232.302 280.503C230.809 280.503 229.571 281.698 229.571 283.234C229.571 284.727 230.809 285.964 232.302 285.964C232.302 285.964 232.316 285.964 232.345 285.964C233.838 285.964 235.075 284.727 235.075 283.234Z" fill="#263238"/>
<path opacity="0.2" d="M291.393 166.884V193.934L208.621 276.705H181.571L291.393 166.884Z" fill="white"/>
<path opacity="0.2" d="M291.393 79.377V123.835L170.99 244.237V199.822L291.393 79.377Z" fill="white"/>
<path d="M307.817 209.21H146.242C142.274 209.21 139.031 205.968 139.031 202V111.42C139.031 107.453 142.274 104.21 146.242 104.21H307.817C311.785 104.21 315.027 107.453 315.027 111.42V202C315.027 205.968 311.785 209.21 307.817 209.21Z" fill="white" stroke="#263238" stroke-width="2" stroke-linecap="round" stroke-linejoin="round"/>
<path d="M193.371 121.874V123.655H190.953V131H188.73V123.655H186.312V121.874H193.371ZM202.391 121.874V131H200.168V127.243H196.71V131H194.487V121.874H196.71V125.449H200.168V121.874H202.391ZM209.676 129.388H206.27L205.724 131H203.397L206.699 121.874H209.273L212.575 131H210.222L209.676 129.388ZM209.104 127.672L207.973 124.331L206.855 127.672H209.104ZM221.744 131H219.521L215.803 125.371V131H213.58V121.874H215.803L219.521 127.529V121.874H221.744V131ZM228.647 131L225.579 126.97V131H223.356V121.874H225.579V125.878L228.621 121.874H231.234L227.698 126.346L231.364 131H228.647ZM243.001 121.874L239.842 127.984V131H237.619V127.984L234.46 121.874H236.982L238.75 125.696L240.505 121.874H243.001ZM248.213 131.091C247.355 131.091 246.566 130.892 245.847 130.493C245.136 130.094 244.568 129.54 244.144 128.829C243.728 128.11 243.52 127.304 243.52 126.411C243.52 125.518 243.728 124.717 244.144 124.006C244.568 123.295 245.136 122.741 245.847 122.342C246.566 121.943 247.355 121.744 248.213 121.744C249.071 121.744 249.855 121.943 250.566 122.342C251.285 122.741 251.848 123.295 252.256 124.006C252.672 124.717 252.88 125.518 252.88 126.411C252.88 127.304 252.672 128.11 252.256 128.829C251.84 129.54 251.276 130.094 250.566 130.493C249.855 130.892 249.071 131.091 248.213 131.091ZM248.213 129.063C248.941 129.063 249.521 128.82 249.955 128.335C250.397 127.85 250.618 127.208 250.618 126.411C250.618 125.605 250.397 124.964 249.955 124.487C249.521 124.002 248.941 123.759 248.213 123.759C247.476 123.759 246.887 123.997 246.445 124.474C246.011 124.951 245.795 125.596 245.795 126.411C245.795 127.217 246.011 127.863 246.445 128.348C246.887 128.825 247.476 129.063 248.213 129.063ZM256.301 121.874V127.334C256.301 127.88 256.435 128.3 256.704 128.595C256.972 128.89 257.367 129.037 257.887 129.037C258.407 129.037 258.805 128.89 259.083 128.595C259.36 128.3 259.499 127.88 259.499 127.334V121.874H261.722V127.321C261.722 128.136 261.548 128.825 261.202 129.388C260.855 129.951 260.387 130.376 259.798 130.662C259.217 130.948 258.567 131.091 257.848 131.091C257.128 131.091 256.483 130.952 255.911 130.675C255.347 130.389 254.901 129.964 254.572 129.401C254.242 128.829 254.078 128.136 254.078 127.321V121.874H256.301ZM266.208 121.549L265.948 127.776H264.063L263.803 121.549H266.208ZM265.038 131.104C264.648 131.104 264.327 130.991 264.076 130.766C263.833 130.532 263.712 130.246 263.712 129.908C263.712 129.561 263.833 129.271 264.076 129.037C264.327 128.803 264.648 128.686 265.038 128.686C265.419 128.686 265.731 128.803 265.974 129.037C266.225 129.271 266.351 129.561 266.351 129.908C266.351 130.246 266.225 130.532 265.974 130.766C265.731 130.991 265.419 131.104 265.038 131.104Z" fill="#357AFF"/>
<path d="M174.65 143.03L172.38 147.37V150H171.47V147.37L169.19 143.03H170.2L171.92 146.56L173.64 143.03H174.65ZM178 150.09C177.487 150.09 177.02 149.973 176.6 149.74C176.187 149.507 175.86 149.177 175.62 148.75C175.387 148.317 175.27 147.817 175.27 147.25C175.27 146.69 175.39 146.197 175.63 145.77C175.877 145.337 176.21 145.007 176.63 144.78C177.05 144.547 177.52 144.43 178.04 144.43C178.56 144.43 179.03 144.547 179.45 144.78C179.87 145.007 180.2 145.333 180.44 145.76C180.687 146.187 180.81 146.683 180.81 147.25C180.81 147.817 180.683 148.317 180.43 148.75C180.183 149.177 179.847 149.507 179.42 149.74C178.993 149.973 178.52 150.09 178 150.09ZM178 149.29C178.327 149.29 178.633 149.213 178.92 149.06C179.207 148.907 179.437 148.677 179.61 148.37C179.79 148.063 179.88 147.69 179.88 147.25C179.88 146.81 179.793 146.437 179.62 146.13C179.447 145.823 179.22 145.597 178.94 145.45C178.66 145.297 178.357 145.22 178.03 145.22C177.697 145.22 177.39 145.297 177.11 145.45C176.837 145.597 176.617 145.823 176.45 146.13C176.283 146.437 176.2 146.81 176.2 147.25C176.2 147.697 176.28 148.073 176.44 148.38C176.607 148.687 176.827 148.917 177.1 149.07C177.373 149.217 177.673 149.29 178 149.29ZM186.866 144.52V150H185.956V149.19C185.783 149.47 185.54 149.69 185.226 149.85C184.92 150.003 184.58 150.08 184.206 150.08C183.78 150.08 183.396 149.993 183.056 149.82C182.716 149.64 182.446 149.373 182.246 149.02C182.053 148.667 181.956 148.237 181.956 147.73V144.52H182.856V147.61C182.856 148.15 182.993 148.567 183.266 148.86C183.54 149.147 183.913 149.29 184.386 149.29C184.873 149.29 185.256 149.14 185.536 148.84C185.816 148.54 185.956 148.103 185.956 147.53V144.52H186.866ZM189.313 145.41C189.473 145.097 189.699 144.853 189.993 144.68C190.293 144.507 190.656 144.42 191.083 144.42V145.36H190.843C189.823 145.36 189.313 145.913 189.313 147.02V150H188.403V144.52H189.313V145.41ZM197.189 150.09C196.676 150.09 196.209 149.973 195.789 149.74C195.376 149.507 195.049 149.177 194.809 148.75C194.576 148.317 194.459 147.817 194.459 147.25C194.459 146.69 194.579 146.197 194.819 145.77C195.066 145.337 195.399 145.007 195.819 144.78C196.239 144.547 196.709 144.43 197.229 144.43C197.749 144.43 198.219 144.547 198.639 144.78C199.059 145.007 199.389 145.333 199.629 145.76C199.876 146.187 199.999 146.683 199.999 147.25C199.999 147.817 199.873 148.317 199.619 148.75C199.373 149.177 199.036 149.507 198.609 149.74C198.183 149.973 197.709 150.09 197.189 150.09ZM197.189 149.29C197.516 149.29 197.823 149.213 198.109 149.06C198.396 148.907 198.626 148.677 198.799 148.37C198.979 148.063 199.069 147.69 199.069 147.25C199.069 146.81 198.983 146.437 198.809 146.13C198.636 145.823 198.409 145.597 198.129 145.45C197.849 145.297 197.546 145.22 197.219 145.22C196.886 145.22 196.579 145.297 196.299 145.45C196.026 145.597 195.806 145.823 195.639 146.13C195.473 146.437 195.389 146.81 195.389 147.25C195.389 147.697 195.469 148.073 195.629 148.38C195.796 148.687 196.016 148.917 196.289 149.07C196.563 149.217 196.863 149.29 197.189 149.29ZM202.106 145.41C202.266 145.097 202.492 144.853 202.786 144.68C203.086 144.507 203.449 144.42 203.876 144.42V145.36H203.636C202.616 145.36 202.106 145.913 202.106 147.02V150H201.196V144.52H202.106V145.41ZM204.586 147.24C204.586 146.68 204.7 146.19 204.926 145.77C205.153 145.343 205.463 145.013 205.856 144.78C206.256 144.547 206.703 144.43 207.196 144.43C207.623 144.43 208.02 144.53 208.386 144.73C208.753 144.923 209.033 145.18 209.226 145.5V142.6H210.146V150H209.226V148.97C209.046 149.297 208.78 149.567 208.426 149.78C208.073 149.987 207.66 150.09 207.186 150.09C206.7 150.09 206.256 149.97 205.856 149.73C205.463 149.49 205.153 149.153 204.926 148.72C204.7 148.287 204.586 147.793 204.586 147.24ZM209.226 147.25C209.226 146.837 209.143 146.477 208.976 146.17C208.81 145.863 208.583 145.63 208.296 145.47C208.016 145.303 207.706 145.22 207.366 145.22C207.026 145.22 206.716 145.3 206.436 145.46C206.156 145.62 205.933 145.853 205.766 146.16C205.6 146.467 205.516 146.827 205.516 147.24C205.516 147.66 205.6 148.027 205.766 148.34C205.933 148.647 206.156 148.883 206.436 149.05C206.716 149.21 207.026 149.29 207.366 149.29C207.706 149.29 208.016 149.21 208.296 149.05C208.583 148.883 208.81 148.647 208.976 148.34C209.143 148.027 209.226 147.663 209.226 147.25ZM216.684 147.05C216.684 147.223 216.674 147.407 216.654 147.6H212.274C212.307 148.14 212.491 148.563 212.824 148.87C213.164 149.17 213.574 149.32 214.054 149.32C214.447 149.32 214.774 149.23 215.034 149.05C215.301 148.863 215.487 148.617 215.594 148.31H216.574C216.427 148.837 216.134 149.267 215.694 149.6C215.254 149.927 214.707 150.09 214.054 150.09C213.534 150.09 213.067 149.973 212.654 149.74C212.247 149.507 211.927 149.177 211.694 148.75C211.461 148.317 211.344 147.817 211.344 147.25C211.344 146.683 211.457 146.187 211.684 145.76C211.911 145.333 212.227 145.007 212.634 144.78C213.047 144.547 213.521 144.43 214.054 144.43C214.574 144.43 215.034 144.543 215.434 144.77C215.834 144.997 216.141 145.31 216.354 145.71C216.574 146.103 216.684 146.55 216.684 147.05ZM215.744 146.86C215.744 146.513 215.667 146.217 215.514 145.97C215.361 145.717 215.151 145.527 214.884 145.4C214.624 145.267 214.334 145.2 214.014 145.2C213.554 145.2 213.161 145.347 212.834 145.64C212.514 145.933 212.331 146.34 212.284 146.86H215.744ZM218.795 145.41C218.955 145.097 219.182 144.853 219.475 144.68C219.775 144.507 220.139 144.42 220.565 144.42V145.36H220.325C219.305 145.36 218.795 145.913 218.795 147.02V150H217.885V144.52H218.795V145.41ZM224.752 143.63C224.578 143.63 224.432 143.57 224.312 143.45C224.192 143.33 224.132 143.183 224.132 143.01C224.132 142.837 224.192 142.69 224.312 142.57C224.432 142.45 224.578 142.39 224.752 142.39C224.918 142.39 225.058 142.45 225.172 142.57C225.292 142.69 225.352 142.837 225.352 143.01C225.352 143.183 225.292 143.33 225.172 143.45C225.058 143.57 224.918 143.63 224.752 143.63ZM225.192 144.52V150H224.282V144.52H225.192ZM228.683 150.09C228.263 150.09 227.886 150.02 227.553 149.88C227.219 149.733 226.956 149.533 226.763 149.28C226.569 149.02 226.463 148.723 226.443 148.39H227.383C227.409 148.663 227.536 148.887 227.763 149.06C227.996 149.233 228.299 149.32 228.673 149.32C229.019 149.32 229.293 149.243 229.493 149.09C229.693 148.937 229.793 148.743 229.793 148.51C229.793 148.27 229.686 148.093 229.473 147.98C229.259 147.86 228.929 147.743 228.483 147.63C228.076 147.523 227.743 147.417 227.483 147.31C227.229 147.197 227.009 147.033 226.823 146.82C226.643 146.6 226.553 146.313 226.553 145.96C226.553 145.68 226.636 145.423 226.803 145.19C226.969 144.957 227.206 144.773 227.513 144.64C227.819 144.5 228.169 144.43 228.563 144.43C229.169 144.43 229.659 144.583 230.033 144.89C230.406 145.197 230.606 145.617 230.633 146.15H229.723C229.703 145.863 229.586 145.633 229.373 145.46C229.166 145.287 228.886 145.2 228.533 145.2C228.206 145.2 227.946 145.27 227.753 145.41C227.559 145.55 227.463 145.733 227.463 145.96C227.463 146.14 227.519 146.29 227.633 146.41C227.753 146.523 227.899 146.617 228.073 146.69C228.253 146.757 228.499 146.833 228.813 146.92C229.206 147.027 229.526 147.133 229.773 147.24C230.019 147.34 230.229 147.493 230.403 147.7C230.583 147.907 230.676 148.177 230.683 148.51C230.683 148.81 230.599 149.08 230.433 149.32C230.266 149.56 230.029 149.75 229.723 149.89C229.423 150.023 229.076 150.09 228.683 150.09ZM234.293 147.25C234.293 146.683 234.407 146.19 234.633 145.77C234.86 145.343 235.173 145.013 235.573 144.78C235.98 144.547 236.443 144.43 236.963 144.43C237.637 144.43 238.19 144.593 238.623 144.92C239.063 145.247 239.353 145.7 239.493 146.28H238.513C238.42 145.947 238.237 145.683 237.963 145.49C237.697 145.297 237.363 145.2 236.963 145.2C236.443 145.2 236.023 145.38 235.703 145.74C235.383 146.093 235.223 146.597 235.223 147.25C235.223 147.91 235.383 148.42 235.703 148.78C236.023 149.14 236.443 149.32 236.963 149.32C237.363 149.32 237.697 149.227 237.963 149.04C238.23 148.853 238.413 148.587 238.513 148.24H239.493C239.347 148.8 239.053 149.25 238.613 149.59C238.173 149.923 237.623 150.09 236.963 150.09C236.443 150.09 235.98 149.973 235.573 149.74C235.173 149.507 234.86 149.177 234.633 148.75C234.407 148.323 234.293 147.823 234.293 147.25ZM243.098 150.09C242.584 150.09 242.118 149.973 241.698 149.74C241.284 149.507 240.958 149.177 240.718 148.75C240.484 148.317 240.368 147.817 240.368 147.25C240.368 146.69 240.488 146.197 240.728 145.77C240.974 145.337 241.308 145.007 241.728 144.78C242.148 144.547 242.618 144.43 243.138 144.43C243.658 144.43 244.128 144.547 244.548 144.78C244.968 145.007 245.298 145.333 245.538 145.76C245.784 146.187 245.908 146.683 245.908 147.25C245.908 147.817 245.781 148.317 245.528 148.75C245.281 149.177 244.944 149.507 244.518 149.74C244.091 149.973 243.618 150.09 243.098 150.09ZM243.098 149.29C243.424 149.29 243.731 149.213 244.018 149.06C244.304 148.907 244.534 148.677 244.708 148.37C244.888 148.063 244.978 147.69 244.978 147.25C244.978 146.81 244.891 146.437 244.718 146.13C244.544 145.823 244.318 145.597 244.038 145.45C243.758 145.297 243.454 145.22 243.128 145.22C242.794 145.22 242.488 145.297 242.208 145.45C241.934 145.597 241.714 145.823 241.548 146.13C241.381 146.437 241.298 146.81 241.298 147.25C241.298 147.697 241.378 148.073 241.538 148.38C241.704 148.687 241.924 148.917 242.198 149.07C242.471 149.217 242.771 149.29 243.098 149.29ZM249.774 144.42C250.441 144.42 250.981 144.623 251.394 145.03C251.807 145.43 252.014 146.01 252.014 146.77V150H251.114V146.9C251.114 146.353 250.977 145.937 250.704 145.65C250.431 145.357 250.057 145.21 249.584 145.21C249.104 145.21 248.721 145.36 248.434 145.66C248.154 145.96 248.014 146.397 248.014 146.97V150H247.104V144.52H248.014V145.3C248.194 145.02 248.437 144.803 248.744 144.65C249.057 144.497 249.401 144.42 249.774 144.42ZM255.73 145.27H254.58V150H253.67V145.27H252.96V144.52H253.67V144.13C253.67 143.517 253.827 143.07 254.14 142.79C254.46 142.503 254.97 142.36 255.67 142.36V143.12C255.27 143.12 254.987 143.2 254.82 143.36C254.66 143.513 254.58 143.77 254.58 144.13V144.52H255.73V145.27ZM257.261 143.63C257.088 143.63 256.941 143.57 256.821 143.45C256.701 143.33 256.641 143.183 256.641 143.01C256.641 142.837 256.701 142.69 256.821 142.57C256.941 142.45 257.088 142.39 257.261 142.39C257.428 142.39 257.568 142.45 257.681 142.57C257.801 142.69 257.861 142.837 257.861 143.01C257.861 143.183 257.801 143.33 257.681 143.45C257.568 143.57 257.428 143.63 257.261 143.63ZM257.701 144.52V150H256.791V144.52H257.701ZM260.162 145.41C260.322 145.097 260.549 144.853 260.842 144.68C261.142 144.507 261.506 144.42 261.932 144.42V145.36H261.692C260.672 145.36 260.162 145.913 260.162 147.02V150H259.252V144.52H260.162V145.41ZM269.573 144.42C270 144.42 270.38 144.51 270.713 144.69C271.046 144.863 271.31 145.127 271.503 145.48C271.696 145.833 271.793 146.263 271.793 146.77V150H270.893V146.9C270.893 146.353 270.756 145.937 270.483 145.65C270.216 145.357 269.853 145.21 269.393 145.21C268.92 145.21 268.543 145.363 268.263 145.67C267.983 145.97 267.843 146.407 267.843 146.98V150H266.943V146.9C266.943 146.353 266.806 145.937 266.533 145.65C266.266 145.357 265.903 145.21 265.443 145.21C264.97 145.21 264.593 145.363 264.313 145.67C264.033 145.97 263.893 146.407 263.893 146.98V150H262.983V144.52H263.893V145.31C264.073 145.023 264.313 144.803 264.613 144.65C264.92 144.497 265.256 144.42 265.623 144.42C266.083 144.42 266.49 144.523 266.843 144.73C267.196 144.937 267.46 145.24 267.633 145.64C267.786 145.253 268.04 144.953 268.393 144.74C268.746 144.527 269.14 144.42 269.573 144.42ZM278.286 147.05C278.286 147.223 278.276 147.407 278.256 147.6H273.876C273.909 148.14 274.092 148.563 274.426 148.87C274.766 149.17 275.176 149.32 275.656 149.32C276.049 149.32 276.376 149.23 276.636 149.05C276.902 148.863 277.089 148.617 277.196 148.31H278.176C278.029 148.837 277.736 149.267 277.296 149.6C276.856 149.927 276.309 150.09 275.656 150.09C275.136 150.09 274.669 149.973 274.256 149.74C273.849 149.507 273.529 149.177 273.296 148.75C273.062 148.317 272.946 147.817 272.946 147.25C272.946 146.683 273.059 146.187 273.286 145.76C273.512 145.333 273.829 145.007 274.236 144.78C274.649 144.547 275.122 144.43 275.656 144.43C276.176 144.43 276.636 144.543 277.036 144.77C277.436 144.997 277.742 145.31 277.956 145.71C278.176 146.103 278.286 146.55 278.286 147.05ZM277.346 146.86C277.346 146.513 277.269 146.217 277.116 145.97C276.962 145.717 276.752 145.527 276.486 145.4C276.226 145.267 275.936 145.2 275.616 145.2C275.156 145.2 274.762 145.347 274.436 145.64C274.116 145.933 273.932 146.34 273.886 146.86H277.346ZM279.147 147.24C279.147 146.68 279.26 146.19 279.487 145.77C279.713 145.343 280.023 145.013 280.417 144.78C280.817 144.547 281.263 144.43 281.757 144.43C282.183 144.43 282.58 144.53 282.947 144.73C283.313 144.923 283.593 145.18 283.787 145.5V142.6H284.707V150H283.787V148.97C283.607 149.297 283.34 149.567 282.987 149.78C282.633 149.987 282.22 150.09 281.747 150.09C281.26 150.09 280.817 149.97 280.417 149.73C280.023 149.49 279.713 149.153 279.487 148.72C279.26 148.287 279.147 147.793 279.147 147.24ZM283.787 147.25C283.787 146.837 283.703 146.477 283.537 146.17C283.37 145.863 283.143 145.63 282.857 145.47C282.577 145.303 282.267 145.22 281.927 145.22C281.587 145.22 281.277 145.3 280.997 145.46C280.717 145.62 280.493 145.853 280.327 146.16C280.16 146.467 280.077 146.827 280.077 147.24C280.077 147.66 280.16 148.027 280.327 148.34C280.493 148.647 280.717 148.883 280.997 149.05C281.277 149.21 281.587 149.29 281.927 149.29C282.267 149.29 282.577 149.21 282.857 149.05C283.143 148.883 283.37 148.647 283.537 148.34C283.703 148.027 283.787 147.663 283.787 147.25Z" fill="#3E3E3E"/>
<path d="M281.152 186.64H208.962C203.288 186.64 198.68 182.032 198.68 176.358C198.68 170.683 203.288 166.075 208.962 166.075H281.152C286.784 166.075 291.392 170.683 291.392 176.358C291.392 182.032 286.784 186.64 281.152 186.64Z" fill="#357AFF"/>
<path d="M210.28 176.2C210.28 175.651 210.403 175.16 210.648 174.728C210.899 174.291 211.237 173.952 211.664 173.712C212.096 173.467 212.579 173.344 213.112 173.344C213.736 173.344 214.283 173.504 214.752 173.824C215.221 174.144 215.549 174.587 215.736 175.152H214.448C214.32 174.885 214.139 174.685 213.904 174.552C213.675 174.419 213.408 174.352 213.104 174.352C212.779 174.352 212.488 174.429 212.232 174.584C211.981 174.733 211.784 174.947 211.64 175.224C211.501 175.501 211.432 175.827 211.432 176.2C211.432 176.568 211.501 176.893 211.64 177.176C211.784 177.453 211.981 177.669 212.232 177.824C212.488 177.973 212.779 178.048 213.104 178.048C213.408 178.048 213.675 177.981 213.904 177.848C214.139 177.709 214.32 177.507 214.448 177.24H215.736C215.549 177.811 215.221 178.256 214.752 178.576C214.288 178.891 213.741 179.048 213.112 179.048C212.579 179.048 212.096 178.928 211.664 178.688C211.237 178.443 210.899 178.104 210.648 177.672C210.403 177.24 210.28 176.749 210.28 176.2ZM222.125 173.416V179H221.005V176.624H218.613V179H217.493V173.416H218.613V175.712H221.005V173.416H222.125ZM225.147 174.32V175.72H227.027V176.608H225.147V178.088H227.267V179H224.027V173.408H227.267V174.32H225.147ZM228.813 176.2C228.813 175.651 228.935 175.16 229.181 174.728C229.431 174.291 229.77 173.952 230.197 173.712C230.629 173.467 231.111 173.344 231.645 173.344C232.269 173.344 232.815 173.504 233.285 173.824C233.754 174.144 234.082 174.587 234.269 175.152H232.981C232.853 174.885 232.671 174.685 232.437 174.552C232.207 174.419 231.941 174.352 231.637 174.352C231.311 174.352 231.021 174.429 230.765 174.584C230.514 174.733 230.317 174.947 230.173 175.224C230.034 175.501 229.965 175.827 229.965 176.2C229.965 176.568 230.034 176.893 230.173 177.176C230.317 177.453 230.514 177.669 230.765 177.824C231.021 177.973 231.311 178.048 231.637 178.048C231.941 178.048 232.207 177.981 232.437 177.848C232.671 177.709 232.853 177.507 232.981 177.24H234.269C234.082 177.811 233.754 178.256 233.285 178.576C232.821 178.891 232.274 179.048 231.645 179.048C231.111 179.048 230.629 178.928 230.197 178.688C229.77 178.443 229.431 178.104 229.181 177.672C228.935 177.24 228.813 176.749 228.813 176.2ZM239.177 179L237.145 176.512V179H236.025V173.416H237.145V175.92L239.177 173.416H240.529L238.225 176.184L240.593 179H239.177ZM246.764 179.056C246.375 179.056 246.023 178.989 245.708 178.856C245.399 178.723 245.154 178.531 244.972 178.28C244.791 178.029 244.698 177.733 244.692 177.392H245.892C245.908 177.621 245.988 177.803 246.132 177.936C246.282 178.069 246.484 178.136 246.74 178.136C247.002 178.136 247.207 178.075 247.356 177.952C247.506 177.824 247.58 177.659 247.58 177.456C247.58 177.291 247.53 177.155 247.428 177.048C247.327 176.941 247.199 176.859 247.044 176.8C246.895 176.736 246.687 176.667 246.42 176.592C246.058 176.485 245.762 176.381 245.532 176.28C245.308 176.173 245.114 176.016 244.948 175.808C244.788 175.595 244.708 175.312 244.708 174.96C244.708 174.629 244.791 174.341 244.956 174.096C245.122 173.851 245.354 173.664 245.652 173.536C245.951 173.403 246.292 173.336 246.676 173.336C247.252 173.336 247.719 173.477 248.076 173.76C248.439 174.037 248.639 174.427 248.676 174.928H247.444C247.434 174.736 247.351 174.579 247.196 174.456C247.047 174.328 246.847 174.264 246.596 174.264C246.378 174.264 246.202 174.32 246.068 174.432C245.94 174.544 245.876 174.707 245.876 174.92C245.876 175.069 245.924 175.195 246.02 175.296C246.122 175.392 246.244 175.472 246.388 175.536C246.538 175.595 246.746 175.664 247.012 175.744C247.375 175.851 247.671 175.957 247.9 176.064C248.13 176.171 248.327 176.331 248.492 176.544C248.658 176.757 248.74 177.037 248.74 177.384C248.74 177.683 248.663 177.96 248.508 178.216C248.354 178.472 248.127 178.677 247.828 178.832C247.53 178.981 247.175 179.056 246.764 179.056ZM254.311 173.416V174.32H252.823V179H251.703V174.32H250.215V173.416H254.311ZM259.353 177.936H257.129L256.761 179H255.585L257.593 173.408H258.897L260.905 179H259.721L259.353 177.936ZM259.049 177.04L258.241 174.704L257.433 177.04H259.049ZM266.255 173.416V174.32H264.767V179H263.647V174.32H262.159V173.416H266.255ZM268.976 173.416V176.872C268.976 177.251 269.075 177.541 269.272 177.744C269.47 177.941 269.747 178.04 270.104 178.04C270.467 178.04 270.747 177.941 270.944 177.744C271.142 177.541 271.24 177.251 271.24 176.872V173.416H272.368V176.864C272.368 177.339 272.264 177.741 272.056 178.072C271.854 178.397 271.579 178.643 271.232 178.808C270.891 178.973 270.51 179.056 270.088 179.056C269.672 179.056 269.294 178.973 268.952 178.808C268.616 178.643 268.35 178.397 268.152 178.072C267.955 177.741 267.856 177.339 267.856 176.864V173.416H268.976ZM276.178 179.056C275.789 179.056 275.437 178.989 275.122 178.856C274.813 178.723 274.568 178.531 274.386 178.28C274.205 178.029 274.112 177.733 274.106 177.392H275.306C275.322 177.621 275.402 177.803 275.546 177.936C275.696 178.069 275.898 178.136 276.154 178.136C276.416 178.136 276.621 178.075 276.77 177.952C276.92 177.824 276.994 177.659 276.994 177.456C276.994 177.291 276.944 177.155 276.842 177.048C276.741 176.941 276.613 176.859 276.458 176.8C276.309 176.736 276.101 176.667 275.834 176.592C275.472 176.485 275.176 176.381 274.946 176.28C274.722 176.173 274.528 176.016 274.362 175.808C274.202 175.595 274.122 175.312 274.122 174.96C274.122 174.629 274.205 174.341 274.37 174.096C274.536 173.851 274.768 173.664 275.066 173.536C275.365 173.403 275.706 173.336 276.09 173.336C276.666 173.336 277.133 173.477 277.49 173.76C277.853 174.037 278.053 174.427 278.09 174.928H276.858C276.848 174.736 276.765 174.579 276.61 174.456C276.461 174.328 276.261 174.264 276.01 174.264C275.792 174.264 275.616 174.32 275.482 174.432C275.354 174.544 275.29 174.707 275.29 174.92C275.29 175.069 275.338 175.195 275.434 175.296C275.536 175.392 275.658 175.472 275.802 175.536C275.952 175.595 276.16 175.664 276.426 175.744C276.789 175.851 277.085 175.957 277.314 176.064C277.544 176.171 277.741 176.331 277.906 176.544C278.072 176.757 278.154 177.037 278.154 177.384C278.154 177.683 278.077 177.96 277.922 178.216C277.768 178.472 277.541 178.677 277.242 178.832C276.944 178.981 276.589 179.056 276.178 179.056Z" fill="white"/>
<path d="M176.279 163.259C183.532 163.259 189.377 169.147 189.377 176.357C189.377 183.61 183.532 189.456 176.279 189.456C169.026 189.456 163.181 183.61 163.181 176.357C163.181 169.147 169.026 163.259 176.279 163.259Z" fill="#357AFF"/>
<path opacity="0.2" d="M176.279 163.259C183.532 163.259 189.377 169.147 189.377 176.357C189.377 183.61 183.532 189.456 176.279 189.456C169.026 189.456 163.181 183.61 163.181 176.357C163.181 169.147 169.026 163.259 176.279 163.259Z" fill="white"/>
<path d="M176.407 167.825C181.101 167.825 184.898 171.622 184.898 176.316C184.898 181.009 181.101 184.806 176.407 184.806C171.714 184.806 167.917 181.009 167.917 176.316C167.917 171.622 171.714 167.825 176.407 167.825Z" fill="white" stroke="#263238" stroke-width="2" stroke-miterlimit="10"/>
<path d="M172.482 175.335L175.768 179.9L181.656 172.391" stroke="#263238" stroke-width="2" stroke-linecap="round" stroke-linejoin="round"/>
<path d="M103.706 209.209L110.831 308.322L185.027 299.661L164.206 205.156L103.706 209.209Z" fill="#357AFF" stroke="#263238" stroke-width="2" stroke-linecap="round" stroke-linejoin="round"/>
<path d="M103.706 209.21L93.04 303.245L110.832 308.322L103.706 209.21Z" fill="#357AFF" stroke="#263238" stroke-width="2" stroke-linecap="round" stroke-linejoin="round"/>
<path opacity="0.1" d="M110.832 308.322L103.578 210.404L93.04 303.245L110.832 308.322Z" fill="black"/>
<path d="M125.679 213.903C125.679 213.903 131.353 231.225 143.044 231.908C154.734 232.633 153.113 211.94 153.113 211.94" stroke="#263238" stroke-width="2" stroke-linecap="round" stroke-linejoin="round"/>
<path d="M127.214 213.903C127.214 214.756 126.532 215.439 125.679 215.439C124.825 215.439 124.143 214.756 124.143 213.903C124.143 213.092 124.825 212.367 125.679 212.367C126.532 212.367 127.214 213.092 127.214 213.903Z" fill="#263238"/>
<path d="M154.393 211.94C154.393 212.794 153.711 213.476 152.857 213.476C152.004 213.476 151.321 212.794 151.321 211.94C151.321 211.087 152.004 210.404 152.857 210.404C153.711 210.404 154.393 211.087 154.393 211.94Z" fill="#263238"/>
</svg>
